<?xml version="1.0" standalone="no"?>
<!DOCTYPE svg PUBLIC "-//W3C//DTD SVG 1.1//EN" "http://www.w3.org/Graphics/SVG/1.1/DTD/svg11.dtd">
<svg xmlns="http://www.w3.org/2000/svg">
<metadata>Generated by Fontastic.me</metadata>
<defs>
<font id="kcals" horiz-adv-x="512">
<font-face font-family="kcals" units-per-em="512" ascent="480" descent="-32"/>
<missing-glyph horiz-adv-x="512" />

<glyph glyph-name="kcals" unicode="&#97;" d="M491 277l-213 0 0 214c0 5-2 10-6 14-5 5-10 7-15 7-6 0-11-2-15-7-5-4-7-9-7-14l0-214-214 0c-5 0-10-2-14-6-5-4-7-9-7-15 0-6 2-11 7-15 4-4 9-6 14-6l214 0 0-214c0-5 2-10 6-15 4-4 9-6 15-6 6 0 11 2 15 6 4 5 6 10 6 15l1 214 213 0c6 0 11 2 15 6 4 4 6 9 6 15 0 6-2 11-6 15-4 4-9 6-15 6z"/>
<glyph glyph-name="kcals-1" unicode="&#98;" d="M344 512l5 0c5 0 14-1 26-2 2 0 5 0 9-1 4 0 7 0 9 0 4-1 10-1 19-1 1 0 2 0 3 0 1 1 1 1 2 1l4 0c5 0 9 0 12 1 1 0 2 0 3 1l-1-1c-10-7-19-16-26-26-1 0-1-1-2-2l-1-2c-5-7-12-17-21-32-5-7-10-13-16-19-4-4-10-9-18-14-11-5-19-9-25-10-11-3-21-4-31-2-4 1-9 2-16 3-8 3-14 5-19 8l-1 1 0 2c-2 11-1 23 3 35 1 5 5 13 10 22 8 11 17 20 27 25 9 6 19 10 30 12 1 0 4 0 7 0 3 1 6 1 8 1z m-133-45c4-1 10-1 17 0 7 1 11 1 13 1l4 0c1-5 3-12 4-20 3-15 4-26 3-33l0-7c0-7-1-19-4-35 7 1 17 3 31 6 14 3 24 6 31 7 15 1 26 1 33 0 13-2 27-6 40-12 15-7 29-17 40-29 13-13 22-26 29-39 5-11 9-19 11-24 1-5 4-14 7-28 1-3 1-7 2-11 0-3 0-7 1-12 0-4 0-7 0-9 0-4 0-7-1-9 0-18-3-37-8-56-4-15-9-28-15-41-11-25-26-47-43-66-1-1-3-4-6-7-3-3-5-5-6-6-3-3-7-7-14-12-10-9-20-15-31-19-8-3-15-5-22-5-1-1-2-1-5-1l-19 0-54 3-25 0c-7 0-13 0-16-1l-12 0c-13 0-23 1-30 3-12 5-20 9-24 12-39 31-68 71-87 120-7 19-11 38-14 56-1 3-1 8-1 14 0 6 0 10-1 13l0 8c1 2 1 5 1 9 0 5 0 8 1 11 1 13 4 29 10 48 3 8 7 16 11 25 5 9 10 16 13 20 5 6 10 12 17 18 4 4 11 9 20 14 7 5 15 8 26 10 7 1 12 2 17 2 13-1 23-3 29-5l30-6c10-2 19-3 27-2l0 9c-1 7-2 11-3 14-1 5-2 12-5 21-5 15-12 32-22 51z"/>
<glyph glyph-name="kcals-2" unicode="&#99;" d="M204 393l6-120 95 0 6 120z m12-239l83 0 5 102-93 0z m0-17l7-137 69 0 6 137z m-106 0l11-129 0-2 1-1c0-1 0-1 1-2l1-1c1 0 1 0 1-1l1 0c1-1 2-1 3-1l77 0-7 137z m77 256l-99 0 10-120 95 0z m6-137l-93 0 8-102 91 0z m-12 256l-128 0c-6 0-9-3-9-9 0-5 3-8 9-8l26 0 7-85 100 0z m141-239l95 0 10 120-99 0z m-13-273l76 0c2 0 3 0 4 1l1 0 2 2c0 1 0 1 1 1 0 0 0 0 0 1 0 1 0 1 1 1l0 2 11 129-90 0z m7 154l90 0 9 102-94 0z m146 358l-128 0-5-102 100 0 7 85 26 0c6 0 9 3 9 8 0 6-3 9-9 9z m-150-102l5 102-119 0 5-102z"/>
<glyph glyph-name="kcals-3" unicode="&#100;" d="M344 512l5 0c2 0 6 0 11-1 5 0 9 0 11 0 2-1 5-1 9-2 3 0 6 0 8 0l8 0c1 0 3 0 5-1 2 0 3 0 4 0l10 0c1 1 1 1 2 1l4 0c5 0 9 0 12 1 1 0 2 0 3 1-1-1-1-1-2-1-10-9-19-18-26-27-1-1-2-2-3-4-2-3-5-9-9-16-5-7-8-12-11-15-5-7-10-13-16-19-1-1-2-2-4-4-2-1-4-3-5-4-13-11-30-17-50-19l-8 0c-1 0-3 0-5 0-2 1-4 1-5 1-7 1-12 3-16 4-7 2-12 4-16 7l-1 1c-2 13-1 25 3 37 1 5 5 13 10 22 7 11 16 19 26 25 9 6 19 10 30 11 7 1 12 2 16 2z m-133-45c4-1 10-1 17 0 7 1 11 1 13 1l4 0c1-2 2-5 3-9 1-3 1-6 1-7 2-11 3-21 3-31l0-9c0-7 0-13-1-16 0-3 0-5 0-8-1-2-1-5-2-8-1-3-1-5-1-7 6 1 15 2 27 5l27 6c15 3 25 4 32 3 3 0 8-1 16-2 3-1 7-2 14-3 11-4 19-7 24-10 15-9 27-19 38-30 10-10 20-24 29-41 5-11 10-24 13-39 3-15 5-29 5-42 0-17-2-36-7-57-5-17-9-30-14-40-10-25-23-47-40-66-1-2-3-4-6-7-3-3-5-5-6-7-9-9-16-16-21-20-11-9-22-15-34-19-9-3-17-4-22-4l-20 0c-5 0-11 0-20 1-9 1-17 1-24 1-7 1-14 1-21 1l-12 0c-7 0-13 0-17-1l-11 0c-11-1-21 0-31 3-7 1-14 5-23 10-2 2-4 3-5 4-41 33-69 74-85 123-7 17-11 35-13 55-1 4-1 10-1 17-1 1-1 3-1 6l0 8c0 1 0 3 1 5 0 2 0 4 0 5 1 17 4 33 7 46 3 9 7 18 10 26 8 17 17 31 26 41 1 1 3 3 6 5 2 2 4 4 6 5 2 2 4 4 6 5 9 6 16 10 23 13 9 3 19 5 28 6 3 0 6 0 7-1 4 0 9-1 16-2 4-1 10-2 17-4 7-1 11-2 12-2 12-3 22-4 30-4l7 0c0 8-1 16-3 24-3 17-8 33-15 48-1 3-3 6-6 11-3 5-5 9-6 12z m41-121l0-38 8 0 0 38z m-14-1c0-4 1-10 2-18l2 0c0 4-1 10-2 18z m33 0l0-1c-1-2-1-5-1-9-1-3-1-6-1-8l3 0c0 2 0 5 1 8 0 3 0 6 0 7l1 1 0 2z m-50-3c1-2 1-5 2-9 1-3 1-6 2-8l2 0-3 18-1-1z m67 1c-1-4-3-10-4-18l3 0c1 3 2 9 3 17l-1 0z m-83-5c3-9 4-14 5-17 1 0 2 0 3 1-1 2-2 5-3 8-1 4-2 7-3 8z m99 0c-1-3-3-9-6-17l3 0c1 2 2 6 3 11 1 3 2 5 2 6z m16-5c-1-2-3-5-4-9-2-3-3-6-4-8l1 0c1-1 1-1 2-1l0 1c1 0 1 1 1 2 0 1 0 1 1 2 1 1 2 3 3 6 1 3 1 5 2 6-1 0-2 0-2 1z m-131-1c1-1 1-2 1-3l7-14 2 2c-1 1-1 2-2 4-1 2-1 4-2 5-1 2-2 4-3 5l0 2c-1-1-2-1-3-1z m-11-6l-6-3c0-1 0-1 1-1l1-2c2-4 5-10 10-18 4-7 6-12 7-13 2 1 4 3 7 4-8 15-14 26-19 33z m153-1c-2-3-5-9-9-16-4-7-7-13-9-16 4-2 6-3 7-4 1 3 4 6 7 11 3 5 5 9 6 12 1 2 3 6 6 11-1 0-2 1-5 2 0 1-1 1-2 1 0-1 0-1-1-1z m-170-10c1-3 3-5 4-6l6-9 2 2c-1 2-2 4-4 7-3 3-5 5-6 7z m188 1c-1-2-3-5-5-8-3-3-5-6-6-7l1-1 1 0c0 1 1 1 2 2 1 1 2 2 2 3 3 4 5 7 7 10l-1 0z m-200-11l-1-1c2-3 6-7 11-12l0-1 1 1c1 0 1 0 1 1l-5 5c-1 1-2 3-3 4-1 1-2 3-3 4z m213 1c-1-1-3-4-6-7-3-3-5-6-6-7 1-1 1-1 2-1l4 4c1 1 3 2 5 4 1 2 2 4 3 5z m-224-12l-2-2 1-1c3-2 7-6 12-11 0 1 1 2 2 2-3 2-6 5-10 9z m234-2c-1-1-5-4-10-8 0-1-1-2-2-2l2-2 4 4c2 1 5 4 9 8l-1 1 0 1z m-51-11l-1-1c0-1 0-2-1-2-8-11-20-26-35-47-15-20-24-32-27-36-3 0-6-1-7-2-2-1-3-2-3-5-1-2-1-4 0-6-2-1-5-2-8-5-4-2-7-4-9-5-20-12-35-21-45-26-5-3-13-8-22-13 0-1 0-2 1-3 9 5 23 13 40 23 17 11 31 18 40 23 1 1 2 2 5 3 1-1 3-2 4-3l6 0c5-5 13-13 24-23 10-9 18-16 23-21l2-2c3 0 4 0 5 1 2 2 2 4 1 7-1 0-1 0-1 1-21 20-37 35-47 44l0 2c0 2 0 3-1 4 1 1 3 2 6 3 2 1 4 2 5 3 0 1 0 1-1 1l-1 2c-1 0-1 0-2-1-1-1-2-1-3-2l1 1c6 9 16 22 29 39 13 18 22 31 29 40 1 1 1 2 1 4 0 2-1 3-3 3-2 1-4 0-5-1z m-195-1l0-1c1-1 4-3 8-6l3-3 2-1c1 0 2 1 2 2-2 1-4 3-7 5-3 3-5 4-7 5 0-1 0-1-1-1z m248-6l-4-4c1-1 1-1 1-2 1 1 4 3 7 5 3 3 6 5 8 6l-1 1c0 1 0 1-1 1-3-3-6-5-10-7z m-255-5c-1-1-1-2-2-3-1-1-1-1-1-2l0-1-1-1 8-4 15-9c1-1 3-2 5-3 2-1 4-2 5-3 1 2 3 4 4 7-3 1-5 3-6 4z m269-2c-2-1-5-3-9-6-4-2-7-4-9-5-1-1-3-2-5-3-3-1-5-2-6-3l1-1 3-6c7 5 18 11 33 19-1 3-3 5-4 7-1-1-1-1-2-1-1 0-2 0-2-1z m-3-22c0-1 0-2 1-3 1 1 4 2 8 3 3 2 6 4 8 5 0 1 0 1-1 2-2-1-5-2-8-4-3-1-6-2-8-3z m-276 5c4-3 9-5 16-7 0 1 0 1 1 2l-1 0c-3 2-5 3-8 4-1 1-2 1-3 2-2 1-3 1-4 1z m-5-14c-1-1-1-1-1-2 1 0 2 0 5-1 3-1 4-1 5-2 3-1 5-2 6-2 1 1 1 1 1 2-6 3-11 4-16 5z m299-1c-1 0-3-1-6-2-3-1-5-1-7-2 1-1 1-2 1-3 1 1 2 1 3 1 7 3 11 4 14 5 0 1 0 2-1 2-1 0-3 0-4-1z m-304-15l0-2c1 0 4 0 7-1 3-1 5-1 6-2l2-1 2 0 0 3c-3 1-9 2-17 3z m295-3l0-1 1-2c2 1 5 1 9 2 4 1 7 2 8 2l0 2z m-297-13l0-3c4 0 9-1 16-2 0 1 0 2 1 3-2 0-5 0-8 0-4 1-7 1-9 2z m316 0c-8-1-13-2-16-2l0-3c3 1 6 1 10 1 2 1 5 1 8 1l0 3z m-317-14l0-8 38 0 0 8z m282 0l0-8 38 0 0 8z m19-18l0-2c2 0 4 0 7-1 3-1 5-1 7-1l4 0 0 2-2 0c-7 1-12 2-16 2z m-293-1c-3 0-6 0-8-1 1-1 1-1 1-2 1 0 4 0 8 0 3 1 6 1 8 1l0 3c-1 0-2 0-4-1-2 0-4 0-5 0z m291-14c0-1 0-1-1-2l15-3 1 0 2-1 0 3c-3 1-7 2-14 3z m-296-3l0-3c1 0 2 0 2 1l15 3c0 1 0 1-1 2-2-1-5-1-8-2-3-1-6-1-8-1z m292-13l1-1c1 0 2 0 2-1 1 0 3-1 6-2 3-1 6-1 8-2l0 2-4 2c-1 0-3 0-6 1-3 1-5 2-7 3z m-288-4c1-1 1-1 1-2 1 1 4 1 8 2 3 1 6 2 8 3l0 1c-1 1-1 1-1 2-7-3-12-5-16-6z m283-8l-1-2 1-1c7-3 12-5 15-7 1 1 1 2 1 3-1 0-3 1-4 2-3 1-7 2-12 5z m-277-7l1-1 0-2c3 2 8 4 15 7 0 1 0 2-1 3-3-2-8-4-15-7z m254 6l-1-2c-1-2-2-4-3-5 3-2 9-5 16-10 7-4 13-7 17-9 1 1 1 1 1 2 1 1 2 2 3 5-4 2-10 5-17 9-7 5-13 8-16 10z m-224-5c-2-1-10-5-23-14l-1 0c1-1 1-2 2-3 1-1 1-1 1-2 1-1 1-1 1-2 3 1 6 3 10 6 1 1 9 5 23 13 0 1 0 1-1 2-1 1-1 2-2 3 0 1 0 2-1 2-2-1-5-2-9-5z m233-20l-2-2c1 0 2-1 5-3 2-2 4-3 5-4l2-1c1-1 2-1 2-2l2 2c-1 1-1 1-2 1-1 0-2 0-2 1-1 1-2 1-3 2-1 1-2 2-3 3-1 1-3 2-4 3z m-237-4c-4-3-7-5-10-6l2-2c1 1 3 2 4 3 1 1 3 2 6 3 2 1 3 2 4 3-1 1-1 1-1 2-1 0-1 0-1 1z m114-2c0-1 0-2-1-3 0-1 0-1 1-2 0-1 1-1 3-1l2 2c-1-1-2-1-3-1l-2 0c-1 1-1 2 0 3 0 1 1 2 2 2 1 0 2 0 3-1l-1 0-1 1z m16-1l0-1 2-2 0-1-1 0c-1 0-1 0-2 1 0-1 1-2 3-2 1 1 1 2 0 2 0 1-1 2-2 3l1 1 1-1 1 0c-1 1-1 1-2 1-1 0-1 0-1-1z m-22 1l0-6 1 0 0 3 3-3-3 3 3 3c-1 0-1 0-1-1l-1 0-1-1 0 2z m14 0l-3-6 2 2 2 0 2-2c0 1 0 1-1 1l-1 2c0 1 0 2-1 3z m4 0l0-6 3 0 0 1-2 0 0 5z m100-8c3-3 8-7 13-11 1 1 1 1 1 2-1 1-3 2-4 3-4 4-7 7-9 8-1-1-1-1-1-2z m-216-1l-9-9 2-2 12 12c0 1 0 1-1 1 0 1 0 1-1 1z m46-6c-1-1-2-3-3-5-1-2-2-4-3-5-3-7-8-15-13-23 1-1 2-2 4-3 1-1 2-1 3-1 5 8 9 16 13 23 1 1 2 2 3 4 1 3 2 5 3 6l-2 2c-2 1-4 1-5 2z m122-4c1 0 1 0 1-1 0-1 0-1 1-2 2-4 5-9 9-16 4-6 6-10 7-12l1-2c1 1 3 1 4 2 1 1 2 2 3 2-2 3-5 9-9 16-5 7-8 13-10 17-1-1-2-2-3-3-2-1-3-1-4-1z m37 1l5-5c3-4 5-7 7-8 1 1 1 1 2 1l-1 1c-1 1-3 3-5 6-3 3-5 6-6 7z m-191 1c-5-5-9-10-11-13 1-1 1-1 2-1 2 3 6 7 11 12z m179-10l1-1c1-1 1-2 2-3 1-1 1-1 1-2 2-2 4-5 7-9l2 2c-1 1-2 2-3 4-4 5-7 9-8 10-1-1-1-1-2-1z m-167 1c-1-1-2-3-3-4-1-1-2-2-3-5-2-3-3-4-4-5l2-2 2 4c1 1 3 2 5 5 1 3 2 4 3 5z m81-7l0-39 8 0 0 39z m61-9c3-7 5-11 6-14 0-1 0-2 1-2 1 1 1 1 2 1l-5 10c0 1-1 3-2 6z m-117 0c0-1 0-2-1-5-1-2-2-4-3-5-1-1-2-2-3-5l1 0 2-1c3 7 5 12 7 15-1 1-2 1-3 1z m103-6c1-1 1-4 2-7 1-3 1-5 2-6l1-1 0-2 2 1 0 2c-1 1-1 4-2 7-1 3-2 6-3 7-1 0-2 0-2-1z m-89 0c0-1 0-3-1-6-1-3-2-5-3-7-1-1-1-1-1-2l2-1c1 1 2 3 3 6 1 3 1 6 2 7 0 1 0 2 1 3-1 0-2 0-3 1z m74-3c1-2 2-5 3-9 1-4 1-7 1-8l2 0 0 2-3 15z m-59 0l-1-1 0-1-3-15 3 0c0 2 0 5 1 8 1 3 1 6 2 8-1 1-1 1-2 1z m14-2c0-2 0-5 0-9-1-4-1-7-1-9l2 0c1 2 1 5 1 9 0 1 0 2 1 3 0 2 0 4 0 5l-1 1z m30 0c1-8 2-14 2-18l3 0c0 2 0 5-1 9-1 4-1 7-1 9z m54 235c3 1 4 1 4-2 0-1 0-1 0-1-1 0-1 0-1-1-13-17-23-31-30-40l-2-2c-1-1-1-2-2-3-1 1-3 2-4 3 4 5 7 9 8 10 1 2 10 14 26 35 0 1 0 1 1 1z m-39-117c3-3 7-7 13-13 6-5 11-9 14-12 1-1 1-2 1-4l-3 0c-1 0-1 0-1 0 0 1 0 1-1 1-3 3-7 7-13 12-6 6-10 10-13 13z m-28-68c0 1 0 1 1 1 1 0 1 0 1-1z"/>
<glyph glyph-name="kcals-4" unicode="&#101;" d="M480 512l-469 0c-7 0-11-4-11-11l0-469c0-7 4-11 11-11l469 0c7 0 11 4 11 11l0 469c0 7-4 11-11 11z m-11-469l-448 0 0 448 448 0z"/>
<glyph glyph-name="kcals-5" unicode="&#102;" d="M512 413l-340-343-172 171 30 30 142-140 310 312z"/>
<glyph glyph-name="kcals-6" unicode="&#103;" d="M462 443c-8 9-16 9-23 0l-238-237c-8-7-16-7-23 0l-104 107c-3 3-7 4-12 4-5 0-8-1-11-4l-46-42c-3-3-5-7-5-11 0-5 2-9 5-12l105-110 23-23 45-46c8-7 16-7 23 0l306 306c7 7 7 15 0 23z"/>
<glyph glyph-name="kcals-7" unicode="&#104;" d="M128 323l105 100c6 6 14 9 23 9 9 0 16-3 22-9l106-100c6-6 9-13 9-22 0-8-3-15-9-21-6-6-14-9-23-9-9 0-17 3-23 9l-50 48 0-217c0-9-3-16-9-22-7-6-14-9-23-9-9 0-16 3-22 9-7 6-10 13-10 22l0 217-50-49c-6-6-14-9-23-9-9 0-17 3-23 9-6 6-9 13-9 22 0 9 3 16 9 22z"/>
<glyph glyph-name="kcals-8" unicode="&#105;" d="M256 478c-61 0-114-22-157-66-44-43-66-96-66-157 0-62 22-115 66-159 43-43 96-65 157-65 61 0 114 22 158 65 43 44 65 97 65 159 0 61-22 114-65 157-44 44-97 66-158 66z m0-427c-56 0-104 20-143 59-40 40-60 88-60 145 0 56 20 104 60 143 39 40 87 60 143 60 56 0 104-20 144-60 39-39 59-87 59-143 0-57-20-105-59-145-40-39-88-59-144-59z m-1 276c-10 0-15-5-15-15l0-169c0-10 5-15 15-15 10 0 15 5 15 15l0 169c0 10-5 15-15 15z m19 42c0-5-2-10-5-13-4-3-9-5-14-5-5 0-9 2-12 5-4 4-6 8-6 13 0 5 2 9 6 12 3 4 7 6 12 6 5 0 10-2 14-5 3-3 5-8 5-13z"/>
<glyph glyph-name="kcals-9" unicode="&#106;" d="M408 367l-20 92c-1 6-5 8-10 7-6-1-8-5-7-11l15-71c-33 25-69 38-110 38-41 0-79-13-112-38-5-4-6-8-2-13 4-5 8-6 13-2 29 23 63 34 100 34 37 1 71-10 101-33l-70-16c-6-1-8-5-7-10 1-5 4-7 9-7l2 0 91 20c6 1 8 5 7 10z m11-314l-68 17c37 16 65 41 85 76 20 35 28 73 23 113 0 5-3 8-10 8-6-1-8-5-7-10 4-37-3-72-22-104-19-31-46-54-80-69l18 71c1 6-1 10-7 11-6 1-10-1-11-6l-23-91c-1-6 1-10 7-11l90-23 3 0c4 0 7 2 8 7 2 5 0 8-6 11z m-208 32c-35 15-62 38-80 71-19 33-25 69-20 106l52-54c2-2 4-3 7-3 2 0 4 1 6 3 5 4 5 8 0 12l-65 67c-5 5-9 5-13 0l-67-65c-3-4-3-8 0-13 5-3 9-3 13 0l48 47c-4-40 4-77 25-112 20-34 49-59 87-75 1-1 2-1 3-1 5 0 7 2 8 6 3 5 1 8-4 11z"/>
<glyph glyph-name="kcals-10" unicode="&#107;" d="M230 393c-25 0-47-9-65-28-19-19-28-41-28-66 0-25 8-46 25-64 16-17 36-27 60-30l0-196c0-6 3-9 8-9 6 0 9 3 9 9l0 196c24 3 44 13 61 30 16 18 24 39 24 64 0 25-9 47-27 66-19 19-41 28-67 28z m43-103c-5 0-8 3-8 9 0 9-3 17-10 24-7 7-16 10-25 10-5 0-8 3-8 8 0 6 3 9 8 9 15 0 27-5 37-15 10-10 15-22 15-36 0-6-3-9-9-9z"/>
<glyph glyph-name="kcals-11" unicode="&#108;" d="M265 512c-6 0-9-3-9-9l0-230-247 0c-6 0-9-3-9-9 0-71 25-133 76-186 51-52 111-78 180-78 71 0 131 25 181 75 50 50 75 110 75 181 0 69-24 129-73 180-49 51-107 76-174 76z m-117-376l-31-31c-1-1-3-2-6-2-1 0-3 1-6 2-3 5-3 9 0 12l31 31c4 4 8 4 12 0 4-4 4-8 0-12z m216 240l31 31c3 3 7 3 12 0 3-5 3-9 0-12l-31-31c-1-1-3-2-6-2-3 0-5 1-6 2-4 4-4 8 0 12z m-89-324c0-6-3-9-8-9-6 0-9 3-9 9l0 43c0 5 3 8 9 8 5 0 8-3 8-8z m132 53c-3-1-5-2-6-2-3 0-5 1-6 2l-31 31c-4 4-4 8 0 12 4 4 8 4 12 0l31-31c3-3 3-7 0-12z m53 151l-43 0c-5 0-8 3-8 8 0 6 3 9 8 9l43 0c6 0 9-3 9-9 0-5-3-8-9-8z m-324 108c1-1 3-2 6-2 3 0 5 1 6 2 4 4 4 8 0 12l-31 31c-3 3-7 3-12 0-3-5-3-9 0-12z"/>
<glyph glyph-name="kcals-12" unicode="&#109;" d="M256 285c23 0 44 11 62 32 17 21 26 45 26 71 0 26-9 48-26 66-17 19-38 28-62 28-24 0-45-9-62-28-17-18-26-40-26-66 0-26 9-50 27-71 17-21 38-32 61-32z m250 93c0 19-7 35-20 48-13 14-30 21-49 21-19 0-36-7-49-21-13-13-20-29-20-48 0-29 13-49 39-62-1-3-2-7-2-14l7-60c-5 2-11 5-18 8-7 4-14 7-19 9-6 3-11 5-14 6-6 3-14 5-24 6-11 1-20 2-27 2l-11 0c-1 0-1 0-2-1l-1 0c-13-9-27-13-40-13-13 0-27 4-40 13-1 0-1 0-1 1-28 1-49-2-63-8-10-3-27-11-52-24l7 61c0 7-1 11-2 14 26 13 39 33 39 62 0 19-7 35-20 48-13 14-30 21-49 21-19 0-36-7-49-21-13-13-20-29-20-48 0-30 13-51 40-62-1-2-1-4-1-7l-14-122c-1-8 2-15 7-21 5-6 11-10 19-11l4 0c1-1 2-1 4-1 1 0 2 0 4 0 1 1 3 1 4 1l30 9 62 18 0-7-15-114 0-1c0-9 10-16 31-22 21-5 46-8 75-8 29 0 54 3 75 8 21 6 31 13 31 22l0 1-15 114 0 8 64-19 25-7c4-2 8-3 12-3 2 0 3 0 4 1l3 0c8 1 15 5 20 11 5 6 7 13 6 21l-14 122c0 3 0 5-1 7 27 11 40 32 40 62z m-473 0c0 11 4 21 13 29 8 9 18 13 29 13 11 0 21-4 30-13 8-8 12-18 12-29 0-11-4-21-12-30-9-8-19-12-30-12-11 0-21 4-29 12-9 9-13 19-13 30z m404-42c-11 0-21 4-29 12-9 9-13 19-13 30 0 11 4 21 13 29 8 9 18 13 29 13 11 0 21-4 30-13 8-8 12-18 12-29 0-11-4-21-12-30-9-8-19-12-30-12z m-333 42c0 8-3 15-8 20-6 6-13 9-21 9-8 0-15-3-20-9-6-5-9-12-9-20 0-8 3-15 9-21 5-5 12-8 20-8 8 0 15 3 21 8 5 6 8 13 8 21z m333 29c-8 0-15-3-20-9-6-5-9-12-9-20 0-8 3-15 9-21 5-5 12-8 20-8 8 0 15 3 21 8 5 6 8 13 8 21 0 8-3 15-8 20-6 6-13 9-21 9z"/>
<glyph glyph-name="kcals-13" unicode="&#110;" d="M86 274l20-74 29 0 37 115-30 0-22-76-19 76-30 0-20-76-21 76-30 0 37-115 29 0z m188 41l-30 0-19-76-22 76-30 0 37-115 30 0 19 74 20-74 29 0 38 115-31 0-22-76z m215 0l-23-76-19 76-29 0-20-76-22 76-30 0 37-115 30 0 19 74 20-74 30 0 37 115z m-230 164c-44 0-84-12-120-36-36-23-63-54-81-93l403 0c-18 39-45 70-81 93-37 24-77 36-121 36z m0-445c44 0 84 12 121 35 36 23 63 54 81 93l-403 0c18-39 45-70 81-93 36-23 76-35 120-35z"/>
<glyph glyph-name="kcals-14" unicode="&#111;" d="M256 464c57 0 106-20 147-61 41-41 61-90 61-147 0-57-20-106-61-147-41-41-90-61-147-61-57 0-106 20-147 61-41 41-61 90-61 147 0 57 20 106 61 147 41 41 90 61 147 61z m0-399c53 0 98 19 135 56 37 37 56 82 56 135 0 53-19 98-56 135-37 37-82 56-135 56-53 0-98-19-135-56-37-37-56-82-56-135 0-53 19-98 56-135 37-37 82-56 135-56z m8 319l0-120 120 0 0-17-120 0 0-119-17 0 0 119-119 0 0 17 119 0 0 120z"/>
<glyph glyph-name="kcals-15" unicode="&#112;" d="M256 464c57 0 106-20 147-61 41-41 61-90 61-147 0-57-20-106-61-147-41-41-90-61-147-61-57 0-106 20-147 61-41 41-61 90-61 147 0 57 20 106 61 147 41 41 90 61 147 61z m0-399c53 0 98 19 135 56 37 37 56 82 56 135 0 53-19 98-56 135-37 37-82 56-135 56-53 0-98-19-135-56-37-37-56-82-56-135 0-53 19-98 56-135 37-37 82-56 135-56z m-128 182l0 17 256 0 0-17z"/>
<glyph glyph-name="kcals-16" unicode="&#113;" d="M444 352c-9 0-16-3-22-10-6-6-9-13-9-22l0-128c0-9 3-16 9-23 6-6 13-9 22-9 9 0 16 3 22 9 6 7 9 14 9 23l0 128c0 9-3 16-9 22-6 7-13 10-22 10z m-376 0c-9 0-16-3-22-10-6-6-9-13-9-22l0-128c0-9 3-16 9-23 6-6 13-9 22-9 9 0 16 3 22 9 6 7 9 14 9 23l0 128c0 9-3 16-9 22-6 7-13 10-22 10z m47-208c0-13 5-25 14-34 9-9 20-14 33-14l16 0 0-64c0-9 3-16 9-23 6-6 13-9 22-9 9 0 16 3 22 9 6 7 9 14 9 23l0 64 32 0 0-64c0-9 3-16 9-23 6-6 13-9 22-9 9 0 16 3 22 9 6 7 9 14 9 23l0 64 16 0c13 0 25 5 34 14 9 9 13 21 13 34l0 176-282 0z m199 323l20 39c1 3 1 5-2 6-2 1-4 1-5-2l-20-40c-15 7-32 10-51 10-19 0-36-3-51-10l-20 40c-1 3-3 3-5 2-3-1-3-3-2-6l20-39c-22-10-40-25-55-46-15-21-24-44-27-69l280 0c-3 25-11 48-26 69-15 21-34 36-56 46z m-121-90c-6 0-11 2-15 6-5 5-7 10-7 17 0 7 2 12 7 16 4 5 9 7 15 7 7 0 12-2 17-7 4-4 6-9 6-16 0-7-2-12-6-17-5-4-10-6-17-6z m126 0c-7 0-12 2-16 6-5 5-7 10-7 17 0 7 2 12 7 16 4 5 9 7 16 7 6 0 11-2 16-7 4-4 6-9 6-16 0-7-2-12-6-17-5-4-10-6-16-6z"/>
<glyph glyph-name="kcals-17" unicode="&#114;" d="M360 242c0 7 1 15 3 22 1 7 4 14 7 19 3 5 6 10 9 15 3 5 7 9 10 12 3 3 6 6 9 8 3 3 5 5 8 6l3 2c-21 29-48 43-82 43-13 1-30-2-50-9-21-7-33-11-36-11-5 0-15 3-32 10-17 7-31 10-42 9-41 0-72-18-93-55-13-21-19-46-18-75 0-28 4-55 13-80 9-25 20-47 33-66 26-37 50-56 71-55 9 0 20 3 34 9 14 6 27 9 40 9 11 0 24-3 38-9 14-6 26-9 36-9 22 1 45 19 68 54 7 9 13 19 18 29 5 10 8 18 11 24l3 9-3 1c-1 1-3 2-5 3-2 1-5 3-8 5-3 2-6 4-9 7-3 3-7 6-10 9-3 3-6 7-9 12-3 5-6 9-9 14-3 5-5 11-6 17-1 7-2 14-2 21z m-56 163c18 23 26 47 23 70-25 0-47-11-66-33-19-20-27-43-24-68 25-2 47 8 67 31z"/>
<glyph glyph-name="kcals-18" unicode="&#115;" d="M0 254l0 154 190 26 0-180z m222 185l253 36 0-221-253 0z m253-217l0-222-253 36 0 186z m-285-182l-190 26 0 156 190 0z"/>
<glyph glyph-name="kcals-19" unicode="&#116;" d="M199 256c-23 12-45 18-67 18-3 0-6 0-8-1-20-1-43-6-68-14-1-1-3-2-6-3-3-1-6-1-7-2l-43-150c31 11 57 17 80 17 29 0 59-10 91-30 26 91 41 142 45 155-10 6-16 9-17 10z m56-38l-44-151c37-20 67-30 90-30 29 0 59 7 92 21l42 144c-28-9-55-13-81-13-39 0-72 10-99 29z m-114 107c28-1 57-10 88-29l44 152c-23 13-40 20-52 23-10 3-22 4-37 4-25 0-53-6-83-19l-43-149c31 12 58 18 83 18z m353 82c-30-11-58-17-83-17-37 0-70 10-98 30l-44-153c29-19 61-28 96-28 28 0 56 6 84 19l0 1 2 1z"/>
<glyph glyph-name="kcals-20" unicode="&#117;" d="M505 306l6 39c0-1 0-2 1-4 0-2 0-4 0-5 0-24-1-44-3-60-3-28-10-58-21-90-13-35-32-65-57-90-29-29-65-48-109-59-15-3-30-6-47-7l-2 0c-1-1-1-1-2-1-13-1-27-1-40 0-82 6-145 47-189 122-21 36-32 70-34 101 0-3 0-6-1-9-1-3-1-5-1-8-1-2-1-3-1-4l0-3c-3 35 0 66 7 93-7-15-10-24-11-25l-1-4c4 27 11 50 21 71 0 2 1 5 3 9 1 1 2 4 5 7 2 3 3 6 4 7l0 3c-1 22 2 41 8 58 5 13 10 21 15 26l3 3 0-1c1-17 10-32 25-45 5-1 9-2 11-2 18 4 35 4 52-1 11 15 29 24 53 28 3 1 6 1 9 1 2 1 4 1 5 1 1 0 1 0 1-1l0-1c-19-11-31-27-35-48 4-8 9-14 15-18 3-3 8-5 14-5l22 0c11 0 17-1 18-3l0-8c0-6-3-11-8-15-1 0-1 0-1-1-1 0-1 0-1-1-4-2-7-4-8-5-19-10-30-18-33-24 6-14 7-23 4-26 1-4 1-7 0-10-8 5-15 7-22 8-3-1-5-1-6-2-3 0-5-1-6-4-1-1-3-3-4-6-2-7-3-12-2-15 1-6 5-12 12-18 13-11 25-17 37-18 11-1 23 2 35 7 3 1 7 3 13 5 21 5 37 1 49-14 3-4 4-8 2-12-2-3-5-4-10-3l-6 0-1-1-2 0-3-2-8-4c-1 0-2-1-4-2-2-1-3-2-4-3-1-1-4-3-10-7-8-6-19-10-34-13-15-3-28-3-38 0l0-1c20-13 34-21 43-25 17-9 36-13 56-13 22 0 43 9 63 27 10 9 20 21 31 36l4 5 0-2c0-3-2-13-7-32-1-4-1-6 0-6 11 8 19 24 24 48 3 25 4 46 1 64 7-4 13-11 17-20l1-1c5 13 7 29 8 49 0 20-2 37-6 50 8-2 15-8 21-19l3-6c-9 42-33 73-72 93-12 6-26 11-43 15 17 5 32 7 45 7l7 0c-4 7-14 12-30 15-17 5-28 8-35 9l-7 2-1 0 1 0c1 0 3 0 6 0 3 1 5 1 7 1 18 1 43-3 76-14 19-6 35-16 46-31 11-13 18-23 21-31l2-5 0 5c1 7-2 19-9 36l1 0c1-1 2-1 3-2 2-2 3-4 4-6 3-4 8-15 15-32 5-13 10-39 17-78z"/>
<glyph glyph-name="kcals-21" unicode="&#118;" d="M214 249l38 65c3 6 1 11-4 14l-27 15c-6 3-11 2-14-3l-41-71-45-79-37-65c-3-6-2-11 4-14l26-15c6-3 11-2 14 3l52 91z m251 20l-90 0c3-6 7-12 10-19 3-6 7-12 11-19 3-7 6-11 7-14 3-8 7-14 10-19 1-1 2-4 3-8l49 0c7 0 10 3 10 9l0 60c0 7-3 10-10 10z m-218 0l-45-79 122 0c-11 23-24 49-37 79z m-102 0l-103 0c-7 0-10-3-10-10l0-60c0-6 3-9 10-9l58 0z m-39-185l-27 15c-5 3-9 2-10-5l-5-40c0-7 3-8 8-4l34 23c5 3 5 7 0 11z m290 105l0 1c-1 1-2 3-3 6-2 3-4 7-7 12-3 5-5 10-7 14l0 1c-1 1-2 2-2 3-1 0-1 0-1 1 0 1 0 1-1 2 0 1 0 2-1 2 0 1 0 1-1 2-1 1-1 2-1 3-1 0-1 0-1 1-1 1-1 1-1 2-1 1-1 2-1 3l-1 1c-31 58-50 92-57 102-4 7-9 15-15 26-7 11-12 21-17 29-5 9-10 17-15 25-5 8-10 14-13 18-4 4-7 6-9 5-1-3-2-5-2-8-1-2 0-7 3-14 2-7 4-14 6-20 2-5 5-13 9-22 3-9 6-17 9-23 3-5 6-12 10-20 3-8 6-14 7-17 41-102 67-155 77-160 7-3 14-2 22 1 15 6 19 14 13 24z m31-63l-13 24c-3 7-8 9-15 5l-15-7c-7-3-8-8-4-15l16-25c3-7 9-8 16-4l10 6c7 5 8 10 5 16z m-4-35c-9-9-9-18-2-28 4-6 12-11 23-16 11-5 16-9 17-12l-1 32c-4 28-16 36-37 24z"/>
<glyph glyph-name="kcals-22" unicode="&#119;" d="M188 188c-19 19-28 41-28 68 0 27 9 49 28 68 19 19 41 28 68 28 27 0 49-9 68-28 19-19 28-41 28-68 0-27-9-49-28-68-19-19-41-28-68-28-27 0-49 9-68 28z m290 196l-222 0c-27 0-51-8-72-23-22-15-38-34-47-59l-72 124c51 57 114 86 191 86 46 0 89-12 128-35 39-23 71-54 94-93z m-222-256c9 0 16 0 20 1l-72-124c-59 12-107 42-146 89-39 46-58 100-58 162 0 44 11 87 34 128l111-190c11-20 27-36 47-48 19-12 41-18 64-18z m85 224l152 0c13-30 19-62 19-96 0-71-25-131-75-181-49-50-109-75-181-75l110 191c12 20 18 42 18 65 0 39-14 71-43 96z"/>
<glyph glyph-name="kcals-23" unicode="&#120;" d="M433 300l-66 0 18 84 64 0c34 0 51-12 51-36 0-32-22-48-67-48z m42-72c0-31-22-47-66-47l-67 0 18 84 64 0c34 0 51-12 51-37z m-197 147l-66 0 18 84 64 0c34 0 51-12 51-36 0-32-22-48-67-48z m44-78c0-32-22-48-67-48l-66 0 18 84 64 0c34 0 51-12 51-36z m-25-132c0-31-22-47-66-47l-67 0 18 84 64 0c34 0 51-12 51-37z m-196 210l-67 0 18 84 64 0c34 0 51-12 51-36 0-32-22-48-66-48z m43-78c0-13-5-25-15-34-11-9-28-14-51-14l-67 0 18 84 64 0c34 0 51-12 51-36z"/>
<glyph glyph-name="kcals-24" unicode="&#121;" d="M47 299c10 55 37 101 80 137 43 37 93 55 150 55 65 0 120-23 166-69 46-45 69-101 69-166 0-65-23-121-69-167-46-45-101-68-166-68-45 0-86 12-123 35-37 23-66 54-86 93l25 0c19-32 44-58 77-77 33-19 68-29 107-29 59 0 110 21 152 62 41 42 62 92 62 151 0 59-21 109-62 150-42 42-93 63-152 63-51 0-96-16-135-49-39-32-64-72-74-121z m220-50l111-66 11 18-101 60 0 144-21 0z m-214-14l54 64-107 0z"/>
<glyph glyph-name="kcals-25" unicode="&#122;" d="M19 135c1 3 4 3 7 0 72-42 150-63 235-63 59 0 114 11 167 32 1 0 4 1 7 2 3 1 5 2 6 3 3 1 5 0 8-1 2-1 3-3 3-5 0-2-1-4-4-6-8-6-15-10-20-13-51-31-109-47-172-47-91 0-169 30-235 91-2 1-3 3-3 4l0 1c1 1 1 1 1 2z m130 125c0 41 18 69 55 84 18 8 50 14 96 18l0 8c0 19-3 32-8 39-5 8-14 12-27 12l-3 0c-23-3-35-13-38-32-3-6-6-9-9-10l-50 6c-5 2-7 5-7 8l0 3c9 49 44 76 104 79l10 0c34 0 60-8 77-25 4-4 9-10 14-19l1-4c1-3 2-5 3-7 1-6 2-9 3-10 1-3 1-11 1-24l0-106c0-13 3-25 10-35 2-3 5-8 10-13 1-2 2-4 2-7 0-3-1-5-3-6-21-19-34-30-39-35-4-3-8-3-12 0-8 6-14 12-17 17-1 1-4 3-7 8-1 1-3 3-4 6l-2 3c-15-17-28-27-40-32-12-4-27-6-44-6-23 0-41 7-55 21-14 15-21 34-21 59z m75 9c0-11 3-21 9-28 5-7 13-10 22-10l4 0c1 1 2 1 3 1 11 3 21 11 28 24 5 9 9 21 10 34l0 31c-11 0-19-1-26-2-7-1-15-3-24-6-9-3-15-8-19-15-5-7-7-17-7-29z m181-142c1 2 2 3 3 4 13 9 30 14 52 15 4 0 7 0 9-1 12-1 20-3 23-6 1-3 2-5 2-8l0-3c0-28-10-51-31-70l-4-2c-1 0-2 0-2 1-1 1-2 2-1 5 11 27 16 44 16 53 0 2-1 4-2 7-3 3-11 5-24 5-9 0-21-1-37-4-1 0-2 0-3 1l-1 0z"/>
<glyph glyph-name="kcals-26" unicode="&#65;" d="M390 428l-27 35 0 38c0 7-3 11-10 11l-190 0c-7 0-11-4-11-11l0-36-34-88c-1-1-1-1-1-2l0-1 3 0-3-1 0-357c0-7 4-11 11-11l189 0c1 0 3 0 4 1l2 1 64 51c3 3 4 5 4 8l0 358c0 1 0 3-1 4z m-84-65l0-336-168 0 0 336z m63 38l0-329-41-34 0 330z m-27 6l13 32 10-13z m-168 66l0 18 168 0 0-18z m163-21l-27-68-167 0 27 68z m-56-233c0 11-6 21-17 28-12 8-26 12-43 12-17 0-31-4-42-12-12-7-18-17-18-28 0-11 6-20 18-28 11-7 25-11 42-11 17 0 31 4 43 11 11 8 17 17 17 28z"/>
<glyph glyph-name="kcals-27" unicode="&#66;" d="M128 235c-23 0-43-8-60-24-18-16-32-36-41-61-9-25-16-49-20-73-5-23-7-45-7-66 0-7 4-11 11-11l235 0c7 0 10 4 10 11l0 2c0 21-2 43-7 66-5 24-12 48-21 72-9 25-23 45-40 60-17 16-37 24-60 24z m-106-214c1 47 11 91 30 131 19 41 44 61 76 61 32 0 57-20 76-61 19-40 29-84 30-131z m95 160c0-7-3-10-10-10-7 0-11 3-11 10 0 7 4 11 11 11 7 0 10-4 10-11z m43 0c0-7-4-10-11-10-7 0-10 3-10 10 0 7 3 11 10 11 7 0 11-4 11-11z m352 246c0 11-4 21-12 29-9 9-19 13-31 13l-74 0 0 22 10 0c7 0 11 3 11 10 0 7-4 11-11 11l-42 0c-7 0-11-4-11-11 0-7 4-10 11-10l10 0 0-22-74 0c-12 0-22-4-30-13-9-8-13-18-13-29 0-17 7-29 21-37l0-27c0-10 3-19 9-27 6-7 14-12 23-14l0-89c-21-6-32-20-32-41l0-181c0-7 4-11 11-11l192 0c7 0 11 4 11 11l0 181c0 21-11 35-32 41l0 89c9 2 17 7 23 14 6 8 9 17 9 27l0 27c14 8 21 20 21 37z m-75-192l-106 0 0 85 106 0z m32-43l0-171-170 0 0 171c0 6 2 11 6 15 4 4 9 6 15 6l128 0c6 0 11-2 15-6 4-4 6-9 6-15z m0 171c0-6-2-11-6-16-4-4-9-6-15-6l-128 0c-6 0-11 2-15 6-4 5-6 10-6 16l0 21 170 0z m0 42l-170 0c-6 0-11 2-15 6-5 5-7 10-7 16 0 5 2 10 7 14 4 5 9 7 15 7l170 0c6 0 11-2 16-7 4-4 6-9 6-14 0-6-2-11-6-16-5-4-10-6-16-6z"/>
<glyph glyph-name="kcals-28" unicode="&#67;" d="M192 477c-42 0-79-6-112-19-33-13-49-29-49-50l0-302c0-21 16-38 49-51 32-12 69-18 112-18 42 0 79 6 112 18 32 13 48 30 48 51l0 302c0 21-16 37-48 50-33 13-70 19-112 19z m-137-134c1 11 7 17 17 18 18-8 39-14 62-18 17-3 36-4 58-4 22 0 41 1 57 4 23 4 44 10 62 18 10-1 16-7 17-18l0-1c-1-10-15-20-40-29-26-9-58-14-96-14-39 0-71 5-96 14-26 9-40 19-41 29z m273-192l0-3-1-1c-1-1-1-1-1-2l-3-3-7-5c-3-3-7-5-13-7-15-7-39-11-72-14-9 0-15 0-20-1l-7 0 0 105c42 1 75 6 99 13 9 3 18 7 25 12z m12 2z m0 128z m-34 104c-1-1-2-1-3-2-2-1-3-1-4-1-7-4-15-7-26-9-25-7-52-10-81-10-30 0-57 3-82 10-11 2-19 5-26 9-3 1-5 2-7 3-14 7-21 14-22 21l0 2c0 6 5 12 16 19 11 7 27 13 49 18 21 5 45 8 72 8 26 0 50-3 72-8 21-5 37-11 48-18 11-7 16-13 16-19l0-2c-1-7-8-14-22-21z m34-278l-12 0 0-1c0-11-13-21-39-31-26-9-58-14-97-14-39 0-72 5-98 14-26 10-39 20-39 31l0 1-12 0 12 0 0 199c29-21 75-31 137-31 61 0 107 10 136 31l0-26c0-3-2-6-5-9-18-18-62-27-131-27l-12 0 0-153 24 0c47 1 83 7 107 16 7 3 11 5 14 7 1 0 1 0 1 1l2 1 0-9z m92 271c-17 0-31-10-42-30-11-20-17-40-17-61 0-35 16-54 47-58l0-147c0-8 4-12 12-12 8 0 12 4 12 12l0 147c15 2 26 8 35 18 8 10 12 23 12 40 0 21-6 41-17 61-11 20-25 30-42 30z m0-126c-23 0-35 12-35 35 0 16 4 31 11 45 7 15 15 22 24 22 8 0 16-7 24-22 7-15 11-30 11-45 0-23-12-35-35-35z"/>
<glyph glyph-name="kcals-29" unicode="&#68;" d="M270 504c-3 5-7 8-14 8l-2 0c-5 0-9-3-14-10l-2-2c-85-137-132-241-141-311-1-7-1-13-1-19 0-47 16-86 47-119 31-33 68-49 112-49 43 0 81 16 112 49 31 33 46 72 47 118 0 63-48 174-144 335z m-15-484c-39 0-73 15-100 44-28 29-42 65-42 106 0 30 12 72 36 126 24 54 47 99 69 136 21 37 34 58 37 61 0 1 0 1 1 1 30-47 61-104 93-171 31-66 47-117 47-154 0-41-14-76-41-105-28-29-61-44-100-44z m-2 384c-6 3-10 2-12-3-56-103-84-178-84-224 0-25 5-48 16-69 1-3 4-5 8-5 1 0 2 0 3 1 5 2 7 6 4 12-9 17-13 38-13 61 0 43 27 115 81 215 4 5 3 9-3 12z"/>
<glyph glyph-name="kcals-30" unicode="&#69;" d="M420 168c-5 0-8-2-10-5-3-2-4-5-4-9 0-10 5-15 14-15 5 0 9 2 11 5 3 2 4 5 4 10 0 9-5 14-15 14z m15 29c-3-4-4-7-4-10 0-10 5-15 15-15 5 0 8 2 10 5 3 3 4 6 4 10 0 10-5 15-14 15-5 0-9-2-11-5z m-4 41c-3-4-4-7-4-10 0-10 5-15 15-15 4 0 8 2 11 5 2 3 3 6 3 10 0 10-5 15-14 15-4 0-8-2-11-5z m-14-37c0 9-5 14-14 14-4 0-8-2-11-5-3-3-4-6-4-9 0-10 5-15 15-15 4 0 8 2 11 5 2 2 3 5 3 10z m-170-34c5 0 8 1 10 4 3 3 4 6 4 10 0 10-5 15-14 15-4 0-8-2-11-5-3-3-4-6-4-10 0-9 5-14 15-14z m23 74c4 0 8 2 11 5 3 4 4 7 4 10 0 10-5 15-15 15-4 0-8-2-11-5-2-3-3-6-3-10 0-10 5-15 14-15z m-4-14c-2-2-3-5-3-10 0-9 5-14 14-14 5 0 8 1 11 4 3 4 4 7 4 10 0 10-5 15-15 15-4 0-8-2-11-5z m-54-62c4 0 8 2 11 5 2 3 3 6 3 10 0 10-5 15-14 15-4 0-8-2-11-5-2-3-3-6-3-10 0-10 5-15 14-15z m172 11c-4 0-8-2-11-5-3-3-4-6-4-10 0-9 5-14 15-14 5 0 8 2 10 5 3 2 4 5 4 9 0 10-5 15-14 15z m25 53c4 0 8 2 11 5 2 3 3 6 3 10 0 10-5 15-14 15-4 0-8-2-11-5-2-3-3-7-3-10 0-10 5-15 14-15z m58 73c-31 49-69 82-114 99-49 17-97 13-142-14l-11 11c3 13 2 23-5 30-6 7-15 11-26 11-11 0-19-4-26-11-4-5-7-13-8-23-17-3-27-10-30-22-5-13 0-23 13-32 3-1 6-2 11-3 5-1 9-1 12-1 3 1 7 1 10 2l5 1c3-1 5-3 6-4-15-18-26-32-33-43-11 4-20 12-28 23 3 12 1 22-5 29-8 8-17 12-27 12-11 0-20-4-25-11-5-7-8-15-9-24-16-3-26-10-30-22-3-13 1-23 13-31 2-1 4-2 7-3 3-1 5-1 8-1l9 0c0 0 2 0 7 0 5 1 7 1 5 1l2 1 1-1 1 0c4-2 7-4 8-5l0-2c-1-5 0-9 3-12 3-3 7-5 12-7 1-1 3-2 7-4 4-3 7-6 10-10-7-13-12-28-15-43-3-15-3-31 0-47 3-16 9-29 20-39 3-3 6-5 10-8 4-3 8-5 11-7 3-1 8-3 13-5 5-1 10-3 13-4 3-1 7-2 14-3 7-1 11-1 13-2 1 0 6-1 13-2 7-1 11-2 12-2 39-7 85-8 140-3 82 7 134 30 157 68 22 39 11 93-32 163z m-329 66c-3 0-6 1-8 2-3 1-4 3-3 6 1 9 8 12 21 9 3-1 7-1 10 2 3 3 3 7 2 11-3 9-2 15 3 18 7 3 11 2 14-2 3-3 3-8 0-15-1-3-1-7 0-10 0-1 1-2 3-3 2-1 4-3 7-5 2-2 3-3 4-4-1-2-3-5-6-8-3-3-6-6-8-7-3 3-8 7-13 10-3 1-8 1-15-1z m-61-78l-12 9c-3 1-8 1-15-1l-12-3c-7 0-11 3-11 8 2 9 9 12 22 9 3-1 6 0 9 3 3 3 4 6 3 10-5 10-4 16 3 18 7 3 11 2 14-2 2-3 2-8-1-15-1-4-1-7 1-10 0-1 1-2 3-3 2-1 4-3 6-5l4-4z m14-19l17 18c9-7 20-11 33-11 5 0 16 2 34 5 27 7 50 9 69 6 25-3 43-14 52-35 11-25 7-49-11-72-19-21-41-29-67-25-19 4-36 15-50 32-3 3-6 7-11 12-5 6-8 10-10 13-21 27-39 46-56 57z m364-146c-29-20-77-32-144-35-37-1-76 1-117 7-41 6-67 15-80 28-7 7-11 19-12 36-1 17 3 37 12 58 1-1 3-3 6-8 3-4 6-7 8-9 17-25 35-43 52-54 15-9 32-14 50-14 35 0 62 16 81 47 15 25 17 51 7 78-10 25-27 41-52 49-19 6-43 7-72 2-9-1-16-3-20-4-4-1-11-3-20-4 16 23 34 42 55 57 21 15 44 25 70 30 25 5 51 0 78-13 31-15 62-44 93-89 13-17 23-35 30-54 7-19 10-38 7-59-3-21-14-37-32-49z"/>
<glyph glyph-name="kcals-31" unicode="&#70;" d="M4 257c1-23 4-44 8-65 3-20 11-42 22-67 11-25 26-46 43-63 17-17 42-32 73-44 31-12 66-18 106-18 40 0 76 6 107 18 31 12 55 27 72 44 17 17 32 38 43 63 11 25 19 47 23 67 3 21 6 42 7 65z m252-239c-141 0-219 74-232 221l464 0c-13-147-91-221-232-221z m-114 336c0-12 2-23 6-34 4-11 8-18 12-23 4-5 6-7 7-7l12 13c-12 12-18 29-18 51 0 11 5 24 14 38 11 19 17 35 17 49 0 13-2 25-7 36-5 12-10 21-15 26-5 5-8 8-9 9l-12-13 3-3c1-2 3-5 6-8 3-3 5-7 8-12 2-5 4-10 6-16 1-6 2-12 2-19 0-11-5-24-15-39-11-17-17-33-17-48z m55 0c0-12 2-23 6-34 4-11 8-18 12-23 4-5 6-7 7-7l12 13c-12 12-18 29-18 51 0 11 5 24 14 38 11 19 17 35 17 49 0 13-2 25-7 36-5 12-10 21-15 26-5 5-8 8-9 9l-12-13 2-3c2-2 4-5 7-8 2-3 4-7 7-12 3-5 5-10 7-16 1-6 2-12 2-19 0-11-5-24-15-39-11-17-17-33-17-48z m55 0c0-12 2-23 6-34 4-11 8-18 12-23 4-5 6-7 7-7l13 13c-1 0-2 2-5 5-3 4-6 10-9 18-3 9-5 18-5 28 0 11 5 24 14 38 11 19 17 35 17 49 0 27-10 51-30 71l-13-13 3-3c1-2 3-5 6-8 3-3 5-7 8-12 2-5 4-10 6-16 1-6 2-12 2-19 0-10-5-23-14-39-12-18-18-34-18-48z m56 0c0-12 2-23 6-34 4-11 8-18 12-23 3-5 5-7 6-7l13 13c-1 0-2 2-5 5-3 4-6 10-9 18-3 9-5 18-5 28 0 9 5 22 14 38 11 19 17 35 17 49 0 27-10 51-30 71l-13-13 2-3c2-2 4-5 7-8 2-3 4-7 7-12 3-5 5-10 7-16 1-6 2-12 2-19 0-10-5-23-14-39-11-17-17-33-17-48z"/>
<glyph glyph-name="kcals-32" unicode="&#71;" d="M121 413c16 0 30-6 41-17 11-11 17-25 17-41 0-49 17-90 52-125 34-34 75-51 124-51 16 0 30-6 41-17 11-11 17-25 17-41 0-16-6-30-17-42-11-11-25-17-41-17-81 0-150 29-207 86-57 57-86 126-86 207 0 16 6 30 18 41 11 11 25 17 41 17z m44-58c0 12-4 22-13 31-9 9-19 13-31 13-12 0-22-4-31-13-9-9-13-19-13-31 0-77 27-142 82-197 54-54 119-81 196-81 12 0 22 4 31 13 9 9 13 19 13 31 0 12-4 22-13 31-9 9-19 13-31 13-53 0-97 18-134 55-37 37-56 82-56 135z m-30 80c-5 0-7-2-7-7 0-5-2-7-7-7-5 0-8 2-8 7 0 5-2 7-7 7-5 0-7 3-7 8 0 5 2 7 7 7 5 0 10-2 15-5 3 3 8 5 14 5 5 0 8-2 8-7 0-5-3-8-8-8z m227-292c0-5-2-8-7-8-61 0-112 21-155 64-43 43-65 95-65 156 0 5 3 7 8 7 5 0 7-2 7-7 0-57 20-105 60-145 40-40 88-60 145-60 5 0 7-2 7-7z m88-8c0-6-2-11-5-14 3-5 5-10 5-15 0-5-2-7-7-7-5 0-8 2-8 7 0 5-2 7-7 7-5 0-7 3-7 8 0 5 2 7 7 7 5 0 7 2 7 7 0 5 3 8 8 8 5 0 7-3 7-8z"/>
<glyph glyph-name="kcals-33" unicode="&#72;" d="M449 370c-9 5-26 11-49 17-41 9-89 14-144 14-55 0-103-5-144-14-23-6-40-12-49-17-19-11-29-24-29-41 0-31 6-60 17-85 11-26 27-49 48-69 21-21 44-36 71-47 28-11 57-17 86-17 29 0 58 6 86 17 27 11 51 26 71 47 21 20 37 43 48 69 11 25 17 54 17 85 0 17-10 30-29 41z m-12-112l0-1c-1-1-1-3-2-6-1-2-2-3-3-4-8-10-23-19-46-26-36-11-79-17-130-17-51 0-94 6-130 17-23 7-38 16-46 26-1 1-1 2-2 4-1 3-2 5-3 6l0 1c-7 15-11 31-13 50l9-6c13-5 28-10 45-14 35-9 82-13 140-13 58 0 105 4 140 13 17 4 32 9 45 14l9 6c-2-19-6-35-13-50z m-181 33c-52 0-97 4-136 13 4 4 8 5 13 4l6 0 0 5c1 10 7 15 16 15 7 0 13-3 16-10l3-8 6 5c5 5 10 7 17 7 5 0 11-2 16-5l6-4 2 7c2 5 6 8 11 8 1 0 3-1 6-2l5-2 2 5c3 7 9 10 16 10 8 0 13-3 15-10l3-8 6 5c6 5 12 7 17 7 8 0 15-3 20-9l3-3 4 3c3 1 5 2 8 2 5 0 8-1 11-4l4-3 3 2c5 3 11 5 17 5 15 0 25-7 30-20-37-10-86-15-146-15z m158 12c-2 10-7 18-15 24-8 7-17 10-27 10-6 0-12-2-19-5-5 3-11 5-16 5-3 0-6-1-10-2-7 6-16 9-25 9-7 0-13-2-19-6-5 8-13 12-22 12-10 0-18-4-23-12-1 1-3 1-6 1-7 0-13-3-18-10-8 3-14 4-17 4-7 0-13-2-19-6-5 8-13 12-23 12-14 0-23-7-26-20-11 0-18-6-23-17l0-1c-30 9-45 18-45 28 0 12 19 22 57 30 38 9 84 13 138 13 54 0 100-4 138-13 38-8 57-18 57-30 0-9-12-17-37-26z m-158-164c-33 0-63 7-91 22-29 15-52 36-70 61 7-4 17-8 28-11 35-12 80-18 133-18 53 0 98 6 133 18 11 3 21 7 28 11-18-25-41-46-69-61-29-15-59-22-92-22z m46 168c0-3-1-4-4-4-3 0-5 1-5 4 0 3 2 5 5 5 3 0 4-2 4-5z m25-2c0-5-2-7-7-7-5 0-8 2-8 7 0 5 3 8 8 8 5 0 7-3 7-8z m-22 18c0-2-1-3-3-3-2 0-3 1-3 3 0 2 1 3 3 3 2 0 3-1 3-3z"/>
<glyph glyph-name="kcals-34" unicode="&#73;" d="M277 405l0 86 75 0c7 0 11 3 11 10 0 7-4 11-11 11l-171 0c-7 0-10-4-10-11 0-7 3-10 10-10l75 0 0-86c-13-1-23-3-29-4 5 20 8 39 8 58 0 7-4 10-11 10-59 0-109-21-150-63-42-41-63-91-63-150 0-7 3-11 10-11 17 0 33 2 49 6-4-16-6-32-6-48 0-56 20-104 60-144 39-39 87-59 143-59 55 0 103 20 143 59 39 40 59 88 59 144 0 54-19 100-56 139-37 39-83 60-136 63z m-64 43c-3-49-21-90-56-125-35-35-76-53-125-56 3 49 21 90 56 125 35 35 76 53 125 56z m54-427c-50 0-93 18-128 53-36 36-54 79-54 129 0 18 3 37 9 56 59 21 101 60 124 118 12 3 25 6 38 7l0-57-27 13c-7 4-12 2-15-5-3-6-1-11 5-14l43-21c1-1 3-1 5-1 2 0 3 0 4 1l43 21c7 4 8 9 5 14-3 7-8 8-14 5l-28-13 0 56c47-3 88-21 121-56 33-35 50-76 50-124 0-50-18-93-53-129-35-35-78-53-128-53z"/>
<glyph glyph-name="kcals-35" unicode="&#74;" d="M407 232c-1 3-2 6-4 8l-4 4c0 0-1 1-3 2l0 3c1 1 1 1 1 2 0 1 0 2 1 4 0 2 0 4 0 5 2 9 2 18 0 26-3 9-10 14-20 14 1 3 1 5 1 7 0 9 0 17-1 23-1 7-9 14-24 19-7 1-14 1-20 0-6-1-11-3-14-5l-5-4c14 20 24 35 29 46l1 0-1 0 31 26 42 36-73 62-5-34c-48 1-90-2-126-11-19-5-39-10-58-16-19-6-34-11-44-15-11-3-16-5-15-6l18 3c11 2 28 4 51 6 23 2 45 3 66 3 30-1 59-4 86-11l0-1c1-1 1-1 2 0l-12-15c-27-39-47-65-62-78-5-5-14-19-26-41-5-11-14-23-25-38l-6-10c-2 3-4 5-5 6l-10 0c0 1 1 2 3 3 1 1 2 4 3 7 1 3 2 6 1 9-1 3-2 4-2 5 0-1 1-1 2 0 1 1 3 2 6 4 2 2 4 5 6 8 8 13 12 20 13 23 1 7 1 13 0 16-1 6-2 10-5 13-3 3-6 4-9 3-3 0-7-2-10-5-3-3-6-7-9-10l-3-5-6-4c-8-1-17-6-26-13-3-2-7-15-12-38-1-4-3-10-6-18-3-8-6-15-7-20-1-5-2-9-1-13 3-21 10-45 23-74 6-13 13-26 22-40 9-14 13-22 14-23 3-6 7-15 10-28 3-13 6-21 8-25 5-12 22-19 49-22 27-2 53-1 78 2 25 4 38 7 39 10 2 6 3 9 2 10-1 1-1 2 0 2 0 1 0 2 1 4 1 3 1 5 1 8 0 1 0 3 0 6-1 3-1 6 0 7 1 3 4 11 10 24 6 13 13 27 21 44 8 17 14 30 18 39 3 7 5 15 5 22 0 1-1 4-2 11 0 17-1 30-3 38z m-41 243c7-1 14-4 19-9 5-5 8-12 7-19 0-7-3-13-8-18-2-2-4-3-5-4-3-2-6-3-8-3 6 8 10 14 11 19 3 5 3 10 1 13-7 14-18 17-32 9-2-1-6-5-12-11l0 1c0 1 0 2 1 3 3 13 12 19 26 19z m-26-20l-1-2c0 1 0 2 1 2z"/>
<glyph glyph-name="kcals-36" unicode="&#75;" d="M367 415c17 17 35 29 55 38 23 9 48 13 76 11l4 0 4-19-2-2c-15-14-26-31-33-50-7-22-10-44-9-66 11-26 17-55 17-86 0-60-20-107-59-142-41-35-95-52-163-52-69 0-123 17-162 52-40 35-60 82-61 142l0 4c0 29 5 56 16 81 1 22-2 44-9 67-7 19-18 36-33 50l-2 2 4 19 4 0c28 2 53-2 76-11 20-9 39-22 56-39 32 13 66 20 103 20l8 0c41 0 78-6 110-19z m84-68c1 19 4 35 9 50 9 23 20 40 33 52l-1 4c-23 1-45-3-66-11-16-7-32-17-48-32 16-9 30-18 42-28 11-9 21-20 31-35z m-390 0c9 13 21 26 37 40 10 8 22 15 36 22-14 14-30 25-48 33-21 8-43 12-66 11l-1-4c13-12 24-29 33-52 5-15 8-31 9-50z m351 27c-37 33-89 49-155 49l-7 0c-60-1-108-16-145-45-39-31-59-75-59-133l0-4c1-57 19-102 56-133 39-33 90-49 155-49 67 0 118 16 155 49 37 31 55 76 55 133 0 56-18 100-55 133z m-265-50l-8-9c1-1 2-2 3-3 1-1 5-2 11-4 5-1 11-2 18-2 7 0 13 1 18 3 5 3 9 5 11 7l2 4-10 6c-3-5-10-8-21-8-5 0-10 0-14 1-4 1-7 2-8 3z m107-57l-3 0c-23 0-42-6-56-18-17-13-25-31-25-53l0-2c1-24 8-42 23-54 15-13 36-19 61-19 26 0 46 6 61 19 15 13 23 31 23 54 0 23-8 41-23 54-15 13-35 19-61 19z m54-28c-15 11-33 17-54 17l-2 0c-22-1-39-7-50-16-13-9-20-24-20-44l0-2c0-19 6-34 19-45 13-11 31-17 53-17 23 0 41 6 54 17 12 11 18 26 18 45 0 19-6 34-18 45z m-71-28l-12 0 0-3-9-2 5-33 16 1z m47 0l-11 0-1-37 16-1 6 33-10 2z m46 113l-8-9c1-1 2-2 4-3 1-1 5-2 10-4 5-1 11-2 18-2 7 0 13 1 18 3 5 3 9 5 10 7l3 4-10 6c-3-5-10-8-21-8-5 0-10 0-14 1-4 1-7 2-8 3z"/>
<glyph glyph-name="kcals-37" unicode="&#76;" d="M468 437c-21-9-48-25-80-50 15 17 38 35 67 54 7 6 9 11 8 16-1 5-4 8-9 11-2 2-7 0-16-5-19-11-38-27-57-48 13 28 22 51 25 70 0 10-1 15-3 15-24-15-37-25-39-32-12-50-27-83-45-100-20 9-42 14-67 14l-3 0c-20 0-46-19-77-56-31-37-59-76-84-119-25-43-44-80-57-111-16-39-19-63-10-71 7-7 16-10 29-10 42 0 108 33 199 98 12 9 26 19 43 32 16 13 35 30 58 52 22 23 33 40 33 51 2 33-4 59-17 80 13 21 45 44 94 68 4 2 9 8 14 19 5 11 8 18 9 23 1 3-1 4-7 2z m-105-188c0-7-11-21-34-44-23-23-54-48-92-76-86-62-148-93-187-93-7 0-12 1-14 2-5 17 16 66 63 147l54-34c-7 17-22 34-44 51 6 11 13 22 22 35l63-40c-9 20-26 39-52 57 1 1 2 2 3 5 3 3 6 8 11 14 4 6 7 10 8 12l66-42c-9 21-27 40-54 58 33 41 58 61 74 61l2 0c38 0 67-11 88-33 17-19 25-45 23-80z"/>
<glyph glyph-name="kcals-38" unicode="&#77;" d="M340 280c-1-1-2-2-3-3-2-1-6-3-12-5-6-1-12-2-19-1-7 0-13 1-18 3-5 2-8 4-9 5-1 2-2 3-2 4l9 4c2-3 9-5 21-6 5 0 10 0 15 1 4 1 7 3 8 4l3 2z m-85 133c-36 0-66-7-89-20-24-15-39-37-46-66l-1-6-6 2c-20 9-38 12-54 9-15-3-28-10-39-19 12-14 26-25 41-33 17-9 35-13 54-14l3 0 52-128c21 5 50 7 85 7 33 0 62-3 87-8l52 129 3 0c19 1 37 5 54 14 15 8 29 19 41 33-11 9-24 16-39 19-16 3-34 0-54-9l-6-2-1 6c-7 29-22 51-46 66-23 13-53 20-89 20z m-95-278c-1 0-4-1-8-2l-3-1 0-3c-6-47 11-80 50-100 17-9 35-13 56-13 21 0 39 4 56 13 39 20 56 53 50 100l0 3-3 1c-1 1-2 1-3 1-1 0-2 0-3 1l49 121c17 1 36 6 55 15 17 9 33 22 47 39l3 4-4 3c-15 14-31 22-47 25-13 3-29 1-47-4 22 12 37 30 46 54 8 22 9 51 2 87l0 1-10 16-3-11c-7-23-17-42-30-57-15-15-32-25-53-32l-9 6c-22 13-53 20-92 21l-6 0c-39-1-70-8-92-21l-9-6c-21 7-38 17-53 32-13 15-23 34-30 57l-3 11-10-16 0-1c-7-36-6-65 2-87 9-24 24-42 46-54-18 5-34 7-47 4-16-3-32-11-47-25l-4-3 3-4c14-17 30-30 47-39 19-9 38-14 55-15z m-46 209c-23 11-39 28-46 51-7 20-8 44-4 72 8-19 17-34 28-46 13-14 30-25 51-33-13-11-23-26-29-44z m65-56c1-1 2-1 3-2 1-1 4-2 9-3 4-1 9-2 14-2 3 0 6 0 9 1l6 1c0 0 1 1 4 2 2 1 3 1 2 1l0 1 9-4c0-1-1-2-2-4-1-1-4-3-9-5-5-2-11-3-18-3-7-1-13 0-18 1-6 2-10 4-12 6l-4 2z m76-153c41 0 73-4 96-11 4-39-11-68-44-86-16-8-33-12-52-12-19 0-36 4-52 12-33 17-48 46-45 86 24 7 56 11 97 11z m-57-42c1-1 1-1 2-1 3-1 7-1 10 0 3 1 6 3 8 6 1 1 1 2 1 3l10-4c-1-1-1-2-2-3-1-1-1-1-1-2-4-5-8-8-13-9-6-3-11-3-16-1-3 1-4 2-5 3z m121-8c-1-1-2-2-5-3-5-2-10-2-16 1-5 1-9 4-13 9-1 1-2 2-3 5l10 4c0-1 0-2 1-3 2-3 5-5 8-6 3-1 7-1 10 0 1 0 1 0 1 0 0 1 0 1 1 1z m50 303c21 8 38 19 51 33 11 12 20 27 28 46 4-28 3-52-4-72-7-23-23-40-46-51-6 18-16 33-29 44z"/>
<glyph glyph-name="kcals-39" unicode="&#78;" d="M416 405l-272 0-71 102-18-12 63-90-22 0c-7 0-11-3-11-10l0-64c0-7 4-11 11-11l22 0 21-310c0-7 3-10 10-10l214 0c7 0 10 3 10 10l21 310 22 0c7 0 11 4 11 11l0 64c0 7-4 10-11 10z m-271-172c10-3 19-8 26-16 7-7 10-16 10-25 0-23-10-36-30-41z m208-212l-194 0-7 108c15 3 27 10 37 21 9 12 14 26 14 42 0 15-6 29-17 41-12 12-26 19-42 22l-5 65 234 0z m52 320l-298 0 0 43 298 0z"/>
<glyph glyph-name="kcals-40" unicode="&#79;" d="M486 219c0 1 0 1-1 1l-7 12c-5 7-10 17-16 28-7 12-12 22-15 31-5 14-5 29 0 44 12 23 15 40 8 51-1 3-3 5-5 6-3 1-5 2-6 2l-3 1c-8 1-16 0-23-5-8-4-16-11-24-21-8-9-14-17-18-23-4-6-9-15-16-26-1-3-4-7-7-12l-1 1c-1 0-1 0-1 1-11 9-22 17-33 24 1 24 13 43 35 58 13 9 20 18 22 29 1 7 0 12-3 16-7 10-20 14-39 11-1 0-4 0-7-1-3-1-6-1-8-1-21-1-51-6-88-15-46-11-74-32-83-61-23-5-42-14-58-27-17-12-28-25-35-40-7-15-12-27-15-36-3-9-4-17-5-23-4-2-6-3-7-4-7-8-9-16-6-25 3-9 10-13 21-14 1-5 3-9 5-11 2-5 7-7 15-8l1 0c1 0 3 0 4 1 11-13 25-24 40-33-9-19-10-34-5-47 3-5 8-9 13-11 2-1 5-1 8-1 10 0 19 6 26 17 8-11 18-19 29-26 3-1 6-2 9-2 5 0 9 2 12 5 4 5 6 13 6 24 0 2 0 5 0 8-1 3-1 6-1 8l2 0c5 0 10 0 16 1 5 1 15 3 28 6 13 4 26 9 39 15 12 7 26 17 41 30 15 14 28 30 39 48 1 1 1 1 2 1 1-1 5-4 10-9 44-42 77-61 98-58 6 0 11 3 15 9 6 11 3 28-8 51z m-252 196c36 9 64 14 85 15 2 0 5 0 9 1 3 1 6 1 8 1 12 2 20 1 23-4 1-1 1-2 0-5-1-2-2-5-5-8-3-3-6-7-10-10-23-15-37-36-41-62-38 22-76 33-115 33-3 0-6 0-11-1-5 0-8 0-11-1 11 19 34 33 68 41z m-164-213c-2-3-4-4-7-4l0-8 0 8c-3 0-4 1-4 2-1 1-1 3-1 7 0 3-1 6-2 7-1 2-3 3-6 3l-2 0c-7 0-11 1-12 3-1 3-1 5 2 8 4 4 9 3 14-4 6-7 13-12 22-13-1-4-3-7-4-9z m49-95c-1 1-2 2-2 3-3 5-1 17 4 34 5-3 10-4 13-5l3-9 1-1 0-3 1-2c-5-14-11-20-20-17z m18 67c-1 0-3-1-4-2-1-1-2-2-3-5l0-10c-1 1-2 1-4 2-3 1-4 2-5 3l-1 0c-15 7-28 17-39 29l2 2c7 9 9 18 6 28-1 5-4 6-9 5-6 0-11 3-15 8-4 5-9 9-15 11 6 35 21 63 44 82 21-21 35-44 43-67 7-23 10-41 9-53-2-12-5-23-9-33z m50-78l-1 0c-14 9-24 19-31 32l0 1c-2 3-3 6-4 9-1 1-1 2-1 3-1 1-1 2-1 3 0 1 0 1-1 2l0 1c0 1 0 3 0 5-1 3-1 5-2 6 7 0 13 2 19 7 8-2 15-3 21-2 0-1 1-12 2-32 0-3 0-7 1-12 0-5 0-9 0-11z m293 81l-3-3c-16-2-44 16-84 54-10 9-16 14-18 14-3 1-5 0-8-1-3-1-6-2-7-3-2-1-3-2-3-3-1 0-1 0-1-1-11-17-24-33-39-46-15-13-28-22-39-28-11-5-23-10-36-13-13-3-21-5-25-6-5 0-9 0-12 0l-2 0c-1 15-1 25 0 30 1 3 0 6-2 8-3 4-6 5-9 2-4-1-9-2-14-2-3 0-7 1-12 2-3 1-5 2-6 1-2-1-3-2-4-4-2-2-5-3-10-4 19 55 3 108-46 158 14 11 32 19 55 24 7 1 19 3 34 4 5 1 13 1 22 0 9-1 27-6 54-17 27-10 52-25 75-45 5-5 11-8 17-7 4 1 10 8 17 21 23 39 41 61 54 66 4 1 8 2 11 1 1 0 1 0 2-1 3-6 1-18-8-36l-1-1 0-2c-1-1-1-3-1-5-1-2-1-4-1-7-1-2-1-5-1-8-1-3-1-7-1-11 0-3 0-7 1-11 1-3 2-7 3-11 13-31 27-56 40-74 8-17 11-29 8-35z"/>
<glyph glyph-name="kcals-41" unicode="&#80;" d="M188 31c47 26 91 62 134 108 42 47 74 97 96 148 28 67 42 135 42 206l0 11c-59-56-125-108-200-156-75-48-136-82-182-102l-68-31c90-29 169-35 236-16-28-63-47-119-58-168z m64 57c-4-4-9-6-15-6-6 0-11 2-15 6-11 11-11 21 0 31 4 4 9 6 15 6 6 0 11-2 15-6 11-10 11-20 0-31z m50 42c-6-6-13-9-21-9-9 0-16 3-22 9-6 5-9 12-9 21 0 9 3 16 9 22 6 6 13 9 22 9 8 0 15-3 21-9 6-6 9-13 9-22 0-9-3-16-9-21z m50 59c-7-7-16-11-27-11-11 0-21 4-28 11-8 7-12 16-12 27 0 11 4 21 12 28 7 8 17 12 28 12 11 0 20-4 27-12 8-7 12-17 12-28 0-11-4-20-12-27z m47 79c-7-8-16-12-27-12-11 0-21 4-29 12-7 7-11 16-11 27 0 11 4 21 11 28 8 7 18 11 29 11 11 0 20-4 27-11 7-7 11-17 11-28 0-11-4-20-11-27z m27 77c-6-6-13-9-21-9-9 0-16 3-22 9-6 6-9 13-9 21 0 9 3 16 9 22 6 6 13 9 22 9 8 0 15-3 21-9 6-6 9-13 9-22 0-8-3-15-9-21z m9 64c-4-5-9-7-15-7-6 0-11 2-15 7-5 4-7 9-7 15 0 6 2 11 7 15 4 5 9 7 15 7 6 0 11-2 15-7 5-4 7-9 7-15 0-6-2-11-7-15z m-250-391c4 2 10 5 17 9 7 4 20 13 40 27 20 15 39 30 57 47 18 17 38 39 60 67 22 28 41 57 57 88 15 31 28 68 39 111 11 43 16 88 15 135 1-3 3-8 6-14 2-6 5-18 10-37 5-19 8-37 11-56 3-18 4-40 4-66-1-26-4-51-10-74-6-23-16-47-31-73-15-25-33-48-56-68-23-20-53-39-90-56-37-17-80-31-129-40z"/>
<glyph glyph-name="kcals-42" unicode="&#81;" d="M387 343c0 2-1 3-2 3-1 1-4 1-9 1-13 0-25-5-36-16-7 17-22 27-46 31-3 1-6 3-8 5 21 6 32 16 32 29 0 1-1 3-3 4l-3 1c-3 1-6 1-10 2-5 1-10 1-16 2-7 1-14 1-23 2-9 1-18 1-28 1-4 0-10 0-18-1-8 0-14 0-18 0-17-2-36-1-59 2-3 0-5 0-8 1l-4 0c-3 0-4-1-5-2-1-1-1-3 0-4 7-15 34-23 81-23 2 0 5 0 9 0 3 1 6 1 7 1-2-2-3-3-3-4l0-3c2-4 7-6 16-6 1 0 2 0 4 0 2 1 4 1 5 1l0-1c-1-1-1-1-1-2-1-4 3-10 10-17 17-14 26-23 26-28l-1-1c-22-29-70-43-145-43l-1 0c-3 0-4-1-4-3 0-2 1-3 2-4 18-9 30-24 35-43 3-15 2-33-4-54-7-20-13-36-19-47-7-11-11-17-13-19-1-1-1-2 0-3 0-1 0-1 1-2 1-1 1-1 2-1 1 0 2 1 3 2 1 1 4 4 11 11 7 7 14 16 23 26 8 10 14 18 17 23 9 14 18 35 29 62 6-1 14-2 25-2 31 0 57 9 78 27 21 18 37 37 48 56 1-19-4-49-16-90 0-3 1-4 2-4 1-1 3-1 4 0 31 31 42 74 33 130z m-27-111c11 51 14 80 8 87-1 1-2 1-3 1-2 0-3-1-3-2l-2-3c-1-2-3-5-5-8-2-3-4-7-7-12-3-5-7-9-11-14-4-5-8-9-13-14-5-5-11-9-17-14-7-4-13-8-20-11-7-3-15-6-23-8-9-2-17-3-26-3-8 0-17 1-26 3-3 0-4-1-4-2l-5-12c-3-7-7-16-12-27-5-10-10-18-14-25-3-4-11-15-25-32 18 36 24 67 18 93-4 17-13 31-28 42 71 2 118 17 140 45 1 1 2 3 2 5 1 7-8 19-28 35-6 5-8 9-7 10 0 2 2 4 6 6 3 0 3 1 2 4 0 2-1 3-4 3-7-1-14-2-20-2l-6 0c2 2 6 4 12 6 3 1 3 3 2 4 0 2-1 3-4 3-10-1-21-1-33-1-36 0-59 4-70 13 1 0 2 0 3-1 1 0 2 0 3 0 27-2 47-3 59-2 9 1 21 1 36 1 31 0 56-2 75-7-1-5-4-9-9-12-5-3-10-5-14-6-4-1-7-1-8-1-1 0-2-1-3-2l0-4 2-2c1-1 2-3 3-5 1-1 3-3 5-4 2-1 4-2 6-2 12-2 22-6 29-12 7-5 11-10 12-13 1-3 1-5 1-7 0-2 1-3 2-3 1-1 3 0 4 1 12 13 24 19 36 19l4 0c6-42-1-78-20-108z"/>
<glyph glyph-name="kcals-43" unicode="&#82;" d="M485 457c-26 28-64 42-113 42-25 0-47-4-66-12-21-9-33-22-35-41-23 1-43-2-61-9-21-7-37-19-48-35-2-3-5-10-10-22-3-11-5-17-8-18l-18-12c-23-14-38-31-45-50-2-5-4-12-5-22-1-14-4-23-9-27l-4-5c-17-15-29-30-36-43-12-23-16-51-13-84 3-33 16-59 39-78 16-14 35-21 56-21 11 0 22 2 33 6 16 6 35 17 57 33 3 2 8 5 13 9 55 37 101 75 138 114 57 60 100 115 130 166 8 14 14 26 18 35 3 10 5 22 4 35-1 14-7 27-17 39z m-22-99c-27-45-69-99-127-162-39-41-85-78-136-111l-12-9c-22-15-40-26-53-31-8-3-17-4-26-4-17 0-31 5-43 15-19 17-29 39-32 67-3 28 1 52 12 72 5 11 16 23 31 36l4 5c2 1 4 3 5 6 25 5 53-4 86-26 5 3 3 8-6 16-9 9-17 15-24 19-17 11-33 17-46 17 0 3 0 6 1 7 0 7 1 13 3 18 3 7 6 13 10 18 4 5 8 9 11 11 3 3 8 6 16 11 6 3 12 7 18 12 12 1 28-1 47-7 19-6 33-13 43-20 7 5-1 17-25 35-18 13-35 18-50 15 0 2 1 4 2 5 3 9 5 15 6 17 11 13 24 22 39 28 14 5 29 8 44 8 29-3 61-16 97-39 5 3 5 9-2 18-7 10-13 17-18 20-17 13-33 19-46 20 2 10 9 18 22 23 17 7 36 11 58 11 45 0 77-12 97-36 10-14 14-27 13-39-1-11-8-27-19-46z"/>
<glyph glyph-name="kcals-44" unicode="&#83;" d="M256 512c-29 0-54-11-75-32-21-21-32-46-32-75l0-266c0-7 4-11 11-11l85 0 0-117c0-7 4-11 11-11 7 0 11 4 11 11l0 117 85 0c7 0 11 4 11 11l0 266c0 29-10 54-31 75-21 21-47 32-76 32z m85-363l-170 0 0 256c0 23 8 43 25 60 17 17 37 26 60 26 23 0 43-9 60-26 17-17 25-37 25-60z m-42 128l0 86c0 9-3 16-9 22-7 7-14 10-23 10-9 0-16-3-22-10-7-6-10-13-10-22 0-7-4-11-11-11-7 0-11 4-11 11l0 42c0 7-3 11-10 11-7 0-11-4-11-11l0-42c0-9 3-16 9-23 6-6 14-9 23-9 9 0 17 3 23 9 6 7 9 14 9 23 0 7 4 10 11 10 7 0 10-3 10-10l0-86c0-9 3-16 10-23 6-6 13-9 22-9 7 0 11 4 11 11 0 7-4 11-11 11-7 0-10 3-10 10z"/>
<glyph glyph-name="kcals-45" unicode="&#84;" d="M472 176l-43 0c-1 5-2 9-3 11l77 39c9 5 12 12 7 21-5 9-12 12-21 7l-73-36c-14 31-35 55-64 74-29 19-61 28-96 28-43 0-80-14-113-41-33-27-53-62-60-103l-43 0c-11 0-20-4-28-12-8-8-12-17-12-28 0-7 3-14 8-21l56-63 0-12c0-11 4-20 12-28 8-8 17-12 28-12l304 0c11 0 20 4 28 12 8 8 12 17 12 28l0 12 56 63c5 7 8 14 8 21 0 11-4 20-12 28-8 8-17 12-28 12z m-59 0l-9 0 8 4c0-2 0-3 1-4z m-157 128c31 0 60-9 87-26 26-17 45-39 58-67l-14-8c-12 25-30 46-53 61-23 16-49 24-78 24-34 0-64-11-90-32-26-21-43-47-50-80l-17 0c7 37 26 67 56 91 29 25 63 37 101 37z m73-128c-14 32-38 48-73 48-35 0-59-16-73-48l-17 0c7 19 18 34 35 46 16 12 34 18 55 18 19 0 37-5 53-16 16-11 28-25 35-42l-12-6z m-73 16c-15 0-27-5-36-16l-19 0c13 21 31 32 55 32 24 0 42-11 55-32l-20 0c-9 11-20 16-35 16z m0 64c-25 0-48-8-67-23-19-15-33-34-40-57l-17 0c7 28 23 51 46 69 23 18 49 27 78 27 26 0 50-7 71-21 21-14 36-32 46-55l-15-7c-9 20-22 36-40 48-19 13-39 19-62 19z m160-192l0-24c0-5-3-8-8-8l-304 0c-5 0-8 3-8 8l0 24-64 72c0 5 3 8 8 8l432 0c5 0 8-3 8-8z m-288 261l0-1c1-3 4-4 7-4 5 0 8 3 8 8l0 2c-5 11-3 26 6 47 11 25 13 44 7 58-1 3-4 5-7 5-5 0-8-3-8-8l0-3 1 0c4-10 2-25-7-46-11-25-13-44-8-58z m194 2l1 0c1-3 4-5 7-5 5 0 8 3 8 8 0 1 0 2-1 2l0 1c-4 9-2 25 7 46 11 25 13 44 7 58-1 3-4 5-7 5-5 0-8-3-8-8l0-3c5-9 3-25-6-46-11-24-13-43-8-57z m-82 70l0-1c3-3 5-4 8-4 5 0 8 3 8 8l0 1-1 1c-4 10-2 26 7 47 11 25 13 44 7 58-1 3-4 5-8 5-5 0-7-3-7-8l0-3c4-9 2-25-7-46-10-25-12-45-7-58z"/>
<glyph glyph-name="kcals-46" unicode="&#85;" d="M295 299l4 0c3 0 5 1 7 3l45 46c1 0 3 1 4 2l1 1 0 2 27 27c2 0 3 1 4 3 1 1 2 3 2 4l18 18c1 0 2 1 5 2 1 3 2 4 2 5l28 29c2 2 3 4 3 7 0 3-1 6-3 8-41 37-89 56-143 56-7 0-11-4-11-11l0-192c0-5 2-8 7-10z m14 148c30-2 56-12 79-31l-11-11c-6 5-13 8-22 7-9-1-16-4-21-10-6-5-9-12-10-21-1-9 2-16 7-23l-22-23z m38-73c-3 5-2 9 2 13 3 3 8 4 13 2z m72 73l-16-16c-29 23-60 36-94 38l0 21c41-2 78-16 110-43z m-20-101c-5 5-10 5-15 0l-30-30-87-88 0 167c0 7-4 10-11 10-56 0-104-20-143-60-40-39-60-87-60-142 0-56 20-104 60-144 39-39 87-59 143-59 56 0 104 20 144 59 39 40 59 88 59 144 0 57-20 104-60 143z m-154-143c0-5 2-9 7-10 4-2 8-1 12 2l40 41c7-5 14-8 21-8 9 0 17 3 24 10 5 5 8 12 9 21 0 9-2 16-7 23l10 11c23-26 34-56 34-90 0-39-14-72-41-99-27-27-60-40-98-40-38 0-71 13-98 40-27 27-41 60-41 99 0 36 12 67 37 93 25 27 55 42 91 45z m89 50c-5-3-9-4-14-2l15 16c4-5 4-9-1-14z m-78-232c-50 0-93 18-128 53-35 36-53 79-53 129 0 48 17 89 50 124 33 35 73 54 120 57l0-22c-41-3-76-19-105-50-29-31-44-67-44-109 0-45 16-83 47-114 31-31 69-46 113-46 44 0 82 15 113 46 31 31 47 69 47 114 0 40-13 75-40 105l16 15c30-34 45-74 45-120 0-50-18-93-53-129-35-35-78-53-128-53z m-53 224c9 0 16 3 23 9 6 7 9 14 9 23 0 9-3 16-9 22-7 7-14 10-23 10-9 0-16-3-22-10-7-6-10-13-10-22 0-9 3-16 10-23 6-6 13-9 22-9z m0 43c7 0 10-4 10-11 0-7-3-10-10-10-7 0-11 3-11 10 0 7 4 11 11 11z m-22-139c9 0 16 3 23 9 6 7 9 14 9 23 0 9-3 16-9 22-7 7-14 10-23 10-9 0-16-3-22-10-7-6-10-13-10-22 0-9 3-16 10-23 6-6 13-9 22-9z m0 43c7 0 11-4 11-11 0-7-4-10-11-10-7 0-10 3-10 10 0 7 3 11 10 11z m86-107c9 0 16 3 23 9 6 7 9 14 9 23 0 9-3 16-9 22-7 7-14 10-23 10-9 0-16-3-22-10-7-6-10-13-10-22 0-9 3-16 10-23 6-6 13-9 22-9z m0 43c7 0 10-4 10-11 0-7-3-10-10-10-7 0-11 3-11 10 0 7 4 11 11 11z m74 21c9 0 16 3 23 9 6 7 9 14 9 23 0 9-3 16-9 22-7 7-14 10-23 10-9 0-16-3-22-10-7-6-10-13-10-22 0-9 3-16 10-23 6-6 13-9 22-9z m0 43c7 0 11-4 11-11 0-7-4-10-11-10-7 0-10 3-10 10 0 7 3 11 10 11z"/>
<glyph glyph-name="kcals-47" unicode="&#86;" d="M501 64l-43 0c-3 47-20 89-51 124-31 35-70 57-116 65 5 7 8 15 8 24 0 12-4 22-12 30-9 9-19 13-31 13-12 0-22-4-30-13-9-8-13-18-13-30 0-9 3-17 8-24-46-8-85-30-116-65-31-35-48-77-51-124l-43 0c-7 0-11-4-11-11 0-7 4-10 11-10l17 0 39-40c2-2 5-3 8-3l362 0c3 0 6 1 8 3l39 40 17 0c7 0 11 3 11 10 0 7-4 11-11 11z m-266 213c0 6 2 11 6 15 4 5 9 7 15 7 6 0 11-2 15-7 4-4 6-9 6-15 0-5-2-10-6-15-4-4-9-6-15-6-6 0-11 2-15 6-4 5-6 10-6 15z m21-42c48 0 89-17 124-50 35-33 54-73 57-121l-362 0c3 48 22 88 57 121 35 33 76 50 124 50z m177-214l-354 0-21 22 396 0z m-177 182c-54 0-96-23-126-69-4-7-3-12 3-15 3-1 5-2 6-2 4 0 7 2 9 5 25 39 61 59 108 59 7 0 11 4 11 11 0 7-4 11-11 11z"/>
<glyph glyph-name="kcals-48" unicode="&#87;" d="M426 317c-9 37-33 65-72 85-39 20-83 31-130 32 1 15 5 29 13 41 7 12 17 18 29 18l0 18c-17 0-31-8-42-23-11-15-18-33-19-54-47-1-91-12-130-32-39-20-63-48-72-85l-2-12 37 0 0-7c2-44 9-84 21-121 12-36 26-64 41-85 15-20 31-38 49-53 18-15 32-24 41-29 9-5 16-8 21-10l6 0c35 17 63 37 84 59 55 58 85 138 90 239l0 7 38 0z m-212-298c-23 8-48 25-74 52-52 57-80 133-84 228l0 6 317 0 0-6c-2-40-8-77-18-110-11-33-22-60-35-79-13-19-28-35-44-50-16-15-28-25-37-30-9-5-18-8-25-11z m168 304l-358 0c13 33 38 56 77 71 39 15 77 22 114 22 54 0 97-10 128-29 31-19 52-40 62-64z"/>
<glyph glyph-name="kcals-49" unicode="&#88;" d="M245 75c4 0 7 1 9 4 11 14 25 34 42 59 17 25 37 62 62 111 25 49 37 87 37 114 0 47-13 84-39 110-27 26-64 39-111 39-47 0-84-13-110-39-26-26-39-63-39-110 0-27 12-65 37-114 25-49 46-86 63-111 17-25 30-45 41-59 2-3 5-4 8-4z m0 416c41 0 73-11 95-33 22-22 33-54 33-95 0-22-9-52-28-91-19-39-36-71-52-97-17-25-33-49-48-71-15 22-31 46-47 71-17 26-34 58-53 97-19 39-28 69-28 91 0 41 11 72 34 94 22 23 53 34 94 34z m64-128c0 17-6 32-18 45-13 13-28 19-46 19-17 0-32-6-45-19-13-13-19-28-19-45 0-18 6-33 19-46 13-12 28-18 45-18 18 0 33 6 46 18 12 13 18 28 18 46z m-106 0c0 11 4 21 13 29 8 9 18 13 29 13 12 0 22-4 31-13 8-8 12-18 12-29 0-12-4-22-12-31-9-8-19-12-31-12-11 0-21 4-29 12-9 9-13 19-13 31z m142-342l-66 22 66 22c7 1 9 6 6 13-1 7-6 10-13 7l-93-31-92 31c-7 2-12 0-14-7-3-7 0-12 7-13l66-22-66-22c-7-2-9-7-7-14 2-5 5-7 10-7 2 0 3 0 4 1l92 30 93-30c1-1 2-1 3-1 5 0 9 2 10 7 2 7 0 11-6 14z"/>
<glyph glyph-name="kcals-50" unicode="&#89;" d="M448 363l-363 0c-2 0-4-1-7-4-3-3-4-5-3-8l21-341c0-7 4-10 11-10l320 0c7 0 10 3 10 10l22 341c0 3-1 6-3 8-3 3-5 4-8 4z m-17-107l-58 0 0 85 64 0z m-250 0l0 85 43 0 0-85z m64 85l43 0 0-85-43 0z m64 0l43 0 0-85-43 0z m-149 0l0-85-58 0-5 85z m-57-106l327 0-4-64-319 0z m121-86l0-128-43 0 0 128z m21 0l43 0 0-128-43 0z m64 0l43 0 0-128-43 0z m-200 0l51 0 0-128-43 0z m264-128l0 128 52 0-8-128z m-288 363c7 0 11 4 11 11 0 29 10 46 30 51 20 7 36 1 48-18 3-3 7-5 11-4 5 1 8 3 9 8 4 20 13 35 28 44 14 9 29 14 45 14 16 0 31-5 45-14 14-9 23-24 28-44 0-4 3-7 8-8 5-1 9 0 11 5 12 18 28 24 48 17 20-5 30-22 30-51 0-7 4-11 11-11 7 0 11 4 11 11 0 39-15 63-46 72-21 6-41 2-58-12-8 19-20 33-36 42-17 10-34 15-52 15-18 0-35-5-52-15-17-9-29-23-36-42-17 14-37 18-59 12-30-9-45-33-45-72 0-7 3-11 10-11z"/>
<glyph glyph-name="kcals-51" unicode="&#90;" d="M256 85l-17 0 0 1c-28 28-58 42-90 42l-42 0 0 11c0 7-4 10-11 10l-85 0c-7 0-11-3-11-10l0-128c0-7 4-11 11-11l85 0c7 0 11 4 11 11l0 10 309 0c7 0 11 4 11 11 0 35-57 53-171 53z m-171-64l-64 0 0 107 64 0z m22 22l0 64 42 0c23 0 43-7 59-22l-59 0c-7 0-10-3-10-10 0-7 3-11 10-11l107 0c73 0 121-7 142-21z m-43 10c0-7-4-10-11-10-7 0-10 3-10 10 0 7 3 11 10 11 7 0 11-4 11-11z m437 182l-43 0c-3 47-20 88-51 123-31 35-70 57-116 65 5 7 8 16 8 25 0 12-4 22-12 30-9 9-19 13-31 13-12 0-22-4-30-13-9-8-13-18-13-30 0-9 3-18 8-25-46-8-85-30-116-65-31-35-48-76-51-123l-43 0c-7 0-11-4-11-11 0-7 4-11 11-11l17 0 39-39c2-2 5-3 8-3l362 0c3 0 6 1 8 3l39 39 17 0c7 0 11 4 11 11 0 7-4 11-11 11z m-266 213c0 6 2 11 6 15 4 4 9 6 15 6 6 0 11-2 15-6 4-4 6-9 6-15 0-6-2-11-6-15-4-4-9-6-15-6-6 0-11 2-15 6-4 4-6 9-6 15z m21-43c48 0 89-17 124-50 35-33 54-73 57-120l-362 0c3 47 22 87 57 120 35 33 76 50 124 50z m177-213l-354 0-21 21 396 0z m-177 181c-55 0-97-23-126-69-3-6-2-11 3-14 3-1 5-2 6-2 4 0 7 2 9 5 25 39 61 59 108 59 7 0 11 4 11 11 0 7-4 10-11 10z"/>
<glyph glyph-name="kcals-52" unicode="&#48;" d="M501 417l-1 0-241 63-6 0-241-63-1 0c-7 0-11-4-11-11l0-299c0-5 2-9 7-10l245-86 8 0 245 86c5 1 7 5 7 10l0 299c0 7-4 11-11 11z m-245 41l203-53-202-52-2 0-202 52z m-235-66l224-59 0-297-224 78z m246-356l0 297 224 59 0-278z"/>
<glyph glyph-name="kcals-53" unicode="&#49;" d="M256 464c57 0 106-20 147-61 41-41 61-90 61-147 0-57-20-106-61-147-41-41-90-61-147-61-57 0-106 20-147 61-41 41-61 90-61 147 0 57 20 106 61 147 41 41 90 61 147 61z m0-399c53 0 98 19 135 56 37 37 56 82 56 135 0 53-19 98-56 135-37 37-82 56-135 56-53 0-98-19-135-56-37-37-56-82-56-135 0-53 19-98 56-135 37-37 82-56 135-56z m4 301c17 0 31-5 43-15 11-10 17-23 17-40 0-17-9-34-26-50-11-11-17-19-19-24-2-5-3-15-4-29l-19 0c1 25 11 47 30 64 13 11 19 24 19 38 0 12-4 22-12 29-8 7-18 11-30 11-16 0-28-4-36-12-9-8-13-19-12-34l-19 0c0 41 23 62 68 62z m0-186c5 0 9-2 12-5 3-3 5-7 5-12 0-5-2-9-5-12-3-3-7-5-12-5-5 0-9 2-12 5-3 3-5 7-5 12 0 5 2 9 5 12 3 3 7 5 12 5z"/>
<glyph glyph-name="kcals-54" unicode="&#50;" d="M256 464c57 0 106-20 147-61 41-41 61-90 61-147 0-57-20-106-61-147-41-41-90-61-147-61-57 0-106 20-147 61-41 41-61 90-61 147 0 57 20 106 61 147 41 41 90 61 147 61z m8-124l0-76 75 0c-1 31-4 59-11 84-17-4-39-7-64-8z m0 16c25 1 45 4 60 8-7 23-15 41-26 55-11 15-23 24-34 27z m-16 90c-24-6-44-33-60-82 16-4 36-7 60-8z m0-106c-26 1-48 4-65 8-7-25-10-53-11-84l76 0z m-92-76c1 35 5 65 11 88-19 5-39 14-59 25-27-32-41-70-43-113z m0-16l-91 0c2-43 16-81 43-113 23 12 42 20 59 25-6 23-10 53-11 88z m16 0c1-31 4-59 11-84 21 5 42 8 65 9l0 75z m76-92c-24-1-44-4-60-8 16-49 36-76 60-82z m16-90c11 3 23 12 34 26 11 15 19 33 26 56-15 4-35 7-60 8z m0 107c21-1 43-4 64-9 7 25 10 53 11 84l-75 0z m92 75c-1-33-5-62-12-88 18-5 38-14 60-25 27 32 41 70 43 113z m0 16l91 0c-2 43-16 81-43 113-23-12-42-20-59-25 6-23 10-53 11-88z m36 126c-27 27-57 44-91 52 15-16 28-41 39-74 19 6 36 13 52 22z m-181 52c-35-8-66-25-91-52 11-6 28-13 52-21 10 32 23 56 39 73z m-91-320c27-27 57-44 91-52-17 17-30 42-40 74-19-7-36-14-51-22z m181-52c34 8 64 25 91 52-16 9-33 16-52 22-11-33-24-58-39-74z"/>
<glyph glyph-name="kcals-55" unicode="&#51;" d="M456 318c-21 19-46 30-75 31-13 25-32 45-56 60-25 15-51 22-80 22-38 0-71-13-100-38-29-25-47-57-52-95-22 2-42-4-61-19-21-18-32-41-32-68 0-25 8-46 23-61 18-17 41-26 69-26l61 0c7 0 11 3 11 10 0 7-4 11-11 11l-61 0c-22 0-40 7-54 20-11 11-17 27-17 46 0 21 8 38 25 51 16 14 34 18 55 13l12-2 1 12c2 35 16 64 41 88 25 25 55 37 90 37 25 0 49-7 71-21 21-13 38-32 49-55l3-7 7 1c25 1 47-7 66-26 19-17 28-39 28-65 0-18-4-34-11-47-7-13-16-22-27-28-11-6-19-10-26-13-7-2-13-3-18-4l-50 0c-7 0-11-4-11-11 0-7 4-10 11-10l53 0c1 0 5 1 11 2 6 1 14 4 25 9 11 5 21 12 30 19 9 8 18 19 25 33 7 15 10 31 10 50 0 31-12 58-35 81z m-203-54l-4 2c-2 1-5 1-8 0-1 0-1 0-1-1l-2-1-64-64c-4-5-4-11 0-16 5-5 10-5 15 0l46 46 0-209c0-7 3-10 10-10 7 0 11 3 11 10l0 209 46-46c2-2 4-3 7-3 3 0 6 1 8 3 4 5 4 11 0 16z"/>
<glyph glyph-name="kcals-56" unicode="&#52;" d="M164 0c15 0 28 5 40 15 12 10 18 22 18 36l0 282c0 1 0 2-1 3l0 1-51 102c-1 3-4 5-8 5-4 0-7-2-8-5l-51-102 0-1-1-1 0-284c0-14 7-26 20-36 13-10 27-15 42-15z m-11 324l0-205-34 0 0 205z m52 0l0-205-34 0 0 205z m0-222l0-17-86 0 0 17z m-41-85c-10 0-20 3-30 10-10 7-15 15-15 24l0 17 86 0 0-17c0-9-4-17-13-24-9-7-18-10-28-10z m-2 399l38-75-37 0c0 1 0 1-1 1l-1-1-36 0z m103-416l136 0c6 0 9 3 9 9l0 494c0 6-3 9-9 9l-136 0c-6 0-9-3-9-9l0-494c0-6 3-9 9-9z m128 495l0-478-120 0 0 68 43 0c5 0 8 3 8 9 0 5-3 8-8 8l-43 0 0 69 43 0c5 0 8 3 8 8 0 6-3 9-8 9l-43 0 0 68 43 0c5 0 8 3 8 9 0 5-3 8-8 8l-43 0 0 68 43 0c5 0 8 3 8 9 0 5-3 8-8 8l-43 0 0 69 43 0c5 0 8 3 8 8 0 6-3 9-8 9l-43 0 0 51z"/>
<glyph glyph-name="kcals-57" unicode="&#53;" d="M213 331c22 0 41-7 57-22 15-14 25-32 28-53l75 0c-1 8-2 18-5 29l61 35-43 74-61-35c-20 20-43 33-69 40l0 70-85 0 0-70c-27-7-50-21-70-40l-60 35-43-74 61-35c-4-12-6-25-6-40 0-14 2-27 6-40l-61-35 43-74 60 35c20-19 43-32 70-40l0-70 85 0 0 151c-15-8-29-12-43-12-23 0-43 8-60 25-17 17-25 37-25 60 0 23 8 43 25 60 17 17 37 26 60 26z m278-203c0 5-1 12-4 23l40 23-22 36-39-22c-11 11-24 18-39 22l0 46-43 0 0-46c-17-5-30-12-40-22l-39 22-21-36 39-23c-2-8-3-16-3-23 0-7 1-15 3-23l-39-23 21-36 39 22c10-10 23-17 40-22l0-46 43 0 0 46c15 4 28 11 39 22l40-22 21 36-40 23c3 11 4 18 4 23z m-86-43c-11 0-21 4-29 12-9 9-13 19-13 31 0 12 4 22 13 30 8 9 18 13 29 13 12 0 22-4 31-13 8-8 12-18 12-30 0-12-4-22-12-31-9-8-19-12-31-12z"/>
<glyph glyph-name="kcals-58" unicode="&#54;" d="M256 367c6 0 9 3 9 8l0 128c0 6-3 9-9 9-6 0-9-3-9-9l0-128c0-5 3-8 9-8z m229 124c-1 1-2 3-5 4-16 3-28 4-36 4-35 0-66-11-93-34-27-22-44-51-52-88-1-1 0-3 1-6 1-1 2-3 5-4 16-3 28-4 36-4 35 0 66 11 93 33 27 23 44 52 52 89 1 1 0 3-1 6z m-278-124c3 1 4 3 5 4 1 3 2 5 1 6-8 37-25 66-52 88-27 23-58 34-93 34-8 0-20-1-36-4-3-1-4-3-5-4-1-3-2-5-1-6 8-37 25-66 52-89 27-22 58-33 93-33 8 0 20 1 36 4z m49-128c14 0 26 5 36 15 10 10 15 22 15 36 0 14-5 26-15 36-10 10-22 15-36 15-14 0-26-5-36-15-10-10-15-22-15-36 0-14 5-26 15-36 10-10 22-15 36-15z m0-137c-14 0-26-5-36-15-10-10-15-22-15-36 0-14 5-26 15-36 10-10 22-15 36-15 14 0 26 5 36 15 10 10 15 22 15 36 0 14-5 26-15 36-10 10-22 15-36 15z m128 222c-14 0-26-5-36-15-10-10-15-22-15-36 0-14 5-26 15-36 10-10 22-15 36-15 14 0 26 5 36 15 10 10 15 22 15 36 0 14-5 26-15 36-10 10-22 15-36 15z m-205-51c0 14-5 26-15 36-10 10-22 15-36 15-14 0-26-5-36-15-10-10-15-22-15-36 0-14 5-26 15-36 10-10 22-15 36-15 14 0 26 5 36 15 10 10 15 22 15 36z m68-102c0 14-5 26-14 36-10 10-22 15-37 15-14 0-26-5-36-15-10-10-15-22-15-36 0-15 5-27 15-37 10-10 22-15 36-15 15 0 27 5 37 15 9 10 14 22 14 37z m69 51c-15 0-27-5-36-15-10-10-15-22-15-36 0-15 5-27 15-37 9-10 21-15 36-15 14 0 26 5 36 15 10 10 15 22 15 37 0 14-5 26-15 36-10 10-22 15-36 15z"/>
<glyph glyph-name="kcals-59" unicode="&#55;" d="M217 256l213 182c5 5 6 10 1 15l-47 55c-5 6-10 6-15 1l-287-245c-2-2-3-5-3-8 0-3 1-6 3-8l287-245c2-2 4-3 7-3 3 0 5 1 8 4l47 55c5 5 4 10-1 15z"/>
<glyph glyph-name="kcals-60" unicode="&#56;" d="M430 264l-287 245c-2 2-4 3-7 3-3 0-5-1-8-4l-47-55c-5-5-4-10 1-15l213-182-213-182c-5-5-6-10-1-15l47-55c2-3 5-4 8-4 3 0 5 1 7 3l287 245c2 2 3 5 3 8 0 3-1 6-3 8z"/>
<glyph glyph-name="kcals-61" unicode="&#57;" d="M486 318c-3 3-6 6-10 7-2 1-5 1-9 1l-141 0c-1 0-3 1-6 2-3 3-4 5-4 6l-44 137c-1 2-2 5-5 9-1 2-3 4-5 5-3 1-6 2-9 2-2 0-5-1-9-2-3-2-5-4-6-7-1-1-2-3-4-7l-43-137c-1-3-3-5-4-6-2-1-4-2-7-2l-140 0c-5 0-9-1-13-3-3-1-5-3-7-5-2-3-3-6-3-10 0-1 0-3 1-4 0-1 0-2 0-3 1-2 2-4 5-7 2-2 4-3 5-4l114-85c1 0 2-1 3-4 1-1 1-3 1-6l0-3-44-137c-1-2-1-5-1-9 0-5 1-9 3-12 3-3 5-4 7-5 3-1 5-2 7-2 3 0 5 1 8 2 1 1 3 1 4 2 1 1 2 2 3 2l114 85c1 1 3 2 6 2 3 0 6-1 7-2l114-85c3-1 5-3 6-4 3-1 6-2 9-2 1 0 3 1 7 2 4 2 7 5 8 8 1 2 2 5 2 9 0 2-1 5-2 9l-43 137-1 1 0 2c0 1 1 3 2 6 1 3 2 4 3 4l114 85c1 1 2 2 4 3 1 1 2 2 3 3 1 3 2 4 2 5 1 3 2 5 2 7-2 5-3 9-4 10z m-253 129z m-1 0z"/>
<glyph glyph-name="kcals-62" unicode="&#33;" d="M393 27c-3 0-6 1-9 2-3 1-5 3-7 4l-113 84c-1 1-3 2-6 2-3 0-6-1-7-2l-113-84c-1-2-4-3-7-4-3-1-5-2-8-2-3 0-6 0-7 1-2 1-4 2-7 5-2 3-3 7-3 12 0 5 0 8 1 10l44 136 0 3c0 3 0 5-1 6l-3 4-114 84-5 5c0 1-1 2-2 3-1 1-2 2-2 3-1 1-1 4-1 7 0 4 1 7 3 10 1 1 4 3 7 6 3 1 7 2 12 2l140 0c2 0 4 1 6 3 1 1 3 2 4 4l1 1 43 136c1 1 1 2 2 3 1 2 1 4 1 5l7 7c3 1 6 2 9 2 3 0 5-1 8-2 3-2 4-4 5-5 2-2 4-5 5-10l44-136c0-2 1-4 4-5 2-2 4-3 6-3l140 0c4 0 7 0 10-1 3-1 6-4 9-7 3-3 4-6 4-10 0-2-1-4-2-7 0-1-1-3-2-4-1-1-1-2-2-3-1-1-1-1-2-2-1-1-2-1-3-2l-113-84c-1-1-2-3-3-4-1-3-2-5-2-6l0-3 44-136c1-2 1-5 1-10 0-3 0-6-1-9-3-3-6-6-9-8-1-1-3-1-6-1z m-112 112l93-69-36 112c-1 3-1 7-1 12 0 7 1 12 4 17 2 5 6 10 11 15l95 70-117 0c-7 0-14 3-22 8-7 5-12 12-15 20l-35 112-36-112c-3-8-7-15-14-20-7-5-15-8-23-8l-116 0 94-70c5-4 9-9 12-15 3-7 4-12 4-17 0-3-1-7-2-12l-36-113 94 70c7 5 14 7 23 7 9 0 16-2 23-7z m-26 324z m-2 1z"/>
<glyph glyph-name="kcals-63" unicode="&#34;" d="M458 57l0 2c-1 3-3 12-7 26-10 18-24 33-43 46-2 2-4 3-5 4-6 3-21 9-46 19-16 7-29 15-38 25 0 3 0 8 0 13-1 5-1 9-1 12l0 7c2 4 4 7 6 9 1 1 2 3 4 5 1 3 2 5 3 7 1 3 4 11 9 25 5 3 9 8 13 17 4 8 6 17 6 26 0 9-2 16-6 22 3 7 5 20 8 39l-12 67c-8 8-15 13-20 16l0 1c-3 2-6 3-10 4-5 1-8 2-9 3-2 1-5 4-10 7-5 4-9 7-12 8-27 9-53 8-76-2-24-9-40-24-49-44-9-20-11-45-6-75 0-1 1-5 3-11 2-5 3-9 2-12 0-2-1-5-3-10-2-5-3-8-4-11-1-18 6-32 20-43 2-9 4-17 7-22 1-3 4-7 8-13 4-5 6-9 7-12 3-11 2-23-1-34-2-5-7-10-14-15-8-5-19-10-32-15-13-5-21-8-24-9-43-19-67-45-73-79l0-5c1-11 6-16 13-16l378 0c5 0 9 2 12 5 3 3 3 8 2 13z"/>
<glyph glyph-name="kcals-64" unicode="&#35;" d="M341 341l43 0 0-42-43 0z m-142 0l43 0 0-42-43 0z m71 0l43 0 0-42-43 0z m-114-71l200 0 0-42-200 0z m-28 71l43 0 0-42-43 0z m327 143l-398 0c-8 0-15-3-20-9-6-5-9-12-9-20l0-270c0-8 3-15 9-21 5-5 12-8 20-8l398 0c8 0 15 3 21 8 5 6 8 13 8 21l0 270c0 8-3 15-8 20-6 6-13 9-21 9z m0-299l-398 0 0 270 398 0z m-299 227l43 0 0-42-43 0z m-71 0l43 0 0-42-43 0z m143 0l42 0 0-42-42 0z m71 0l42 0 0-42-42 0z m71 0l57 0 0-42-57 0z m-114-384l121 100-242 0z"/>
<glyph glyph-name="kcals-65" unicode="&#36;" d="M427 448l-342 0c-11 0-21-4-29-13-9-8-13-18-13-30l0-213c0-11 4-21 13-30 8-9 18-13 29-13l342 0c11 0 21 4 30 13 8 9 12 19 12 30l0 213c0 12-4 22-12 30-9 9-19 13-30 13z m-192-64l42 0 0-43-42 0z m0-64l42 0 0-43-42 0z m-64 64l42 0 0-43-42 0z m0-64l42 0 0-43-42 0z m-22-43l-42 0 0 43 42 0z m0 64l-42 0 0 43 42 0z m192-149l-170 0 0 43 170 0z m0 85l-42 0 0 43 42 0z m0 64l-42 0 0 43 42 0z m64-64l-42 0 0 43 42 0z m0 64l-42 0 0 43 42 0z m-149-320l85 86-170 0z"/>
<glyph glyph-name="kcals-66" unicode="&#37;" d="M277 256l182 181c6 7 6 15 0 22-7 6-15 6-22 0l-181-182-181 182c-7 6-15 6-22 0-7-8-7-15 0-22l182-181-182-181c-3-3-4-6-4-11 0-5 1-8 4-11 7-7 15-7 22 0l181 182 181-182c3-3 6-4 11-4 5 0 8 1 11 4 6 7 6 15 0 22z"/>
<glyph glyph-name="kcals-67" unicode="&#38;" d="M217 256l213 182c5 5 6 10 1 15l-47 55c-5 6-10 6-15 1l-287-245c-2-2-3-5-3-8 0-3 1-6 3-8l287-245c2-2 4-3 7-3 3 0 5 1 8 4l47 55c5 5 4 10-1 15z m157-230l-268 230 268 230 34-39-214-183c-3-2-4-5-4-8 0-3 1-6 4-8l214-183z"/>
<glyph glyph-name="kcals-68" unicode="&#39;" d="M181 256c0 21 7 38 22 53 15 15 32 22 53 22 21 0 38-7 53-22 15-15 22-32 22-53 0-21-7-38-22-53-15-15-32-22-53-22-21 0-38 7-53 22-15 15-22 32-22 53z m42 33c-9-10-13-21-13-33 0-12 4-23 13-33 10-9 21-13 33-13 12 0 23 4 33 13 9 10 13 21 13 33 0 12-4 23-13 33-10 9-21 13-33 13-12 0-23-4-33-13z m12-289c-7 0-12 2-16 6-5 5-8 11-8 16l-8 58c-11 4-23 9-34 15l-46-37c-5-3-11-5-16-5-7 0-12 2-17 7l-30 30c-5 5-7 10-7 17 0 5 2 10 5 15l37 47c-6 11-11 23-15 34l-58 7c-7 1-12 4-16 9-4 5-6 11-6 16l0 42c0 5 2 11 6 16 5 5 11 8 16 8l58 8c4 11 9 23 15 34l-37 46c-3 5-5 11-5 16 0 7 2 12 7 17l30 30c5 5 10 7 17 7 5 0 11-2 16-5l46-37c11 6 23 11 34 15l8 58c0 5 3 11 8 16 5 4 11 6 16 6l42 0c5 0 11-2 16-6 5-4 8-9 9-16l7-58c11-4 23-9 34-15l46 37c5 3 11 5 16 5 7 0 12-2 17-7l30-30c5-5 7-10 7-17 0-5-2-11-5-16l-37-46c6-11 11-23 15-34l58-8c5 0 11-3 16-8 4-4 6-9 6-16l0-42c0-7-2-12-6-16-4-5-9-8-16-9l-58-7c-4-11-9-23-15-34l37-47c3-5 5-10 5-15 0-7-2-12-7-17l-30-30c-5-5-10-7-17-7-5 0-10 2-15 5l-47 37c-11-6-23-11-34-15l-7-58c-1-7-4-12-9-16-4-4-9-6-16-6z m39 28l9 75 9 2c17 4 32 10 45 19l8 5 60-47 25 25-47 60 5 8c9 13 15 28 19 45l2 9 75 9 0 36-75 9-2 9c-4 17-10 32-19 45l-5 8 47 60-25 25-60-47-8 5c-13 9-28 15-45 19l-9 2-9 75-36 0-9-75-9-2c-17-4-32-10-45-19l-8-5-60 47-25-25 47-60-5-8c-9-13-15-28-19-45l-2-9-75-9 0-36 75-9 2-9c4-17 10-32 19-45l5-8-47-60 25-25 60 47 8-5c13-9 28-15 45-19l9-2 9-75z"/>
<glyph glyph-name="kcals-69" unicode="&#40;" d="M447 452l-112 0 0 45c0 4-2 8-5 11-3 3-6 4-10 4l-128 0c-3 0-6-1-10-4-3-3-5-7-5-11l0-45-112 0c-10 0-15-5-15-15 0-4 2-8 5-11 3-3 6-4 10-4l20 0 49-389c1-9 5-17 12-24 9-6 17-9 25-9l170 0c8 0 16 3 25 9 7 7 11 15 12 24l49 389 20 0c4 0 8 1 11 4 3 3 4 7 4 11 0 10-5 15-15 15z m-240 30l98 0 0-30-98 0z m142-446c0-1-1-3-3-4-1-1-2-2-5-2l-170 0c-2 0-4 1-5 2-2 1-3 3-3 4l-48 386 282 0z m-66 29l0 326c0 4 2 7 5 10 3 3 6 5 10 5 4 0 8-2 11-5 3-3 4-6 4-10l0-326c0-4-1-8-4-11-3-3-7-4-11-4-4 0-7 1-10 4-3 3-5 7-5 11z m-84 0l0 326c0 4 2 7 5 10 3 3 6 5 10 5 10 0 15-5 15-15l0-326c0-10-5-15-15-15-4 0-7 1-10 4-3 3-5 7-5 11z"/>
<glyph glyph-name="kcals-70" unicode="&#41;" d="M423 211c-3-22-10-43-22-62-7-11-15-22-25-32l-3-3c-1 0-1 0-1-1l-1-1c-1-1-1-1-2-1 0-1 0-1 0-1-1 0-1 0-1-1-1 0-2-1-3-2-1 0-1 0-1-1l-1-1c-1 0-1 0-1-1 0 0 0 0-1 0l-2-2c-1-1-3-2-4-3l-1 0c0-1 0-1 0-1-1 0-1 0-1-1l-1 0-2-2-1 0-2-1c-1-1-1-1-2-1l-2-2c-1 0-1 0-1-1 0 0 0 0-1 0-1-1-1-1-2-1-1 0-1 0-1-1-1 0-1 0-2-1-1 0-1 0-1-1l-1 0-2-1-1-1-1 0c-1 0-1 0-2-1l-1 0c-1-1-1-1-2-1l-1-1-2-1-2 0-1-1c-1 0-1 0-2-1l-2 0c-1-1-1-1-2-1l-1 0c-1-1-2-1-3-2-2-1-3-1-4-1l-2 0c-1-1-1-1-2-1l-1 0c-3-1-5-2-8-2l-1 0c-1 0-1 0-1-1 0 0 0 0-1 0-11-2-22-3-33-3-47 0-87 16-120 49-33 33-50 74-50 121 0 1 0 3 1 6 0 3 0 5 0 7 2 31 12 59 31 85 5 7 11 14 17 20l2 2c8 8 16 14 23 19 25 17 52 27 81 29 3 1 8 1 15 1l12 0c1-1 3-1 6-1 2 0 4 0 5-1l1 0c2 0 4 0 5-1l1 0c2 0 4 0 5-1l3 0 2-1 1 0c1-1 3-1 6-2 2-1 4-1 5-1 1 0 2 0 3-1 1-1 1-1 2-1 1 0 3-1 6-2 2-1 4-2 5-2l10-5c1-1 2-1 3-2 1-1 1-1 2-1l5-3c0 0 1 0 4-2l1-1c1-1 3-2 4-2 0-1 0-1 1-1 1-1 3-2 4-3 1-1 2-2 4-3 0-1 0-1 1-1l3-3 1 0 10-10c1-1 2-2 3-2l1-2 3-3 0-1-96 0c-10 0-15-5-15-15 0-4 2-8 5-11 3-3 6-4 10-4l143 0 0 143c0 10-5 15-15 15-10 0-15-5-15-15l0-87c-25 25-54 44-88 55l-1 0c-1 0-3 0-5 1-2 1-3 1-4 1l-1 0c-1 1-2 1-4 1-1 1-3 1-5 1l-1 0c-1 1-2 1-4 1l-1 0c-1 1-3 1-5 1-2 0-3 0-4 1l-12 0c-1 1-2 1-4 1l-6 0c-55 0-101-20-140-59-39-39-59-86-59-141 0-55 20-102 59-141 39-39 85-58 140-58 57 0 104 20 143 60l3 3c5 5 11 12 19 23l0 1c0 1 1 2 2 3 1 1 2 2 2 3l1 1c0 1 1 2 2 3l0 1c0 1 0 1 1 1l1 2 0 1c0 1 0 1 1 1l1 2c2 3 4 8 7 15l1 1 0 1c1 1 1 1 1 2l0 1c1 0 1 0 1 1 0 1 0 1 1 2l0 1c1 1 1 2 1 3l1 1c0 1 0 2 1 3l0 3 1 2 0 1c1 1 1 2 1 3 0 1 0 1 1 1 1 7 2 12 3 16l0 1c1 1 1 2 1 3l0 2c0 1 0 2 1 3l0 6c1 1 1 2 1 3l0 12c0 1 0 1 1 1 0 0 0 0 0 1l0 5-30 0c0-1 0-4-1-11-1-6-1-11-2-14z"/>
<glyph glyph-name="kcals-71" unicode="&#42;" d="M430 264l-287 245c-2 2-4 3-7 3-3 0-5-1-8-4l-47-55c-5-5-4-10 1-15l213-182-213-182c-5-5-6-10-1-15l47-55c2-3 5-4 8-4 3 0 5 1 7 3l287 245c2 2 3 5 3 8 0 3-1 6-3 8z m-292-238l-34 39 214 183c3 2 4 5 4 8 0 3-1 6-4 8l-214 183 34 39 268-230z"/>
<glyph glyph-name="kcals-72" unicode="&#43;" d="M426 256c0-47-17-87-50-120-33-33-73-50-120-50-47 0-87 17-120 50-1 1-2 2-3 4-2 2-4 4-5 5l96 0c4 0 8 1 11 4 3 3 4 7 4 11 0 4-1 7-4 10-3 3-7 5-11 5l-143 0 0-143c0-4 2-8 5-11 3-3 6-4 10-4 4 0 8 1 11 4 3 3 4 7 4 11l0 87c39-42 87-63 145-63 55 0 102 20 141 59 39 39 59 86 59 141z m-290 120c33 33 73 49 120 49 47 0 87-16 120-49 4-4 7-7 8-9l-96 0c-4 0-7-2-10-5-3-3-5-6-5-10 0-4 2-8 5-11 3-3 6-4 10-4l143 0 0 143c0 4-1 7-4 10-3 3-7 5-11 5-4 0-7-2-10-5-3-3-5-6-5-10l0-87c-39 41-88 62-145 62-55 0-101-20-140-59-39-39-59-85-59-140l30 0c0 47 16 87 49 120z"/>
<glyph glyph-name="kcals-73" unicode="&#44;" d="M256 480c62 0 115-22 159-66 43-43 65-96 65-158 0-62-22-115-65-159-44-43-97-65-159-65-62 0-115 22-158 65-44 44-66 97-66 159 0 62 22 115 66 158 43 44 96 66 158 66z m169-133c-1 1-1 2-2 4l-3 5z m-69 73l-5 2c0 0-1 1-4 3z m-191 5c-1-1-2-2-4-3l-5-2z m-73-69l-2-5c0 0-1-1-3-4z m-5-191c1-1 2-2 3-4l2-5z m69-73l5-3c0 0 1 0 4-2z m191-5c1 1 2 1 4 2l5 3z m45 33c8 8 17 19 26 33l-27 16 8 14 27-16c14 27 21 54 22 81l-32 0 0 16 32 0c-1 27-8 54-22 81l-28-16-8 14 28 16c-9 14-18 25-26 33-8 8-19 17-33 26l-16-27-14 8 16 27c-27 14-54 21-81 22l0-32-16 0 0 32c-27-1-54-8-81-22l16-28-14-8-16 28c-14-9-25-18-33-26-8-8-17-19-26-33l27-16-8-14-27 16c-14-27-21-54-22-81l32 0 0-16-32 0c1-27 8-54 22-81l28 16 8-14-28-16c9-14 18-25 26-33 8-8 19-17 33-26l16 27 14-8-16-27c27-14 54-21 81-22l0 32 16 0 0-32c27 1 54 8 81 22l-16 27 14 8 16-27c14 9 25 18 33 26z m33 45l-5-9 3 5c0 0 0 1 2 4z m-25 98l0-16-113 0c-5-15-15-23-31-23-7 0-14 2-20 7l-70-71-6 6 71 70c-5 7-7 13-7 20 0 12 5 21 16 28l0 84 32 0 0-84c8-4 13-11 15-21z"/>
<glyph glyph-name="kcals-74" unicode="&#45;" d="M416 160c22 0 41-8 57-24 15-15 23-34 23-56 0-22-8-41-23-57-16-15-35-23-57-23-22 0-41 8-56 23-16 16-24 35-24 57 0 7 0 11 1 14l-186 104c-16-15-34-22-55-22-22 0-41 8-56 23-16 16-24 35-24 57 0 22 8 41 24 56 15 16 34 24 56 24 21 0 39-7 55-22l186 104c-1 3-1 8-1 14 0 22 8 41 24 56 15 16 34 24 56 24 22 0 41-8 57-24 15-15 23-34 23-56 0-22-8-41-23-57-16-15-35-23-57-23-22 0-41 8-56 23l-186-102c1-7 2-12 2-17 0-5-1-10-2-17l185-102c15 15 34 23 57 23z"/>
<glyph glyph-name="kcals-75" unicode="&#46;" d="M256 480c62 0 115-22 159-66 43-43 65-96 65-158 0-62-22-115-65-159-44-43-97-65-159-65-62 0-115 22-158 65-44 44-66 97-66 159 0 62 22 115 66 158 43 44 96 66 158 66z m128-240l0 32-112 0 0 112-32 0 0-112-112 0 0-32 112 0 0-112 32 0 0 112z"/>
<glyph glyph-name="kcals-76" unicode="&#47;" d="M450 464l-164 0c-4 0-9-1-14-2-1 0-2 0-3-1-1-1-2-1-3-1-1-1-2-2-4-3-1 0-3-1-4-2l-2-2c-1 1-2 1-3 2-1 1-2 1-3 2-1 1-4 3-9 4-1 1-2 1-3 1-5 1-10 2-13 2l-164 0c-17 0-31-6-43-19-12-12-18-26-18-43l0-268c0-17 6-31 18-43 12-12 26-18 43-18l165 0c7 0 14-2 19-7 5-4 8-8 9-12l2-6c0 2 1 4 2 7 1 3 4 6 9 11 5 5 11 7 19 7l164 0c17 0 31 6 43 18 12 12 18 26 18 43l0 268c0 17-6 32-18 44-12 12-26 18-43 18z m-389-363c-9 0-16 3-23 10-7 7-10 14-10 23l0 268c0 9 3 17 10 24 6 6 14 9 23 9l171 0c0-1 0-1 1-1 1 0 1 0 2-1 1 0 1 0 1-1 0 0 0 0 1 0l1-1 0-1c1-3 2-4 3-5 0-2 0-3 1-3l0-321z m422 33c0-9-3-17-9-23-7-7-15-10-24-10l-180 0 0 320c0 1 0 1 1 2l0 1c0 1 0 2 1 3l0 1 1 2c1 0 1 0 1 1l2 2 1 0 1 1 1 0 1 1c1 0 2 0 3 0 1 1 2 1 3 1l164 0c9 0 17-3 24-10 6-6 9-14 9-23z"/>
<glyph glyph-name="kcals-77" unicode="&#58;" d="M499 487c-1 1-2 2-3 3-1 2-2 3-3 4-1 1-4 3-8 6-13 11-25 14-38 10-13-4-31-17-54-40l-339-339c-3-3-6-7-8-11l0-2-1-2-42-104-2-4c-1-3-1-5 0-6 3 0 4 0 5 1l4 1 104 42 4 2c5 3 9 5 11 8l339 339c23 22 36 40 41 53 4 13 1 26-10 39z m-187-206l-183-183c-7-7-15-12-24-15-9-3-16-2-21 3-5 5-6 11-3 20 3 9 8 17 15 25l278 277c4 5 9 10 15 15l32-33-28-27z m156 156l-26-26-32 33c9 11 18 19 25 25 7 7 13 10 19 11 6 1 10 0 13-3l4-4c13-9 12-21-3-36z"/>
<glyph glyph-name="kcals-78" unicode="&#59;" d="M344 214l-4-7 108-109-34-34-108 109-7-5c-27-17-54-25-83-25-42 0-78 15-107 45-30 30-45 66-45 108 0 42 15 78 45 107 29 30 65 45 107 45 42 0 78-15 108-45 29-29 44-65 44-107 0-29-8-57-24-82z m-43 167c-23 23-52 35-85 35-33 0-62-12-85-35-23-23-35-52-35-85 0-33 12-62 35-85 23-23 52-35 85-35 33 0 62 12 85 35 24 24 36 52 36 85 0 33-12 61-36 85z"/>
<glyph glyph-name="kcals-79" unicode="&#60;" d="M110 256c0 10 3 18 10 25l225 231 21-22-225-232c-1-1-1-1-1-2l0-1c1-1 1-1 1-2l225-231-21-22-225 231c-7 7-10 15-10 25z"/>
<glyph glyph-name="kcals-80" unicode="&#61;" d="M392 256c0-10-3-18-10-25l-225-231-21 22 225 231c0 1 0 2 1 3l-1 2-225 232 21 22 225-231c7-7 10-15 10-25z"/>
<glyph glyph-name="kcals-81" unicode="&#62;" d="M508 384l-55 47c-5 5-10 4-15-1l-182-213-182 213c-2 2-4 3-7 3-3 1-6 0-8-2l-55-47c-6-5-6-10-1-15l245-287c2-2 5-3 8-3 3 0 6 1 8 3l245 287c2 2 3 4 3 7 0 3-1 5-4 8z"/>
<glyph glyph-name="kcals-82" unicode="&#63;" d="M154 341c5 0 9-2 13-5 3-3 5-7 5-12l0-277c0-5-2-9-5-13-3-3-8-5-13-5l-106 0c-5 0-10 2-13 5-3 4-5 8-5 13l0 277c0 5 2 9 6 12 3 3 7 5 12 5z m-9-26l-88 0 0-259 88 0z m151-87c5 0 10-2 13-5 3-3 5-8 5-13l0-163c0-5-2-9-5-13-3-3-8-5-13-5l-78 0c-5 0-10 2-13 5-3 4-5 8-5 13l0 163c0 5 2 10 5 13 3 3 8 5 13 5z m-9-27l-60 0 0-145 60 0z m180 282c5 0 9-2 12-5 3-3 5-7 5-12l0-419c0-5-2-9-5-13-3-3-7-5-12-5l-107 0c-5 0-10 2-13 5-3 4-5 8-5 13l0 419c0 11 6 17 18 17z m-9-26l-89 0 0-401 89 0z"/>
<glyph glyph-name="kcals-83" unicode="&#64;" d="M36 476l0-440 440 0 0 440z m316-58l10 0c9 0 22-1 39-2l-1-52-35 0c-9 0-15-2-18-6-3-3-5-10-5-19l0-41 59 0-2-55-57 0 0-156-58 0 0 156-41 0 0 55 41 0 0 48c0 35 14 57 43 68 6 3 14 4 25 4z"/>
<glyph glyph-name="kcals-84" unicode="&#91;" d="M118 120c-5 0-9 2-12 5-3 4-5 8-5 13l0 140-75 0 102 112 103-112-76 0 0-103 81 0 53-55z m368 114l-75 0 0 140c0 5-2 9-5 12-3 4-7 6-12 6l-171 0 53-55 81 0 0-103-76 0 103-113z"/>
<glyph glyph-name="kcals-85" unicode="&#93;" d="M241 138l-103 103 278 0 0 30-278 0 103 102-21 22-115-114c-7-8-10-16-10-25 0-9 3-17 10-25l115-114z m271 118c0-71-25-131-75-181-50-50-110-75-181-75-71 0-131 25-181 75-50 50-75 110-75 181 0 71 25 131 75 181 50 50 110 75 181 75 71 0 131-25 181-75 50-50 75-110 75-181z m-30 0c0 31-6 60-18 88-11 27-27 51-48 72-21 21-45 37-72 48-28 12-57 18-88 18-31 0-60-6-88-18-25-10-49-26-72-48-22-23-38-47-48-72-12-28-18-57-18-88 0-31 6-60 18-88 10-25 26-49 48-72 21-21 45-37 72-48 28-12 57-18 88-18 31 0 60 6 88 18 27 11 51 27 72 48 21 21 37 45 48 72 12 28 18 57 18 88z"/>
<glyph glyph-name="kcals-86" unicode="&#94;" d="M268 433l-4 55-1 10-9 3-4 1c-3 1-6 1-11 2-5 1-10 3-15 4-6 1-13 2-20 3-8 1-16 1-23 1-11 0-23-1-35-3-12-2-21-4-28-5l-18-6-1-10c-1-17-3-35-5-55-3-40-4-68-4-84 0-10 4-21 11-32 6-8 16-17 29-27l11-11c0-1-1-11-2-28-1-17-2-42-5-73 0-7 0-19-1-34-1-15-2-25-2-30 0-20 3-42 10-67 5-13 9-23 13-30 4-5 8-9 11-11 4-4 9-6 16-6 7 0 13 2 17 6 3 1 6 4 9 9 4 5 8 13 11 22 9 23 13 49 13 77 0 15 0 28-1 39-1 21-2 46-5 75-1 16-2 27-2 32-1 6-1 12-1 19 1 1 3 4 8 9 11 8 20 15 26 22 3 3 7 9 12 17 3 7 5 14 5 22-1 24-3 52-5 84z m-30-99c-3-5-11-12-24-22-1-1-3-2-6-5-3-3-6-5-7-7l-6-9c-1-4-2-8-2-12 0-1 0-5 1-12 0-7 0-13 0-18 3-25 4-50 5-73 2-26 3-47 3-62 0-19-3-39-8-59-3-8-6-15-10-22-1-1-2-3-3-4-1 1-2 2-3 5-2 3-3 5-4 6-5 10-8 22-10 36-3 19-4 31-4 38 0 5 1 17 2 37 0 7 1 20 2 37 1 17 1 30 2 38 1 13 2 24 3 33l0 21c0 6-1 11-4 14-4 7-9 12-15 16-1 1-5 4-10 8-6 5-10 8-12 11-2 3-4 6-7 10-1 4-2 7-2 10 0 15 1 42 4 82 1 18 2 31 3 39 0 1 0 2 1 3 0 1 0 2 0 3l7 2c5 1 9 1 12 2l0-106c0-9 5-14 14-14 10 0 15 5 15 14l0 109 13 0 0-109c0-9 5-14 15-14 9 0 14 5 14 14l0 106c1 0 3 0 5-1 2-1 3-1 4-1 1 0 3 0 5-1 2 0 4 0 5-1l0-6c1-13 2-33 5-62 1-31 2-50 2-59 0-6-2-11-5-15z m91-333c-3 0-8 1-15 2-5 2-9 5-12 8-6 5-11 13-14 23-5 13-7 32-7 56 0 5 1 20 4 44 2 16 5 34 8 55 1 9 3 19 5 29 2 11 4 19 5 26 1 7 2 12 2 13l0 254 15 0c11 0 23-4 35-13 9-7 20-18 31-32 22-31 33-65 34-103 0-21-5-43-15-67-5-12-14-27-26-45-5-8-9-14-10-18-1-1-1-3-1-5-1-2 0-8 3-17 2-5 5-14 9-26 10-29 15-51 15-66 0-17-2-33-7-48-6-19-13-34-20-45-7-10-15-17-22-21-5-3-10-4-17-4z m6 253l0-1c-1-3-1-7-2-12-2-9-4-19-6-31-6-34-10-61-12-80-3-15-4-29-4-40 0-15 1-26 2-33 1-9 3-16 7-21 1-3 3-4 5-5l4 0c1 0 2 0 3 1 1 0 3 1 6 4 4 5 9 12 14 22 9 21 13 41 13 61 0 13-3 26-8 41-1 5-4 13-7 22-4 10-6 17-7 20-3 10-5 19-5 27 0 5 1 10 3 15 2 5 4 9 7 14 2 3 5 8 9 14 4 7 7 11 9 14 16 27 24 52 24 77 0 23-6 45-17 68-11 19-23 33-36 43-1 1-1 1-2 1z m-15 227z"/>
<glyph glyph-name="kcals-87" unicode="&#95;" d="M344 357c0-3-1-5-3-7l-112-112 112-113c2-1 3-3 3-6 0-3-1-5-3-7l-14-14c-2-2-4-3-7-3-3 0-5 1-7 3l-133 133c-2 2-3 4-3 7 0 2 1 4 3 6l133 133c2 2 4 3 7 3 3 0 5-1 7-3l14-14c2-2 3-4 3-6z"/>
<glyph glyph-name="kcals-88" unicode="&#96;" d="M335 238c0-3-1-5-3-7l-133-133c-2-2-4-3-7-3-3 0-5 1-7 3l-14 14c-2 2-3 4-3 7 0 3 1 5 3 6l112 113-112 112c-2 2-3 4-3 7 0 2 1 4 3 6l14 14c2 2 4 3 7 3 3 0 5-1 7-3l133-133c2-2 3-4 3-6z"/>
<glyph glyph-name="kcals-89" unicode="&#123;" d="M266 125l203 203c7 7 7 14 0 21-7 7-14 7-21 0l-192-192-192 191c-7 7-14 7-21 0-7-7-7-14 0-21l202-202c3-3 7-5 11-5 3 0 7 2 10 5z"/>
<glyph glyph-name="kcals-90" unicode="&#124;" d="M437 512l-362 0c-7 0-11-4-11-11l0-330c0-3 1-6 4-8l181-160c2-2 4-3 7-3 3 0 5 1 7 3l181 160c3 2 4 5 4 8l0 330c0 7-4 11-11 11z m-10-337l-171-150-171 150 0 316 342 0z"/>
<glyph glyph-name="kcals-91" unicode="&#125;" d="M176 36c-44 25-73 50-88 75-15 26-19 56-12 90 3 13 11 35 24 64 13 30 21 54 22 72 13-25 20-48 21-71 49 59 74 129 76 210 3-2 8-5 13-8 5-3 14-11 28-23 13-11 25-23 36-36 11-12 21-28 30-47 9-19 15-38 16-57 5 11 9 24 10 38 1 14 0 27-5 38 8-6 19-17 32-32 13-15 25-35 38-61 13-26 21-53 24-80 3-27-5-57-24-88-19-31-50-59-93-84 21 42 26 87 13 136-13 49-39 87-77 113 3-14 2-37-5-70-7-32-17-56-32-73 3 21 3 37 2 50-1 13-4 23-7 29l-4 9c-4-23-14-46-29-69-9-13-15-24-19-34-4-10-5-23-4-39 1-16 5-33 14-52z"/>
</font>
</defs>
</svg>
