<?xml version="1.0" encoding="UTF-8" ?>
<!DOCTYPE svg PUBLIC "-//W3C//DTD SVG 1.1//EN" "http://www.w3.org/Graphics/SVG/1.1/DTD/svg11.dtd">
<svg width="1080pt" height="1080pt" viewBox="0 0 1080 1080" version="1.1" xmlns="http://www.w3.org/2000/svg">
<g id="#000000ff">
<path fill="#000000" opacity="1.00" d=" M 372.95 41.35 C 380.07 35.26 390.20 34.86 398.91 37.10 C 403.48 38.55 408.18 36.68 412.82 37.24 C 419.39 38.07 425.66 40.42 431.57 43.35 C 434.77 45.25 438.53 43.60 441.97 44.38 C 447.95 45.79 452.95 49.58 457.58 53.44 C 460.45 56.11 464.81 55.10 468.02 57.07 C 473.55 60.34 477.81 65.26 481.97 70.06 C 484.18 73.00 488.31 72.88 491.01 75.16 C 495.08 78.48 497.67 83.14 500.53 87.45 C 502.01 89.82 504.87 90.61 507.00 92.25 C 513.01 96.53 516.36 103.51 518.21 110.48 C 526.95 113.14 527.69 123.80 528.20 131.43 C 530.41 132.53 533.12 133.41 534.15 135.90 C 537.47 142.53 537.33 150.16 537.21 157.39 C 539.40 158.51 542.10 159.41 543.07 161.92 C 546.56 169.46 546.16 178.01 545.52 186.09 C 545.20 188.87 547.68 190.79 548.61 193.21 C 551.28 199.48 549.36 206.35 549.33 212.86 C 554.88 223.37 553.24 235.61 554.20 247.04 C 554.27 252.33 557.08 256.95 559.32 261.56 C 570.65 239.47 582.88 217.72 597.92 197.91 C 598.85 196.85 600.05 195.13 601.57 196.45 C 608.50 200.64 613.48 207.96 614.89 215.93 C 615.42 220.58 615.41 225.34 614.64 229.96 C 613.03 234.84 607.83 236.92 604.38 240.31 C 591.94 252.05 583.49 267.19 575.63 282.20 C 590.96 284.11 606.28 286.15 621.52 288.66 C 633.93 290.75 646.55 290.66 659.06 291.63 C 672.74 292.60 686.25 295.14 699.87 296.69 C 764.49 304.52 825.38 336.95 869.28 384.80 C 901.75 420.16 924.87 464.06 935.44 510.90 C 942.93 538.94 944.77 568.10 944.57 597.01 C 943.99 614.07 943.77 631.16 941.76 648.14 C 939.29 669.87 936.22 691.59 930.79 712.80 C 929.48 717.74 929.14 723.05 926.68 727.61 C 923.32 731.91 919.07 735.42 915.16 739.21 C 905.91 747.59 897.23 756.57 888.29 765.27 C 876.70 775.98 865.90 787.52 854.37 798.30 C 843.03 808.60 832.55 819.81 821.08 829.96 C 814.89 826.60 808.08 824.05 800.97 824.00 C 796.28 823.88 791.74 825.17 787.24 826.25 C 754.65 760.42 721.62 694.81 688.89 629.04 C 693.34 622.52 696.70 615.00 696.89 606.99 C 697.40 594.77 691.58 582.38 681.59 575.26 C 672.93 568.88 661.46 566.60 651.01 569.01 C 644.22 570.48 638.23 574.26 633.02 578.73 C 606.71 561.08 580.34 543.50 553.97 525.93 C 554.67 514.71 551.11 502.96 542.99 494.98 C 531.86 483.67 513.24 480.71 499.25 488.27 C 483.87 495.84 475.49 515.00 480.41 531.43 C 481.95 537.30 485.23 542.52 489.02 547.20 C 461.00 632.23 432.48 717.09 404.37 802.10 C 395.62 828.34 386.99 854.63 378.17 880.85 C 372.90 880.91 367.65 881.56 362.53 882.78 C 329.19 826.47 295.25 770.52 261.96 714.17 C 266.30 708.29 269.78 701.54 270.62 694.18 C 272.04 683.60 268.50 672.56 261.48 664.57 C 255.04 657.34 245.68 652.81 236.02 652.13 C 225.63 651.40 214.99 655.22 207.54 662.53 C 200.33 669.34 196.17 679.13 196.01 689.02 C 195.96 694.44 197.42 699.72 199.05 704.85 C 185.17 717.70 171.54 730.82 157.80 743.82 C 156.87 744.68 155.83 745.43 154.69 746.00 C 148.88 726.65 145.09 706.75 141.71 686.85 C 138.62 665.38 135.91 643.77 135.90 622.04 C 133.82 580.82 139.79 539.21 153.34 500.23 C 156.45 492.04 160.57 484.29 164.16 476.32 C 168.82 466.65 172.84 456.65 178.29 447.39 C 193.20 422.80 211.57 400.13 233.72 381.70 C 243.83 373.12 255.17 366.17 266.59 359.50 C 290.74 345.46 315.51 332.48 340.97 320.98 C 356.31 314.21 372.19 308.60 388.48 304.62 C 411.54 299.02 435.20 296.65 458.50 292.31 C 482.20 287.87 506.07 284.41 530.05 281.92 C 536.96 281.17 543.92 280.95 550.86 280.94 C 552.45 276.50 556.43 271.89 554.11 267.02 C 552.32 263.25 551.47 258.57 548.03 255.90 C 539.29 251.09 529.29 249.44 520.01 245.99 C 517.07 244.93 514.17 243.32 510.94 243.65 C 504.31 243.81 497.42 243.51 491.29 240.72 C 488.32 239.45 486.39 236.16 482.98 235.94 C 477.06 235.11 470.69 234.78 465.58 231.32 C 463.27 229.84 461.78 227.00 458.89 226.57 C 450.53 225.03 441.90 223.06 434.91 217.96 C 432.78 216.46 432.11 213.82 431.14 211.55 C 422.92 209.37 414.42 206.81 407.84 201.17 C 405.82 199.49 405.17 196.84 404.28 194.49 C 396.70 191.49 388.98 187.86 383.60 181.53 C 381.22 178.72 380.82 174.53 377.68 172.33 C 372.00 168.12 366.19 163.71 362.42 157.60 C 360.57 154.71 361.62 150.55 358.71 148.25 C 353.12 142.77 346.85 135.53 349.04 127.07 C 343.28 121.15 336.90 113.87 337.82 105.00 C 337.86 103.67 337.95 102.20 336.87 101.23 C 332.98 96.52 328.44 91.99 326.72 85.95 C 325.88 83.84 327.01 81.71 327.44 79.65 C 323.67 75.74 320.20 71.51 315.97 68.08 C 311.77 64.57 306.97 61.89 302.59 58.61 C 317.27 56.47 330.95 50.53 345.08 46.35 C 348.81 45.50 351.31 42.12 355.03 41.27 C 360.92 39.84 367.02 40.55 372.95 41.35 Z" />
<path fill="#000000" opacity="1.00" d=" M 513.13 505.22 C 522.68 502.97 532.99 511.16 533.04 520.96 C 533.55 530.09 525.11 538.55 515.97 538.03 C 507.20 537.92 499.43 529.72 499.95 520.94 C 500.04 513.48 505.97 506.84 513.13 505.22 Z" />
<path fill="#000000" opacity="1.00" d=" M 507.48 558.06 C 521.10 561.18 535.95 556.23 545.24 545.87 C 571.04 562.87 596.67 580.16 622.38 597.30 C 622.23 603.30 621.53 609.51 623.41 615.38 C 626.77 628.46 637.82 638.98 650.97 641.91 C 657.74 643.80 664.84 642.83 671.53 641.11 C 704.35 707.12 737.38 773.03 770.22 839.04 C 766.09 845.60 763.09 853.09 763.01 860.94 C 762.94 872.09 767.93 883.31 776.64 890.38 C 785.11 897.25 796.67 900.45 807.43 898.26 C 821.01 895.82 832.71 885.36 836.37 872.02 C 839.19 863.49 837.83 854.34 834.88 846.06 C 859.94 821.98 885.24 798.14 910.01 773.77 C 911.00 772.85 912.01 771.96 913.04 771.08 C 901.50 802.84 889.00 834.37 873.20 864.29 C 864.64 880.55 854.92 896.21 843.77 910.83 C 836.40 920.67 827.98 929.64 820.15 939.10 C 808.71 952.59 797.20 966.15 783.83 977.81 C 772.34 987.48 760.99 997.57 747.71 1004.75 C 730.10 1014.27 711.08 1021.14 691.51 1025.31 C 677.52 1028.25 663.25 1030.35 648.91 1029.70 C 629.52 1029.29 609.70 1025.59 590.59 1030.47 C 578.01 1033.90 565.98 1039.55 552.92 1041.08 C 539.01 1042.78 524.95 1043.33 510.94 1042.67 C 484.88 1041.55 460.62 1030.61 434.98 1026.93 C 420.05 1025.12 404.85 1025.82 390.04 1022.90 C 380.08 1020.46 369.95 1018.43 360.41 1014.59 C 347.82 1009.60 335.18 1004.51 323.57 997.48 C 311.11 989.96 300.13 980.36 288.99 971.07 C 276.58 960.79 266.67 947.98 256.15 935.87 C 213.80 888.43 182.51 831.64 162.36 771.44 C 161.27 769.17 163.72 767.54 165.02 766.08 C 180.62 750.86 196.69 736.13 212.36 720.99 C 216.83 722.77 221.08 725.21 225.85 726.13 C 231.89 727.44 238.16 726.94 244.14 725.57 C 277.85 781.96 311.68 838.29 345.26 894.77 C 340.63 901.28 337.33 908.94 337.04 917.01 C 336.64 928.93 342.12 941.07 351.74 948.23 C 362.96 956.88 379.17 958.45 391.70 951.72 C 401.53 946.65 408.95 937.09 411.11 926.20 C 414.27 912.43 408.36 897.62 397.64 888.72 C 434.12 778.46 470.88 668.29 507.48 558.06 Z" />
<path fill="#000000" opacity="1.00" d=" M 656.21 589.20 C 665.75 587.02 676.01 595.19 676.04 604.98 C 676.60 614.49 667.37 623.12 657.93 622.00 C 649.60 621.24 642.48 613.41 642.94 604.97 C 643.03 597.48 649.00 590.80 656.21 589.20 Z" />
<path fill="#000000" opacity="1.00" d=" M 230.21 673.20 C 239.74 671.03 249.97 679.16 250.04 688.92 C 250.63 698.46 241.39 707.13 231.92 706.00 C 223.62 705.23 216.51 697.44 216.94 689.03 C 217.00 681.51 222.98 674.78 230.21 673.20 Z" />
<path fill="#000000" opacity="1.00" d=" M 797.12 845.22 C 806.69 842.97 817.01 851.16 817.04 860.98 C 817.59 870.49 808.37 879.12 798.93 878.01 C 790.59 877.24 783.45 869.37 783.95 860.92 C 784.05 853.47 789.97 846.84 797.12 845.22 Z" />
<path fill="#000000" opacity="1.00" d=" M 370.36 902.47 C 380.08 899.44 391.04 907.93 391.04 918.00 C 391.53 927.14 383.06 935.58 373.92 935.03 C 364.43 934.93 356.38 925.29 358.08 915.92 C 358.93 909.42 364.47 904.59 370.36 902.47 Z" />
</g>
</svg>
