<?xml version="1.0" encoding="UTF-8" ?>
<!DOCTYPE svg PUBLIC "-//W3C//DTD SVG 1.1//EN" "http://www.w3.org/Graphics/SVG/1.1/DTD/svg11.dtd">
<svg width="1080pt" height="1080pt" viewBox="0 0 1080 1080" version="1.1" xmlns="http://www.w3.org/2000/svg">
<g id="#000000ff">
<path fill="#000000" opacity="1.00" d=" M 373.08 41.48 C 380.12 34.84 390.96 35.05 399.77 37.27 C 403.78 38.77 407.89 36.58 411.98 37.18 C 419.13 37.95 425.97 40.48 432.34 43.74 C 434.97 45.38 438.06 43.58 440.92 44.16 C 447.53 45.44 453.11 49.59 458.11 53.90 C 460.61 56.25 464.48 54.93 467.31 56.70 C 473.37 60.05 477.95 65.39 482.41 70.55 C 484.11 73.04 487.48 72.69 489.80 74.26 C 495.15 78.04 498.16 84.01 501.74 89.29 C 510.64 92.78 516.21 101.56 518.12 110.64 C 520.76 111.39 523.43 112.69 524.56 115.38 C 527.35 120.29 528.03 126.02 528.12 131.58 C 530.51 132.35 533.10 133.40 534.14 135.91 C 537.48 142.58 537.41 150.29 537.17 157.58 C 539.53 158.35 542.10 159.41 543.07 161.93 C 546.54 169.51 546.30 178.16 545.47 186.28 C 544.94 188.86 547.56 190.45 548.43 192.61 C 550.93 198.55 549.98 205.19 549.22 211.39 C 548.80 213.17 550.11 214.63 550.77 216.17 C 552.23 218.88 552.66 221.96 553.02 224.98 C 553.87 232.64 553.80 240.35 554.27 248.04 C 554.53 252.99 557.35 257.25 559.34 261.64 C 570.71 239.27 583.16 217.34 598.39 197.34 C 598.98 196.44 599.80 195.99 600.87 196.01 C 608.46 200.37 613.86 208.33 615.10 216.99 C 615.32 221.27 615.28 225.60 614.75 229.86 C 613.03 235.03 607.38 237.09 603.86 240.82 C 591.70 252.50 583.36 267.48 575.60 282.27 C 590.91 284.04 606.17 286.20 621.40 288.64 C 634.11 290.83 647.06 290.67 659.89 291.70 C 672.86 292.65 685.66 295.08 698.58 296.54 C 770.73 304.91 838.34 343.95 883.03 400.99 C 902.77 426.06 918.03 454.60 928.22 484.83 C 931.59 494.57 933.88 504.64 936.37 514.63 C 940.01 529.01 942.11 543.74 943.36 558.50 C 944.36 565.64 943.67 572.88 944.48 580.04 C 944.62 587.97 944.70 595.91 944.42 603.84 C 943.53 611.49 944.47 619.22 943.56 626.87 C 942.81 632.21 943.04 637.62 942.35 642.97 C 939.82 665.89 936.83 688.83 931.18 711.23 C 929.66 716.72 929.23 722.62 926.74 727.77 C 920.27 734.94 912.80 741.15 905.93 747.93 C 898.07 755.41 890.66 763.35 882.59 770.62 C 871.15 781.83 860.01 793.38 848.09 804.10 C 839.17 812.83 830.36 821.69 821.04 830.00 C 814.93 826.52 808.10 824.14 801.02 824.01 C 796.33 823.89 791.77 825.14 787.27 826.29 C 754.66 760.42 721.61 694.78 688.87 628.98 C 692.74 623.52 695.69 617.33 696.58 610.64 C 698.58 597.11 692.39 582.62 681.07 574.90 C 670.11 567.10 654.97 565.83 642.96 571.94 C 639.33 573.69 636.10 576.14 633.08 578.77 C 606.72 561.09 580.33 543.47 553.90 525.90 C 554.83 514.45 550.91 502.49 542.50 494.51 C 531.47 483.78 513.69 480.88 499.95 487.94 C 484.88 494.95 476.13 513.03 479.90 529.20 C 481.20 535.93 484.69 542.01 489.07 547.21 C 460.70 633.05 431.96 718.77 403.56 804.61 C 395.07 830.04 386.72 855.53 378.15 880.94 C 372.86 880.78 367.64 881.63 362.51 882.81 C 341.93 847.73 320.79 812.99 299.99 778.04 C 287.41 756.68 274.43 735.56 261.93 714.17 C 266.29 708.45 269.64 701.85 270.58 694.65 C 272.15 684.16 268.74 673.13 261.92 665.07 C 253.46 655.20 239.53 650.13 226.73 652.72 C 212.03 655.18 199.64 667.25 196.88 681.91 C 194.92 689.57 196.53 697.52 199.12 704.83 C 189.69 713.15 181.02 722.29 171.59 730.62 C 166.03 735.93 160.68 741.47 154.78 746.42 C 148.95 726.73 145.05 706.53 141.61 686.30 C 138.72 665.32 135.90 644.21 135.98 622.99 C 133.84 583.61 139.08 543.84 151.31 506.35 C 154.27 496.05 159.56 486.68 163.87 476.93 C 169.34 465.77 173.82 454.07 180.63 443.62 C 195.47 419.89 213.65 398.09 235.36 380.34 C 246.94 370.83 259.98 363.35 272.91 355.85 C 290.55 345.94 308.33 336.24 326.69 327.71 C 343.99 319.09 362.03 311.88 380.65 306.68 C 406.31 299.50 432.94 297.13 459.06 292.23 C 483.16 287.73 507.45 284.24 531.84 281.75 C 538.17 281.16 544.54 280.97 550.90 280.96 C 552.31 277.63 554.01 274.40 555.03 270.93 C 554.94 268.01 553.33 265.38 552.33 262.70 C 551.07 260.11 550.29 256.79 547.41 255.52 C 536.81 250.11 524.75 248.61 514.00 243.57 C 506.13 243.91 497.85 243.90 490.58 240.41 C 487.83 239.18 486.28 235.75 482.95 235.94 C 475.55 235.03 466.84 234.37 461.95 227.96 C 461.14 226.84 459.68 226.77 458.48 226.48 C 450.26 225.06 441.85 222.94 434.97 218.02 C 432.77 216.53 432.02 213.89 431.25 211.50 C 423.15 209.57 414.94 206.89 408.37 201.62 C 406.03 199.93 405.05 197.17 404.44 194.47 C 396.72 191.66 388.99 187.80 383.55 181.48 C 380.99 178.78 381.06 174.30 377.69 172.32 C 371.78 168.04 365.83 163.35 362.06 156.99 C 360.43 154.44 361.79 150.73 359.23 148.73 C 354.78 144.61 350.73 139.76 348.86 133.89 C 348.16 131.69 348.82 129.41 349.24 127.23 C 344.30 122.39 339.66 116.77 337.92 109.94 C 337.24 107.41 338.37 104.77 337.78 102.28 C 333.52 97.12 328.36 92.20 326.62 85.51 C 325.89 83.52 326.96 81.58 327.63 79.75 C 323.83 76.09 320.61 71.84 316.49 68.52 C 312.10 64.75 307.06 61.87 302.32 58.58 C 318.01 56.56 332.46 49.81 347.58 45.63 C 349.81 44.20 351.71 42.11 354.38 41.47 C 360.49 39.83 366.93 40.42 373.08 41.48 Z" />
<path fill="#000000" opacity="1.00" d=" M 512.34 505.44 C 522.13 502.56 533.01 510.86 533.02 520.98 C 533.59 530.10 525.10 538.59 515.99 538.03 C 507.25 537.98 499.44 529.73 499.98 520.99 C 500.00 513.81 505.56 507.34 512.34 505.44 Z" />
<path fill="#000000" opacity="1.00" d=" M 507.45 558.02 C 521.08 561.19 535.99 556.36 545.18 545.81 C 571.15 562.89 596.82 580.40 622.79 597.48 C 620.88 607.18 622.68 617.57 628.09 625.88 C 633.94 635.25 644.30 641.35 655.19 642.70 C 660.71 643.59 666.23 642.33 671.60 641.14 C 704.32 707.22 737.46 773.10 770.27 839.14 C 765.77 845.89 762.91 853.84 763.01 862.02 C 763.27 871.17 766.79 880.24 773.02 886.99 C 780.13 894.68 790.59 899.01 801.02 898.99 C 808.74 898.75 816.40 896.24 822.66 891.69 C 832.38 884.77 838.05 872.83 837.98 860.98 C 837.92 855.87 836.44 850.93 834.87 846.12 C 841.88 839.04 849.48 832.57 856.46 825.46 C 868.92 813.25 881.75 801.44 894.22 789.23 C 900.75 783.44 906.36 776.69 913.09 771.10 C 899.97 806.93 885.79 842.60 866.88 875.83 C 857.24 892.70 846.18 908.78 833.54 923.53 C 815.74 943.65 799.51 965.50 778.39 982.37 C 768.23 991.14 757.71 999.63 745.73 1005.83 C 726.13 1016.15 704.86 1023.19 683.05 1026.96 C 674.13 1028.56 665.11 1029.79 656.04 1029.77 C 638.98 1030.02 621.99 1027.17 604.92 1028.29 C 592.22 1028.48 580.56 1034.03 568.57 1037.52 C 557.16 1041.50 544.99 1041.99 533.05 1042.76 C 519.48 1043.18 505.77 1043.11 492.41 1040.43 C 473.40 1036.65 455.03 1030.07 435.87 1027.03 C 420.85 1025.20 405.58 1025.78 390.66 1023.09 C 381.26 1020.68 371.67 1018.85 362.56 1015.43 C 350.37 1010.61 338.10 1005.81 326.69 999.31 C 312.73 991.45 300.69 980.80 288.45 970.60 C 279.35 963.01 271.62 953.99 263.94 945.01 C 255.46 934.85 246.52 925.08 238.40 914.62 C 204.93 871.88 179.67 822.98 162.41 771.59 C 161.12 769.15 163.64 767.63 165.09 766.09 C 168.34 763.01 171.34 759.67 174.70 756.71 C 181.30 750.98 187.18 744.50 193.75 738.74 C 200.18 733.14 205.87 726.73 212.32 721.15 C 214.50 721.47 216.35 722.80 218.35 723.64 C 226.36 727.40 235.62 727.81 244.10 725.49 C 277.85 781.93 311.67 838.33 345.32 894.83 C 340.11 901.77 336.92 910.28 337.01 919.01 C 337.27 928.16 340.79 937.24 347.02 943.99 C 355.18 952.76 367.76 957.35 379.64 955.58 C 394.39 953.67 407.34 942.29 410.73 927.76 C 414.70 913.62 408.87 897.90 397.60 888.79 C 434.11 778.50 470.98 668.32 507.45 558.02 Z" />
<path fill="#000000" opacity="1.00" d=" M 655.35 589.44 C 665.14 586.57 676.02 594.87 676.02 604.99 C 676.65 614.84 666.77 623.67 657.03 621.88 C 649.11 620.72 642.49 613.08 642.98 604.99 C 643.00 597.81 648.56 591.34 655.35 589.44 Z" />
<path fill="#000000" opacity="1.00" d=" M 229.34 673.44 C 239.13 670.56 250.02 678.86 250.02 688.99 C 250.65 698.83 240.77 707.67 231.03 705.88 C 223.11 704.72 216.49 697.08 216.98 688.99 C 217.00 681.81 222.56 675.34 229.34 673.44 Z" />
<path fill="#000000" opacity="1.00" d=" M 796.35 845.44 C 806.13 842.56 817.02 850.86 817.02 860.99 C 817.65 870.84 807.77 879.67 798.03 877.88 C 790.11 876.72 783.49 869.08 783.98 860.99 C 784.00 853.81 789.56 847.34 796.35 845.44 Z" />
<path fill="#000000" opacity="1.00" d=" M 370.37 902.47 C 380.13 899.53 391.02 907.89 391.02 917.99 C 391.59 927.10 383.10 935.59 373.99 935.03 C 364.52 934.99 356.41 925.40 358.12 916.03 C 358.86 909.40 364.48 904.71 370.37 902.47 Z" />
</g>
</svg>
