<?xml version="1.0" encoding="utf-8"?>
<!-- Generator: Adobe Illustrator 16.0.0, SVG Export Plug-In . SVG Version: 6.00 Build 0)  -->
<!DOCTYPE svg PUBLIC "-//W3C//DTD SVG 1.1//EN" "http://www.w3.org/Graphics/SVG/1.1/DTD/svg11.dtd">
<svg version="1.1" id="Layer_1" xmlns="http://www.w3.org/2000/svg" xmlns:xlink="http://www.w3.org/1999/xlink" x="0px" y="0px"
	 width="1300px" height="1300px" viewBox="0 0 1300 1300" enable-background="new 0 0 1300 1300" xml:space="preserve">
<g id="_x23_000000ff">
	<path d="M483.15,151.37c4.95-5.58,12.96-5.65,19.84-5.391c3.5-0.2,6.721,1.29,10.08,1.971c10.83-2.891,21.92,1.619,31.33,6.75
		c9.8-2.94,18.68,4.42,25.46,10.59c2.58-0.25,5.29-0.181,7.561,1.25c6.729,3.89,11.84,9.93,16.739,15.85c1.75,0.3,3.7,0.23,5.2,1.34
		c5.68,3.98,9.29,10.101,12.63,16.03c9.29,2.5,14.58,12.44,16.221,21.32c0.71-0.011,2.13-0.03,2.84-0.051
		c5.96,4.96,7.3,13.36,6.96,20.69c2.66,0.15,5.13,1.51,6.21,4.02c3.39,6.761,3.56,14.681,2.93,22.07c2.99-0.05,5.36,1.97,6.39,4.68
		c3.4,8.15,2.71,17.29,1.86,25.891c3.311,2.439,4.49,6.649,4.58,10.59c0.16,4.71,0.16,9.49-1,14.09c3.42,3.65,3.88,8.78,4.35,13.521
		c1.11,8.08,0.07,16.33,1.57,24.38c0.98,3.76,3.05,7.12,4.53,10.71c11.09-23.2,24.5-45.25,39.81-65.91
		c3.34,0.27,5.62,2.89,7.94,4.99c3.229,3.02,5.3,7.029,6.859,11.109c2.12,5.49,1.29,11.49,0.94,17.2c-0.28,3.58-3.46,5.8-6.06,7.79
		c-8.351,6.03-14.57,14.42-20.16,22.94c-4.8,7.17-8.95,14.739-13.04,22.33c18.45,2.069,36.779,5.05,55.16,7.68
		c8.06,0.38,16.1,1.189,24.18,1.36c10.41,0.659,20.74,2.05,31.05,3.609c15.55,2.04,31.26,3.74,46.41,7.97
		c55.07,13.75,105.39,45.34,142.479,88.221c26.62,31.05,46.791,67.899,57.341,107.479c0.35,1.311,0.67,2.64,1,3.98
		c0.359,1.31,0.67,2.649,1,3.989c0.359,1.32,0.67,2.66,1,4c0.35,1.32,0.67,2.66,1.01,4.011c0.35,1.319,0.649,2.659,0.979,4.02
		c3.2,12.78,4.94,25.92,5.98,39.03c1.46,7.08-0.07,14.37,1.31,21.46c0.391,8.02,0.2,16.07,0.11,24.1
		c-1.72,9.24,0.33,18.73-1.62,27.94c-0.149,9.6-1.09,19.28-2.939,28.67c-0.24,2.66,0.13,5.46-0.96,7.99
		c-0.221,2.34-0.131,4.76-0.971,7c-0.93,10.8-3.55,21.37-5.899,31.93c-0.351,1.33-0.67,2.68-1.04,4.02
		c-0.48,3.03-1.16,6.03-2.021,8.99c-2.02,9.67-5.26,19.061-8.22,28.49c-6.84,22.12-15.35,43.67-24.021,65.12
		c-14.76,35.93-32.02,71.3-56.3,101.859c-9.47,11.7-19.5,22.931-29.24,34.41c-7.43,8.561-15.029,17.01-23.319,24.771
		c-15.95,13.66-31.86,28.26-51.69,36.069c-8.279,4.211-16.979,7.69-25.979,10c-1,0.33-2,0.67-2.98,1.021
		c-2.31,0.77-4.66,1.41-7.02,1.96c-4.55,1.42-9.23,2.37-13.94,3.01c-11.32,2.46-22.92,3.99-34.53,3.67
		c-20.369-0.109-41.1-4.42-61.189,0.63c-6.601,1.761-12.97,4.25-19.521,6.171c-0.439,0.119-1.34,0.35-1.79,0.47
		c-2.27,0.89-4.619,1.56-6.989,2.09c-6.971,2.14-14.351,2.43-21.57,2.93c-7.59,1.271-15.33,0.58-22.99,0.73
		c-24.77,0.56-48.149-8.72-72.02-13.86c-20.53-4.97-42.141-1.88-62.53-7.59c-9.9-2.28-19.74-4.97-28.99-9.2
		c-15.149-5.88-29.989-12.92-42.979-22.79c-8.15-6.109-15.9-12.75-23.69-19.31c-9.26-7.78-17.069-17.07-24.92-26.22
		c-7.25-8.74-14.95-17.11-22-26.011c-42.58-53.359-72.32-116.439-89.11-182.46c-2.55-8.84-4.609-17.85-6.04-26.93
		c-0.47-1.66-0.739-3.35-1.02-5.021c-1.53-7.63-3.2-15.25-3.93-23c-1.771-12.319-3.221-24.699-4.12-37.119
		c-1.131-7.471-0.32-15.03-0.761-22.53c-1.5-13.311-0.069-26.68,0.341-40c1.71-15.41,3.29-30.9,7.119-45.96
		c2.46-11.58,5.95-22.9,9.641-34.13c1.22-3.87,3.08-7.48,4.79-11.15c5.02-10.92,10.13-21.79,15.24-32.67
		c3.88-8.69,9.46-16.44,14.62-24.38c19.409-28.13,43.89-53.33,73.8-70.271c17.95-10.659,36.35-20.54,54.979-29.96
		c3.311-1.699,6.73-3.18,10.16-4.64c17.93-9.28,36.891-16.56,56.351-21.899c22.97-6.141,46.68-8.601,70.04-12.74
		c19.96-3.54,39.93-7.16,60.1-9.29c12.479-1.75,25.05-3.29,37.68-2.84c1.351-3.67,3.73-7.13,4.21-11.011
		c-1.58-4.52-3.319-9.079-5.75-13.199c-10.63-6.521-23.62-7.32-34.64-12.99c-8.35,0.34-17.18,0.3-24.82-3.61
		c-1.85-0.85-3.069-2.52-4.22-4.109c-6.44-0.03-12.99-1.07-18.86-3.801c-2.3-1.02-4.09-2.869-5.1-5.149
		c-9.08-1.28-18.34-3.43-26.11-8.521c-2.54-1.47-3.64-4.239-4.21-6.979c-8.569-2.021-17.41-4.84-24.05-10.86
		c-1.87-1.51-2.28-3.91-2.71-6.109c-6.97-2.4-13.68-5.881-19.11-10.921c-2.729-2.539-4.659-5.869-5.43-9.52
		c-7.66-5.72-16.59-11.59-19.59-21.18c0.2-0.63,0.61-1.9,0.81-2.54c-5.6-4.391-10.46-10.12-12.59-17.011
		c-0.75-1.989-0.09-4.06,0.63-5.939c-5.149-5.28-10.22-11.28-11.68-18.71c-0.58-2.061,0.3-4.07,0.79-6.04
		c-4.98-5.16-10.21-10.75-12.04-17.88c-0.71-1.84,0.5-3.48,1.26-5.061c-4.83-4.689-8.93-10.14-14.569-13.949
		c-3.551-2.74-7.58-4.801-11.091-7.591c13.11-1.35,25.41-6.399,37.82-10.54c2.65-0.93,5.39-1.6,8.17-2
		c3.17-4.579,9.061-5.31,14.19-5.56C475.79,150.06,479.48,150.78,483.15,151.37z"/>
</g>
</svg>
