<?xml version="1.0" encoding="utf-8"?>
<!-- Generator: Adobe Illustrator 16.0.0, SVG Export Plug-In . SVG Version: 6.00 Build 0)  -->
<!DOCTYPE svg PUBLIC "-//W3C//DTD SVG 1.1//EN" "http://www.w3.org/Graphics/SVG/1.1/DTD/svg11.dtd">
<svg version="1.1" id="Layer_1" xmlns="http://www.w3.org/2000/svg" xmlns:xlink="http://www.w3.org/1999/xlink" x="0px" y="0px"
	 width="1300px" height="1300px" viewBox="0 0 1300 1300" enable-background="new 0 0 1300 1300" xml:space="preserve">
<g id="_x23_000000ff">
	<path d="M483.26,151.68c3.97-4.95,10.85-5.72,16.778-5.729c4.512-0.182,8.972,0.788,13.15,2.47c3.09-1.34,6.51-1.7,9.83-1.142
		c7.52,1.132,14.84,3.71,21.35,7.632c2.61-1.04,5.49-1.262,8.19-0.41c6.64,2.05,12.42,6.22,17.28,11.108
		c2.55-0.479,5.238-0.29,7.5,1.08c6.818,3.9,11.88,10.062,16.88,15.98c1.67,0.14,3.528,0.02,4.96,1.108
		c5.67,4.07,9.47,10.142,12.67,16.24c4.85,0.54,8.189,4.521,10.92,8.181c2.78,3.811,4.64,8.279,5.16,12.989
		c1.85-0.068,3.858,0.2,5.03,1.852c4.118,5.229,5.21,12.229,5.05,18.729c2.358,0.23,4.68,1.312,5.778,3.53
		c3.73,6.83,3.73,14.96,3.28,22.53c3.92-0.062,6.2,3.52,7.16,6.88c2.28,7.67,2.14,15.87,0.92,23.72c3.48,2.3,4.41,6.58,4.75,10.47
		c0.43,4.812-0.14,9.642-1.07,14.36c1.682,1.85,2.972,4.05,3.36,6.55c1.74,8.96,1.521,18.141,2,27.21
		c-0.07,5.47,3.24,10.07,5.22,14.95c11.062-22.88,24.051-44.88,39.38-65.16c1.342-1.859,3.432-0.14,4.671,0.891
		c7.5,5.529,12.471,14.841,11.761,24.261c-0.29,3.729,0.62,8.08-2.182,11.09c-3.438,3.57-7.89,6-11.22,9.72
		c-11.09,11.51-18.84,25.682-26.42,39.62c17.92,1.65,35.64,4.79,53.45,7.3c15.06,1.511,30.26,1.29,45.25,3.521
		c18.67,2.88,37.6,4.31,55.95,8.95c58.26,14.229,111.47,47.988,149.43,94.378c14.55,17.802,26.92,37.382,36.66,58.211
		c7.06,15.359,13.32,31.211,17.09,47.721c0.71,1.22,0.75,2.648,0.99,4.02c8,27.71,10.39,56.762,10.35,85.5
		c-0.09,4.71,0.271,9.44-0.35,14.13c-0.66,7.222,0.33,14.54-0.771,21.74c-0.738,4.03-0.29,8.16-0.8,12.23
		c-2.49,22.8-5.26,45.63-10.729,67.96c-1.021,3.77-1.601,7.648-2.671,11.42c-0.938,3.38-0.948,7.46-3.85,9.91
		c-11.859,11.479-24.01,22.648-35.57,34.43c-14.22,13.12-27.31,27.43-41.778,40.3c-8.86,8.79-17.78,17.54-27.012,25.95
		c-9.96-6.16-22.67-7.95-33.67-3.561c-32.68-65.939-65.72-131.689-98.55-197.551c4.97-6.59,7.98-14.67,8.15-22.949
		c0.028-9.979-3.91-19.961-10.98-27.029c-6.83-6.8-16.33-10.65-25.91-10.96c-9.938-0.03-19.81,3.89-26.97,10.8
		c-26.398-17.73-52.85-35.4-79.34-52.98c1.18-11.188-2.79-22.85-10.75-30.828c-11-11.11-29.12-14.23-43.09-7.052
		c-14.99,6.99-23.74,24.95-20.05,41.062c1.3,6.8,4.71,13.04,9.25,18.22c-37.012,111.29-74.04,222.58-111.012,333.89
		c-5.25-0.488-10.448,0.45-15.488,1.802C439.4,936.96,405.83,881.198,372.51,825.3c-1.09-1.36,0.54-2.55,1.148-3.682
		c4.45-5.909,6.83-13.229,7.28-20.58c0.37-10.55-3.83-21.229-11.46-28.56c-5.61-5.34-12.89-8.85-20.54-9.99
		c-15.84-2.6-32.84,6.42-39.34,21.16c-4.521,9.65-4.8,21.23-0.26,30.94c-9.82,8.77-18.94,18.278-28.802,27
		c-5.27,4.938-10.068,10.479-15.97,14.688C254.28,818.658,247.88,779.96,246,741c0.26-9.65-0.88-19.28-0.45-28.932
		c0.4-35.6,6.762-71.148,18.842-104.64c6.908-15.062,13.88-30.102,21.05-45.05c9.32-16.44,20.42-31.86,32.93-46.021
		c12.29-13.77,25.96-26.438,41.432-36.57c13.699-8.84,27.96-16.778,42.29-24.56c32.25-17.1,65.278-33.91,101.21-41.729
		c22.738-4.972,45.92-7.5,68.778-11.801c22.9-4.289,45.98-7.449,69.142-9.899c6.529-0.59,13.09-0.9,19.648-0.79
		c1.352-3.67,3.7-7.11,4.24-10.99c-1.58-4.55-3.29-9.16-5.8-13.28c-5.36-3.47-11.66-5.17-17.69-7.1c-5.8-1.9-12.068-2.86-17.22-6.33
		c-7.75,1.021-15.84,0.392-23.13-2.54c-2.37-0.87-4.21-2.63-5.61-4.68c-6.648-0.33-13.479-1.21-19.479-4.25
		c-2.08-1.021-3.66-2.76-4.57-4.87c-9.06-1.29-18.34-3.4-26.069-8.51c-2.421-1.53-3.881-4.142-4-6.98
		c-8.221-1.74-16.479-4.55-23.131-9.83c-2.29-1.698-3.698-4.26-3.72-7.13c-7.86-2.66-15.58-6.71-21.13-13.01
		c-1.99-2.04-2.62-4.811-3.49-7.4c-6.72-4.88-13.76-9.93-18.069-17.21c-1.261-1.988-1.521-4.38-0.739-6.59
		c-5.271-3.95-9.62-9.24-12.07-15.38c-1-2.41-0.97-5.17,0.32-7.47c-5.34-5.062-10.271-11.17-11.8-18.54
		c-0.61-2.11,0.289-4.182,0.868-6.182c-5.068-5.068-10.329-10.688-12.108-17.84c-0.721-1.87,0.42-3.55,1.45-5.01
		c-4.58-4.04-8.08-9.18-13.12-12.72c-3.96-3.352-8.66-5.63-12.682-8.87c16.012-1.19,30.421-9.07,45.9-12.562
		c2.21-2.76,5.4-4.46,8.93-4.829C472.36,150.08,477.93,150.38,483.26,151.68z"/>
	<path d="M621.5,615.69c9.91-3.52,21.562,4.8,21.48,15.271c0.67,9.09-7.87,17.648-16.96,17.028c-8.72,0.05-16.6-8.239-16-16.97
		C609.922,624.11,615.15,617.908,621.5,615.69z"/>
	<path d="M617.57,667.75c13.48,3.75,28.59-1.54,37.62-12.03c25.89,17.188,51.58,34.68,77.59,51.67
		c-2.1,10.67,0.33,22.18,6.96,30.859c9.33,12.561,26.95,17.829,41.73,12.779c32.938,66.12,66.01,132.17,98.92,198.3
		c-9.24,12.11-9.71,29.852-1.312,42.521c9.21,14.93,29.74,21.26,45.79,14.2c14.66-5.722,24.19-21.562,23-37.15
		c-0.369-4.36-1.5-8.62-3.158-12.649c6.738-6.789,14.028-13.011,20.76-19.811c12.74-12.59,25.979-24.63,38.72-37.229
		c6.59-5.762,12.19-12.5,18.88-18.172c-6.01,17.25-12.91,34.2-19.938,51.07c-15.15,35.78-33.392,70.73-58.74,100.42
		c-12.851,14.771-25.18,30-38.73,44.141c-6.93,7.431-14.97,13.689-22.698,20.25c-10.53,9.211-22.312,17.011-35.08,22.761
		c-21.25,10.27-44.392,16.319-67.771,19.229c-14.979,1.9-30.069,0.29-45.06-0.528c-12.271-0.49-24.92-1.03-36.771,2.76
		c-8.409,2.54-16.63,5.67-25.12,7.938c-8.81,2.57-18.039,2.66-27.1,3.58c-14.34,0.54-28.85,0.61-43-2.1
		c-19.729-3.852-38.76-10.83-58.68-13.73c-14.25-1.47-28.67-1.27-42.83-3.52c-10.17-2.602-20.562-4.54-30.36-8.391
		c-14.85-5.939-29.87-11.891-43.14-20.971c-10.301-6.83-19.57-15.05-29.08-22.899c-13.852-11.529-24.66-26.069-36.55-39.489
		c-40.552-46.47-70.41-101.71-90.052-160.021c-0.569-1.3-0.51-2.75,0.78-3.539c4.979-4.649,9.45-9.801,14.729-14.109
		c11.411-11.23,23.332-21.9,34.701-33.17c9.311,5.8,20.939,7.938,31.529,4.72c33.761,56.439,67.45,112.939,101.3,169.33
		c-5.34,6.89-8.448,15.5-8.398,24.24c0.3,10.31,4.739,20.55,12.489,27.43c8.199,7.17,19.62,10.82,30.431,9.08
		c14.31-1.95,26.91-12.83,30.56-26.86c4.381-14.358-1.34-30.659-12.97-39.909C544.24,888.43,580.97,778.11,617.57,667.75z"/>
	<path d="M764.5,699.69c9.94-3.54,21.62,4.85,21.48,15.35c0.62,9.07-7.91,17.58-16.98,16.95c-8.72,0.05-16.6-8.27-15.979-16.989
		C752.94,708.1,758.15,701.9,764.5,699.69z"/>
	<path d="M338.47,783.698c9.59-3.41,20.858,4.21,21.47,14.28c1.19,9.06-6.83,18.05-15.92,18.01c-9.11,0.642-17.65-7.91-17-17.01
		C326.95,792.1,332.14,785.92,338.47,783.698z"/>
	<path d="M905.44,955.71c9.94-3.58,21.65,4.778,21.54,15.29c0.68,9.5-8.63,18.22-18.08,16.938c-8.3-0.62-15.51-8.63-14.88-17.02
		C893.97,964.07,899.15,957.93,905.44,955.71z"/>
	<path d="M479.592,1012.698c9.858-3.54,21.47,4.84,21.39,15.24c0.71,9.53-8.6,18.29-18.07,17c-10.26-0.67-17.87-12.38-14-22.03
		C470.54,1017.92,475.12,1014.908,479.592,1012.698z"/>
</g>
</svg>
