<?xml version="1.0" standalone="no"?>
<!DOCTYPE svg PUBLIC "-//W3C//DTD SVG 1.1//EN" "http://www.w3.org/Graphics/SVG/1.1/DTD/svg11.dtd">
<svg xmlns="http://www.w3.org/2000/svg">
<metadata>Generated by Fontastic.me</metadata>
<defs>
<font id="fontawesome" horiz-adv-x="512">
<font-face font-family="fontawesome" units-per-em="512" ascent="480" descent="-32"/>
<missing-glyph horiz-adv-x="512" />

<glyph unicode="&#97;" d="M480 512l-469 0c-6 0-11-5-11-11l0-469c0-6 5-11 11-11l469 0c6 0 11 5 11 11l0 469c0 6-5 11-11 11z m-11-469l-448 0l0 448l448 0z"/>
<glyph unicode="&#61460;" d="M447 452l-112 0l0 45c0 4-2 8-5 11c-2 2-6 4-10 4l-128 0c-3 0-7-2-10-4c-3-3-5-7-5-11l0-45l-112 0c-8 0-15-6-15-15c0-8 7-15 15-15l20 0l49-389c1-10 6-18 12-24c7-5 15-9 25-9l170 0c10 0 18 4 25 9c6 6 11 14 12 24l49 389l20 0c8 0 15 7 15 15c0 9-7 15-15 15z m-240 30l98 0l0-30l-98 0z m142-446c0-1-1-3-3-4c-1-2-3-2-5-2l-170 0c-2 0-3 0-5 2c-2 1-3 3-3 4l-48 386l282 0z m-66 29l0 326c0 8 7 15 15 15c8 0 15-7 15-15l0-326c0-8-7-15-15-15c-8 0-15 7-15 15z m-84 0l0 326c0 8 7 15 15 15c9 0 15-7 15-15l0-326c0-8-6-15-15-15c-8 0-15 7-15 15z"/>
<glyph unicode="&#61445;" d="M486 318c-3 4-7 6-10 7c-3 1-6 1-9 1l-141 0c-1 0-4 1-6 2c-2 2-4 4-4 6l-44 137c-1 3-3 6-5 9c-1 2-3 4-5 5c-2 1-6 2-9 2c-3 0-6-1-9-2c-3-2-5-5-6-7c-2-2-3-5-4-7l-43-137c-1-2-2-4-4-6c-3-2-5-2-7-2l-140 0c-5 0-9-1-13-3c-2-1-5-3-7-5c-2-3-3-7-3-10c0-3 1-5 1-7c1-3 3-5 5-7c1-1 3-3 5-4l114-85c1 0 2-2 3-4c1-2 1-4 1-6c0-1 0-2 0-3l-44-137c-1-3-1-6-1-9c0-4 0-8 3-12c2-2 4-4 7-5c2-1 5-2 7-2c3 0 6 1 8 2c3 1 5 3 7 4l114 85c1 1 3 2 6 2c3 0 6-1 7-2l114-85c2-1 4-2 6-4c2-1 5-2 9-2l0 0c2 0 4 1 7 2c4 2 7 5 8 8c2 3 2 6 2 9c0 3-1 6-2 9l-43 137c0 1-1 2-1 3c0 2 1 4 2 6c1 2 2 4 3 4l114 85c2 2 5 4 7 6c1 2 2 3 2 5c1 2 2 4 2 7c-1 3-2 7-4 10z m-253 129z m-1 0z"/>
<glyph unicode="&#61446;" d="M393 27c-4 0-7 1-9 2c-2 1-4 2-7 4l-113 84c-1 1-4 2-6 2c-3 0-6-1-7-2l-113-84c-2-2-4-3-7-4c-2-1-5-2-8-2c-2 0-5 0-7 1c-3 1-5 3-7 5c-3 5-3 9-3 12c0 3 0 7 1 10l44 136c0 1 0 2 0 3c0 2 0 4-1 6c-1 2-3 4-3 4l-114 84c-2 2-3 3-5 5c-1 2-3 4-4 6c-1 2-1 5-1 7c0 4 1 7 3 10c2 3 4 4 7 6c4 2 8 2 12 2l140 0c1 0 4 1 6 3c3 1 4 4 5 5l43 136c1 3 2 5 3 8c2 2 4 4 7 7c2 1 5 2 9 2c3 0 6-1 8-2c3-2 4-3 5-5c3-3 4-6 5-10l44-136c0-1 2-4 4-5c2-2 5-3 6-3l140 0c3 0 6 0 10-1c3-1 6-3 9-7c3-3 4-6 4-10c0-2-1-5-2-7c0-1-1-3-2-4c-2-3-5-5-7-7l-113-84c-1-1-2-2-3-4c-1-2-2-4-2-6c0-2 0-3 0-3l44-136c1-3 1-7 1-10c0-3 0-5-1-9c-2-3-5-6-9-8c-2-1-4-1-6-1z m-112 112l93-69l-36 112c-1 4-1 8-1 12c0 6 1 12 4 17c2 6 6 11 11 15l95 70l-117 0c-8 0-16 4-22 8c-7 5-12 11-15 20l-35 112l-36-112c-3-9-8-15-14-20c-7-5-14-8-23-8l-116 0l94-70c5-4 9-9 12-15c2-5 4-11 4-17c0-4-1-8-2-12l-36-113l94 70c7 5 15 7 23 7c7 0 16-2 23-7z m-26 324z m-2 1z"/>
<glyph unicode="&#61470;" d="M423 211c-3-23-11-44-22-62c-7-12-16-23-25-32c0 0-1-1-1-1c0 0-1-1-2-2c0 0-1 0-1-1c0 0-1-1-1-1c-1-1-1-1-2-1c0-1-1-1-1-2c-1 0-2-1-3-2c0 0-1 0-1-1c0 0-1-1-1-1c-1 0-1-1-2-1c0 0-1-1-1-1c-1-1-1-1-1-1c-2-1-3-2-4-3c0 0 0 0-1 0c0-1-1-1-1-2c-1 0-1 0-1 0c-1-1-2-1-2-2c-1 0-1 0-1 0c-1-1-2-1-2-1c-1-1-1-1-2-1c-1-1-1-2-2-2c-1 0-1-1-2-1c0 0-1-1-2-1c0 0-1 0-1-1c-1 0-1 0-2-1c0 0-1 0-1-1c-1 0-2-1-3-1c-1 0-1-1-2-1c0 0-1 0-2-1c0 0-1 0-1 0c-1-1-1-1-2-1c0 0-1-1-1-1c-1 0-3-1-4-1c0 0-1-1-1-1c-1 0-1 0-2-1c-1 0-1 0-1 0c-1 0-2-1-3-1c0 0 0 0-1 0c-2-1-5-2-7-3c-1 0-1 0-1 0c-1 0-2-1-3-1c0 0 0 0-1 0c-2-1-5-2-8-2c0 0 0 0-1 0c-1 0-1-1-2-1c-11-2-22-3-33-3c-94 0-170 76-170 170c0 0 0 0 0 0c0 4 1 8 1 13c2 31 13 60 31 85c5 7 11 14 17 20c1 1 1 2 2 2c7 7 15 14 23 19c23 16 51 27 81 29c5 1 10 1 15 1c2 0 3 0 5 0c1 0 1 0 2 0c1 0 3 0 4 0c0 0 1 0 1 0c2-1 4-1 6-1c0 0 0 0 0 0c2 0 3 0 5-1c0 0 1 0 1 0c2 0 3 0 5-1c0 0 0 0 1 0c1 0 3 0 5-1c0 0 0 0 1 0c1 0 3-1 4-1c1 0 1 0 1 0c4-1 7-2 11-3c0 0 0 0 0 0c2-1 3-1 5-2c0 0 0 0 0 0c4-1 7-3 11-4c0 0 0 0 0 0c3-2 7-3 10-5c0 0 0 0 0 0c2-1 3-2 5-3c0 0 0 0 0 0c3-2 6-3 9-5c1-1 1-1 1-1c1-1 3-2 4-2c0-1 0-1 1-1c1-1 2-2 4-3c0 0 0 0 0 0c1-1 3-2 4-3c0 0 0-1 1-1c1-1 2-2 3-3c0 0 1 0 1 0c1-1 2-2 4-4c0 0 0 0 0 0c1-1 2-2 3-3c1 0 1-1 1-1c1-1 2-1 2-2c1-1 2-2 3-2c0-1 1-2 1-2c1-1 2-2 3-3c0 0 0 0 0-1l-96 0c-8 0-15-6-15-15c0-8 7-15 15-15l143 0l0 143c0 9-7 15-15 15c-8 0-15-6-15-15l0-87c-24 25-54 44-88 55c0 0 0 0-1 0c-3 1-6 1-9 2c0 0 0 0-1 0c-1 1-3 1-4 1c0 0 0 0 0 0c-2 1-4 1-5 1c0 0 0 0-1 0c-1 1-3 1-4 1c0 0-1 0-1 0c-3 1-6 1-9 2c-1 0-1 0-1 0c-2 0-3 0-5 0c0 0 0 0 0 0c-2 0-4 0-5 0c0 0-1 0-1 0c-1 1-3 1-4 1c0 0-1 0-1 0c-2 0-3 0-5 0c-110 0-199-90-199-200c0-110 89-199 199-199c56 0 107 23 143 60l0 0c1 1 2 2 3 3l0 0c7 7 13 15 19 23c0 0 0 1 0 1c0 1 1 2 2 3c0 0 0 0 0 0c1 1 2 2 2 3c0 1 1 1 1 1c0 1 1 2 2 3c0 0 0 1 0 1c1 1 1 2 2 3c0 0 0 0 0 1c1 1 1 2 2 3c0 0 0 0 0 0c3 5 5 10 7 15c1 0 1 1 1 1c0 1 1 2 1 3c0 0 0 1 0 1c1 1 1 2 2 3c0 0 0 1 0 1c1 1 1 2 1 3c0 1 1 1 1 1c0 1 0 2 1 3c0 1 0 1 0 2c0 1 1 2 1 3c0 0 0 1 0 1c1 1 1 2 1 3c0 1 0 1 1 1c1 5 2 10 3 16c0 0 0 1 0 1c1 1 1 2 1 3c0 1 0 1 0 2c0 1 1 2 1 3c0 0 0 1 0 1c0 1 0 2 0 3c0 1 0 2 0 2c1 1 1 2 1 3c0 1 0 1 0 2c0 1 0 2 0 3c0 0 0 1 0 2c0 1 0 1 0 2c0 1 0 2 0 3c0 1 1 1 1 2c0 1 0 2 0 3c0 1 0 1 0 2l-30 0c-1-8-1-17-3-25z"/>
<glyph unicode="&#61453;" d="M277 256l182 181c5 6 5 16 0 22c-6 5-16 5-22 0l-181-182l-181 182c-6 5-16 5-22 0c-5-6-6-16 0-22l182-181l-182-181c-3-3-4-7-4-11c0-4 1-8 4-11c6-6 16-6 22 0l181 182l181-182c3-3 7-4 11-4c4 0 8 1 11 4c5 6 5 16 0 22z"/>
<glyph unicode="&#61473;" d="M426 256c0-47-19-89-50-120c-31-31-73-50-120-50c-47 0-89 19-120 50c-3 3-5 6-8 9l96 0c8 0 15 7 15 15c0 8-7 15-15 15l-143 0l0-143c0-8 7-15 15-15c8 0 15 7 15 15l0 32c0 0 0 0 0 0l0 55c36-39 88-63 145-63c110 0 200 90 200 200z m-290 120c31 31 73 49 120 49c47 0 89-18 120-49c3-3 6-6 8-9l-96 0c-8 0-15-7-15-15c0-8 7-15 15-15l143 0l0 143c0 8-7 15-15 15c-8 0-15-7-15-15l0-87c-36 38-88 62-145 62c-110 0-199-89-199-199l30 0c0 47 18 89 49 120z"/>
<glyph unicode="&#61447;" d="M458 57c0 1 0 2 0 2c0 0 0 0 0 0c-2 10-5 19-7 26c0 0-15 27-43 46c-2 2-3 3-5 4c-15 7-31 13-46 19c-15 6-28 14-38 25l0 0c0 9-1 17-1 25c0 2 0 4 0 7c1 2 3 6 6 9c2 4 5 7 7 12c4 8 6 16 9 25c6 3 10 10 13 17c4 8 6 17 6 26c0 8-2 16-6 22c4 11 6 25 8 39l-12 67c0 0-12 12-20 16c0 1 0 1 0 1c-7 5-14 4-19 7c-8 4-13 12-22 15c-58 18-109-9-125-46c-10-24-10-48-6-75c1-7 6-16 5-23c0-7-6-12-7-21c-1-20 8-34 20-43c2-8 4-15 7-22c4-9 13-17 15-25c2-9 1-27-1-34c-7-18-49-29-70-39c-36-16-65-35-73-79l0-5c1-7 3-16 13-16l378 0c10 0 16 8 14 18z"/>
<glyph unicode="&#61440;" d="M391 52c-7 7-19 14-42 24c-13 6-24 12-32 17c-7 4-12 8-14 11c-2 1-2 2-2 2l0 69c0 4 1 8 3 11c2 4 5 7 8 10c6 6 14 10 14 10l0 0c90 39 136 148 136 210c0 76-18 86-18 86c-10 6-26 10-37 10l-301 0c-11 0-28-4-38-10c0 0-17-10-17-86c0-62 45-171 135-210l0 0c0 0 8-4 14-10c3-3 6-6 8-10c2-3 3-7 3-11l0-69c0 0 0-1-2-2c-2-3-7-7-14-11c-8-5-19-11-32-17c-23-10-35-17-42-24c-4-3-7-7-9-11c-2-5-2-9-2-11c0 0 0 0 0 0c0-2 0-5 1-9c1-2 2-5 4-8c3-4 8-8 13-10c6-2 12-3 19-3c19 0 94 0 109 0c14 0 89 0 108 0c7 0 14 1 19 3c6 2 10 6 13 10c3 3 4 6 5 8c1 4 1 7 1 9c0 0 0 0 0 0c0 2 0 6-2 11c-2 4-5 8-9 11z m-303 426c6 2 13 4 18 4l301 0c4 0 12-2 17-4c3-6 8-24 8-62c0-3-1-7-1-11l-350 0c0 4 0 8 0 11c0 38 4 56 7 62z m38-185c-20 27-33 57-39 82l339 0c-7-25-20-55-40-82c-24-32-66-71-130-71c-64 0-106 39-130 71z m239-263c-19 0-94 0-109 0c-15 0-90 0-108 0c-3 0-5 0-6 0c1 2 4 3 7 5c6 4 14 8 26 14c23 10 38 19 49 27c5 5 9 9 12 13c3 5 6 11 5 17l0 69c0 6-1 12-3 18c6-1 12-1 18-1c6 0 12 0 18 1c-2-6-4-12-4-18l0-70c0-5 3-11 6-16c3-4 7-9 12-13c11-8 26-17 49-27c12-6 20-10 26-14c3-2 6-3 7-5c-1 0-3 0-5 0z"/>
<glyph unicode="&#61685;" d="M268 433c-2 30-4 55-4 55l-1 10l-9 3c-1 0-34 11-73 11c-39 0-72-11-72-11l-9-3l-1-10c0 0-2-25-5-55c-2-30-4-64-4-84c0-12 5-23 11-32c9-12 21-21 29-27c4-4 8-7 9-9c1-1 1-1 2-2c0-4-1-15-2-28c-1-21-3-48-5-73c-1-26-3-50-3-64c0-19 4-45 10-67c4-11 8-21 13-30c3-4 6-8 11-11c4-4 10-6 16-6l0 0c7 0 13 2 17 6c4 2 7 6 9 9c5 7 8 14 11 22c9 24 13 55 13 77c0 10 0 23-1 39c-1 23-3 51-5 75c-1 12-2 24-2 32c-1 9-1 16-1 19c0 0 0 0 0 0c1 2 4 5 8 9c7 5 17 12 26 22c4 4 8 10 12 17c3 6 5 14 5 22c-1 20-3 54-5 84z m-30-99c-5-7-14-14-24-22c-4-4-9-7-13-12c-2-3-4-6-6-9c-1-3-2-7-2-12c0-6 1-16 1-30c2-21 4-48 5-73c2-26 3-49 3-62c0-16-3-40-8-59c-3-9-7-17-10-22c-1-2-2-3-3-4c-1 2-4 6-7 11c-4 9-8 23-10 36c-2 14-4 28-4 38c0 8 1 22 2 37c1 23 3 51 4 75c1 13 2 24 3 33c0 9 0 16 0 21c0 5-1 10-4 14c-4 7-9 12-15 16c-8 7-16 13-22 19c-3 4-5 7-7 10c-1 3-2 6-2 10c0 18 2 52 4 82c1 15 2 29 3 39c0 2 1 4 1 6c5 1 11 3 19 4l0-106c0-8 6-14 14-14c8 0 15 6 15 14l0 109c2 0 4 0 6 0c3 0 5 0 7 0l0-109c0-8 7-14 15-14c8 0 14 6 14 14l0 106c3-1 6-1 9-2c4-1 7-1 10-2c0-2 0-4 0-6c1-15 3-39 5-62c1-23 2-46 2-59c0-6-1-10-5-15z m91-333c-5 0-10 1-15 2c-5 2-9 5-12 8c-7 6-11 14-14 23c-6 17-7 36-7 56c0 11 2 26 4 44c2 17 5 37 8 55c5 32 11 61 12 68l0 254l15 0c13 0 24-5 35-13c11-8 21-19 31-32c19-27 33-63 34-103c0-26-7-48-15-67c-8-18-18-33-26-45c-5-7-9-14-10-18c-1-2-1-4-1-5c-1-3 1-10 3-17c3-8 6-17 9-26c7-20 15-42 15-66c0-15-2-32-7-48c-5-16-11-32-20-45c-6-8-13-16-22-21c-5-3-11-4-17-4c0 0 0 0 0 0z m6 253l0-1c0 0-1-5-2-12c-2-8-4-18-6-31c-4-24-9-55-12-80c-3-17-4-32-4-40c0-12 0-23 2-33c1-10 4-17 7-21c2-3 3-4 5-5c1 0 2 0 4 0c1 0 2 0 3 1c2 0 4 2 6 4c4 5 9 13 14 22c8 19 13 44 13 61c0 13-3 27-8 41c-4 15-10 29-14 42c-3 9-5 17-5 27c0 5 1 10 3 15c2 5 4 9 7 14c5 9 12 18 18 28c12 20 24 44 24 77c0 25-7 48-17 68c-11 19-24 34-36 43c0 0-1 1-2 1z m-15 227z"/>
<glyph unicode="&#61821;" d="M512 256c0 141-115 256-256 256c-141 0-256-115-256-256c0-141 115-256 256-256c141 0 256 115 256 256z m-143-196c-5 31-17 95-47 176c15 3 32 5 50 5c32 0 68-5 108-17c-3-19-8-38-16-56c-11-27-27-51-48-72c-14-14-30-26-47-36z m-258 22c30 40 62 78 102 107c24 17 50 31 80 40c8-22 15-42 21-61c12-40 19-74 23-96c2-11 3-20 3-26c-26-11-55-16-84-16c-31 0-60 6-88 18c-21 8-40 20-57 34z m55 381c34-47 61-93 83-136c-54-17-125-29-216-30c3 16 8 32 14 47c12 27 28 51 49 72c20 20 44 36 70 47z m169-100c-16-9-35-18-58-26c-22 43-49 90-82 137c20 5 40 8 61 8c31 0 60-6 88-18c24-10 46-24 65-42c-9-12-32-35-74-59z m-305-96c97 1 174 14 232 33c7-15 14-29 19-43c-32-10-60-25-85-44c-43-31-77-70-107-110c-18 19-32 41-42 65c-11 28-17 57-17 88c0 4 0 8 0 11z m342 3c-22 0-42-2-62-6c-6 15-12 30-20 46c24 9 45 19 63 29c41 23 65 47 77 61c14-17 26-36 34-56c12-28 18-58 18-88c0-1 0-1 0-1c-40 10-76 15-110 15l0 0z"/>
<glyph unicode="&#61459;" d="M181 256c0 41 34 75 75 75c41 0 75-34 75-75c0-41-34-75-75-75c-41 0-75 34-75 75z m42 33c-8-9-13-20-13-33c0-13 5-24 13-33c9-8 20-13 33-13c13 0 24 5 33 13c8 9 13 20 13 33c0 13-5 24-13 33c-9 8-20 13-33 13c-13 0-24-5-33-13z m12-289c-6 0-12 2-16 6c-4 4-8 9-8 16l-8 58c-12 4-23 9-34 15l-46-37c-5-3-10-5-16-5c-6 0-12 2-17 7l-30 30c-5 5-7 11-7 17c0 5 2 11 5 15l37 47c-6 11-11 22-15 34l-58 7c-7 1-12 4-16 9c-3 4-6 10-6 16l0 42c0 6 3 12 6 16c4 4 9 8 16 8l58 8c4 12 9 23 15 34l-37 46c-3 5-5 10-5 16c0 6 2 12 7 17l30 30c5 5 11 7 17 7c6 0 11-2 16-5l46-37c11 6 22 11 34 15l8 58c0 7 4 12 8 16c4 3 10 6 16 6l42 0c6 0 12-3 16-6c5-4 8-9 9-16l7-58c12-4 23-9 34-15l46 37c5 3 11 5 16 5c6 0 12-2 17-7l30-30c5-5 7-11 7-17c0-6-2-11-5-16l-37-46c6-11 11-22 15-34l58-8c7 0 12-4 16-8c4-4 6-10 6-16l0-42c0-6-2-12-6-16c-4-5-9-8-16-9l-58-7c-4-12-9-23-15-34l37-47c3-4 5-10 5-15c0-6-2-12-7-17l-30-30c-5-5-11-7-17-7c-5 0-11 2-15 5l-47 37c-11-6-22-11-34-15l-7-58c-1-7-4-12-9-16c-4-4-10-6-16-6z m39 28l9 75l9 2c16 4 31 10 45 19l8 5l60-47l25 25l-47 60l5 8c9 14 15 29 19 45l2 9l75 9l0 36l-75 9l-2 9c-4 16-10 31-19 45l-5 8l47 60l-25 25l-60-47l-8 5c-14 9-29 15-45 19l-9 2l-9 75l-36 0l-9-75l-9-2c-16-4-31-10-45-19l-8-5l-60 47l-25-25l47-60l-5-8c-9-14-15-29-19-45l-2-9l-75-9l0-36l75-9l2-9c4-16 10-31 19-45l5-8l-47-60l25-25l60 47l8-5c14-9 29-15 45-19l9-2l9-75z"/>
<glyph unicode="&#61608;" d="M241 138l-103 103l278 0l0 30l-278 0l103 102l-21 22l-115-114c-6-7-10-16-10-25l0 0c0-9 4-18 10-25l115-114z m271 118c0-141-115-256-256-256c-141 0-256 115-256 256c0 141 115 256 256 256c141 0 256-115 256-256m-30 0c0 30-6 60-18 88c-11 27-27 51-48 72c-21 21-45 37-72 48c-28 12-57 18-88 18c-30 0-60-6-88-18c-27-11-51-28-72-48c-20-21-37-45-48-72c-12-28-18-57-18-88c0-31 6-60 18-88c11-27 28-51 48-72c21-21 45-37 72-48c28-12 58-18 88-18c31 0 60 6 88 18c27 11 51 27 72 48c21 21 37 45 48 72c12 28 18 57 18 88z"/>
<glyph unicode="&#61485;" d="M450 464c0 0-134 0-164 0c-5 0-10-1-14-2c-2-1-4-1-6-2c-1-1-3-2-4-3c-2 0-3-1-4-2c-1-1-2-2-2-2c-2 1-4 3-6 4c-2 2-5 3-9 4c-1 1-2 1-3 1c-4 1-8 2-13 2c-30 0-164 0-164 0c-33 0-61-28-61-62l0-268c0-33 28-61 61-61l22 0c39 0 117 0 143 0c25 0 30-25 30-25c0 0 3 25 30 25c27 0 164 0 164 0c34 0 61 28 61 61l0 268c0 34-27 62-61 62z m-389-363c-9 0-17 4-23 10c-6 6-10 14-10 23l0 268c0 10 4 18 10 24c6 6 14 9 23 9l165 0c2 0 4 0 5 0c1 0 1 0 1 0c1-1 2-1 3-2c1 0 1-1 2-1c0-1 1-1 1-2c1-2 2-4 3-5c0-2 0-3 1-3l0-321l-16 0c-31 0-165 0-165 0z m422 33c0-9-3-17-9-23c-6-6-15-10-24-10c0 0-134 0-164 0l-16 0l0 320c0 0 0 1 1 2c0 0 0 1 0 1c0 1 0 2 1 3c0 1 1 2 1 3c0 0 1 0 1 1c1 1 1 1 2 2c0 0 1 0 1 0c0 1 1 1 1 1c1 0 1 1 2 1c2 0 4 1 6 1l164 0c10 0 18-4 24-10c6-6 9-14 9-23l0-269z"/>
<glyph unicode="&#61568;" d="M154 341c10 0 18-8 18-17l0-277c0-10-8-18-18-18l-106 0c-10 0-18 8-18 18l0 277c0 9 8 17 18 17l106 0m-9-26l-88 0l0-259l88 0z m151-87c10 0 18-8 18-18l0-163c0-10-8-18-18-18l-78 0c-10 0-18 8-18 18l0 163c0 10 8 18 18 18l78 0m-9-27l-60 0l0-145l60 0z m180 282c9 0 17-7 17-17l0-419c0-10-8-18-17-18l-107 0c-10 0-18 8-18 18l0 419c0 10 8 17 18 17l107 0m-9-26l-89 0l0-401l89 0z"/>
<glyph unicode="&#61560;" d="M508 384l-55 47c-4 4-11 3-15-1l-182-213l-182 213c-2 2-5 3-7 3c-3 1-6 0-8-2l-55-47c-5-4-5-11-1-15l245-287c2-2 5-3 8-3c3 0 6 1 8 3l245 287c2 2 3 5 3 7c0 3-2 6-4 8z"/>
<glyph unicode="&#61570;" d="M410 250l7 62l-57 0l0 31c0 10 1 16 4 20c3 4 10 6 21 6l31 0l0 62l-50 0c-29 0-49-7-62-20c-13-14-19-34-19-61l0-38l-37 0l0-62l37 0l0-182l75 0l0 182z m65 143l0-274c0-23-8-42-24-58c-16-16-35-24-58-24l-274 0c-23 0-42 8-58 24c-16 16-24 35-24 58l0 274c0 23 8 42 24 58c16 16 35 24 58 24l274 0c23 0 42-8 58-24c16-16 24-35 24-58z"/>
<glyph unicode="&#61524;" d="M392 256c0-9-3-18-10-25l-225-231l-21 22l225 231c0 1 1 2 1 3c0 1-1 2-1 2l-225 232l21 22l225-231c7-7 10-16 10-25z"/>
<glyph unicode="&#61523;" d="M110 256c0 9 3 18 10 25l225 231l21-22l-225-232c0 0-1-1-1-2c0-1 1-2 1-3l225-231l-21-22l-225 231c-7 7-10 16-10 25c0 0 0 0 0 0z"/>
<glyph unicode="&#61504;" d="M499 487c-2 2-4 5-6 7c-3 3-5 4-8 6c-26 21-46 16-92-30l-339-339c-3-3-6-7-8-11c0-2-1-3-1-4l-42-104l-2-4c-1-3-1-5 0-6c1 0 3-1 5 1l4 1l104 42c1 1 3 1 4 2c4 2 8 4 11 8l339 339c46 45 51 66 31 92z m-187-206l-183-183c-15-15-35-21-45-12c-9 9-3 29 12 45l278 277c4 5 9 10 15 15l32-33l-28-27z m156 156l-26-26l-32 33c9 10 18 19 25 25c22 22 36 4 36 4c0 0 19-14-3-36z"/>
<glyph unicode="&#43;" d="M491 277l-213 0l0 214c0 11-10 21-21 21c0 0 0 0 0 0c-12 0-22-10-22-21l0-214l-214 0c-11 0-21-9-21-21c0-12 10-21 21-21l214 0l0-214c0-11 9-21 21-21l0 0c12 0 21 10 21 21l1 214l213 0c12 0 21 9 21 21c0 12-9 21-21 21z"/>
<glyph unicode="&#61701;" d="M335 238c0-3-1-5-3-7l-133-133c-2-2-5-3-7-3c-2 0-5 1-7 3l-14 14c-2 2-3 4-3 7c0 2 1 5 3 6l112 113l-112 112c-2 2-3 4-3 7c0 2 1 4 3 6l14 14c2 2 5 3 7 3c2 0 5-1 7-3l133-133c2-2 3-4 3-6z"/>
<glyph unicode="&#61700;" d="M344 357c0-3-1-5-3-7l-112-112l112-113c2-1 3-4 3-6c0-3-1-5-3-7l-14-14c-2-2-5-3-7-3c-2 0-5 1-7 3l-133 133c-2 2-3 4-3 7c0 2 1 4 3 6l133 133c2 2 5 3 7 3c2 0 5-1 7-3l14-14c2-2 3-4 3-6z"/>
<glyph unicode="&#61703;" d="M266 125l203 203c6 6 6 15 0 21c-6 6-15 6-21 0l-192-192l-192 191c-6 6-15 6-21 0c-6-6-6-15 0-21l202-202c3-3 7-5 11-5c4 0 7 2 10 5z"/>
<glyph unicode="&#61456;" d="M217 256l213 182c4 4 5 11 1 15l-47 55c-4 5-11 5-15 1l-287-245c-2-2-3-5-3-8c0-3 1-6 3-8l287-245c2-2 4-3 7-3c0 0 0 0 0 0c3 0 6 2 8 4l47 55c4 4 3 11-1 15z m157-230l-268 230l268 230l34-39l-214-183c-3-2-4-5-4-8c0-3 1-6 4-8l214-183z"/>
<glyph unicode="&#61472;" d="M430 264l-287 245c-2 2-4 3-7 3c-3 0-6-2-8-4l-47-55c-4-4-3-11 1-15l213-182l-213-182c-4-4-5-11-1-15l47-55c2-3 5-4 8-4c3 0 5 1 7 3l287 245c2 2 3 5 3 8c0 3-1 6-3 8z m-292-238l-34 39l214 183c3 2 4 5 4 8c0 3-1 6-4 8l-214 183l34 39l268-230z"/>
<glyph unicode="&#61441;" d="M217 256l213 182c4 4 5 11 1 15l-47 55c-4 5-11 5-15 1l-287-245c-2-2-3-5-3-8c0-3 1-6 3-8l287-245c2-2 4-3 7-3c0 0 0 0 0 0c3 0 6 2 8 4l47 55c4 4 3 11-1 15z"/>
<glyph unicode="&#61442;" d="M430 264l-287 245c-2 2-4 3-7 3c-3 0-6-2-8-4l-47-55c-4-4-3-11 1-15l213-182l-213-182c-4-4-5-11-1-15l47-55c2-3 5-4 8-4c3 0 5 1 7 3l287 245c2 2 3 5 3 8c0 3-1 6-3 8z"/>
<glyph unicode="&#61813;" d="M437 512l-362 0c-6 0-11-5-11-11l0-330c0-3 1-6 4-8l181-160c2-2 4-3 7-3c3 0 5 1 7 3l181 160c3 2 4 5 4 8l0 330c0 6-5 11-11 11z m-10-337l-171-150l-171 150l0 316l342 0z"/>
<glyph unicode="&#57717;" d="M437 512l-362 0c-6 0-11-5-11-11l0-330c0-3 1-6 4-8l181-160c2-2 4-3 7-3c3 0 5 1 7 3l181 160c3 2 4 5 4 8l0 330c0 6-5 11-11 11z"/>
<glyph unicode="&#98;" d="M256 491c-118 0-213-96-213-214l0-53c0-61 47-111 106-117l0-96c0-6 5-11 11-11c6 0 11 5 11 11l0 117l-11 0c-53 0-96 43-96 96l0 53c0 8 0 15 1 22c42 0 84 30 84 96c0 6-4 10-10 10c-6 0-11-4-11-10c0-52-31-73-59-75c20 85 96 149 187 149c91 0 167-64 187-149c-29 2-59 22-59 75c0 6-5 10-11 10c-6 0-10-4-10-10c0-67 42-96 84-96c1-7 1-14 1-22l0-53c0-53-43-96-96-96l-11 0l0-117c0-6 5-11 11-11c6 0 11 5 11 11l0 96c59 6 106 56 106 117l0 53c0 118-95 214-213 214z m-32-363c-6 0-11-5-11-11l0-106c0-6 5-11 11-11c6 0 11 5 11 11l0 106c0 6-5 11-11 11z m64 0c-6 0-11-5-11-11l0-106c0-6 5-11 11-11c6 0 11 5 11 11l0 106c0 6-5 11-11 11z m139 96c0 41-34 75-75 75c-41 0-75-34-75-75c0-41 34-75 75-75c41 0 75 34 75 75z m-128 0c0 29 24 53 53 53c29 0 53-24 53-53c0-29-24-53-53-53c-29 0-53 24-53 53z m-139 75c-41 0-75-34-75-75c0-41 34-75 75-75c41 0 75 34 75 75c0 41-34 75-75 75z m0-128c-29 0-53 24-53 53c0 29 24 53 53 53c29 0 53-24 53-53c0-29-24-53-53-53z m115-5l-9 20c-4 7-16 7-20 0l-10-21c-2-4-2-7 0-11c2-3 6-5 9-5l22 0c0 0 0 0 0 0c6 0 11 5 11 11c0 2-1 5-3 6z"/>
</font>
</defs>
</svg>
