<?xml version="1.0" encoding="UTF-8" ?>
<!DOCTYPE svg PUBLIC "-//W3C//DTD SVG 1.1//EN" "http://www.w3.org/Graphics/SVG/1.1/DTD/svg11.dtd">
<svg width="4054pt" height="4791pt" viewBox="0 0 4054 4791" version="1.1" xmlns="http://www.w3.org/2000/svg">
<g id="#000000ff">
<path fill="#000000" opacity="1.00" d=" M 2850.57 0.00 L 2899.45 0.00 C 2966.43 1.19 3033.25 6.50 3099.99 12.08 C 3153.43 15.82 3206.68 21.86 3260.07 26.21 C 3286.35 28.49 3312.69 29.79 3339.03 31.17 C 3365.34 32.16 3391.66 33.39 3418.01 33.33 C 3443.33 33.93 3468.66 33.39 3493.99 33.17 C 3506.99 33.17 3519.97 32.09 3532.99 32.07 C 3544.99 31.24 3557.03 31.25 3569.01 30.10 C 3608.07 26.07 3647.78 27.14 3686.26 18.35 C 3693.31 16.93 3700.09 14.45 3707.11 12.88 C 3703.19 16.42 3698.88 19.48 3694.79 22.78 C 3604.33 93.93 3521.72 175.75 3454.00 269.01 C 3444.69 282.03 3435.50 295.13 3425.95 307.97 C 3357.87 402.14 3299.21 502.63 3233.15 598.18 C 3189.50 661.08 3142.43 721.98 3087.86 775.86 C 3060.54 803.09 3031.08 828.13 3000.13 851.13 C 2865.10 951.76 2701.33 1014.31 2533.09 1025.77 C 2507.78 1027.21 2482.39 1028.44 2457.05 1027.06 C 2426.74 1026.35 2396.52 1023.16 2366.60 1018.34 C 2316.22 1010.99 2266.19 1000.64 2217.57 985.47 C 2162.33 968.23 2108.80 944.62 2060.54 912.51 C 2058.83 911.48 2057.36 909.98 2057.27 907.90 C 2037.48 793.22 2046.83 674.14 2081.11 563.11 C 2103.32 490.81 2136.08 421.79 2177.68 358.64 C 2241.02 263.23 2325.41 181.97 2422.79 121.76 C 2507.96 69.26 2602.81 32.37 2701.24 14.24 C 2750.48 5.02 2800.56 1.35 2850.57 0.00 Z" />
<path fill="#000000" opacity="1.00" d=" M 1608.90 425.11 C 1701.15 426.52 1792.78 412.35 1885.00 412.36 C 1898.53 412.17 1912.04 413.18 1925.58 413.40 C 1938.01 463.52 1949.36 513.91 1959.22 564.60 C 1977.76 660.37 1990.76 757.45 1993.22 855.05 C 1994.47 883.01 1993.15 911.01 1993.73 938.99 C 1993.69 988.80 1989.99 1038.54 1984.10 1087.98 C 1975.82 1159.26 1963.25 1229.95 1953.80 1301.07 C 2123.38 1273.89 2288.18 1223.73 2457.09 1193.13 C 2556.24 1175.03 2657.19 1164.06 2758.07 1168.65 C 2806.64 1170.92 2854.95 1177.44 2902.72 1186.40 C 2948.37 1195.06 2993.48 1206.46 3037.86 1220.19 C 3114.43 1244.09 3189.07 1274.48 3260.05 1311.91 C 3394.59 1383.07 3515.11 1479.10 3619.54 1589.48 C 3727.33 1703.72 3817.26 1834.65 3886.32 1975.68 C 3944.02 2092.10 3987.31 2215.73 4014.01 2342.93 C 4040.85 2472.11 4053.54 2604.11 4053.67 2736.00 C 4053.67 2914.53 4030.64 3092.85 3988.14 3266.18 C 3956.70 3394.52 3914.61 3520.22 3862.70 3641.72 C 3768.32 3862.95 3641.93 4070.42 3489.24 4256.24 C 3451.84 4301.63 3413.11 4345.96 3372.40 4388.42 C 3310.24 4453.99 3245.62 4517.52 3175.07 4574.10 C 3080.27 4650.09 2973.77 4712.80 2858.16 4751.16 C 2791.88 4772.97 2722.72 4786.90 2652.90 4789.36 C 2642.39 4790.20 2631.77 4789.33 2621.34 4791.00 L 2520.58 4791.00 C 2512.73 4790.39 2504.86 4790.77 2497.02 4790.45 C 2487.00 4790.07 2476.98 4789.78 2466.96 4789.73 C 2264.76 4784.07 2063.27 4763.34 1860.99 4759.84 C 1823.66 4759.40 1786.33 4759.40 1749.00 4759.87 C 1695.26 4761.08 1641.55 4763.72 1588.02 4768.74 C 1553.76 4772.32 1519.36 4774.32 1484.94 4775.39 C 1387.25 4777.98 1288.67 4770.17 1194.00 4744.95 C 1117.33 4724.52 1043.28 4692.52 978.27 4646.72 C 962.68 4635.86 948.21 4623.53 933.46 4611.59 C 569.18 4312.53 289.45 3911.69 134.43 3466.60 C 75.78 3298.00 35.03 3123.10 14.41 2945.76 C 8.62 2895.02 4.47 2844.08 2.19 2793.06 C 1.04 2771.53 0.76 2749.96 0.00 2728.42 L 0.00 2657.58 C 0.89 2626.74 1.69 2595.88 3.66 2565.09 C 12.29 2419.61 35.96 2274.91 75.72 2134.67 C 99.00 2052.17 127.86 1971.20 163.09 1893.03 C 225.85 1753.99 307.96 1622.92 411.41 1510.47 C 461.58 1456.05 516.75 1406.16 576.68 1362.68 C 642.11 1315.30 713.38 1275.79 788.85 1246.87 C 872.24 1214.98 960.71 1195.51 1050.07 1192.80 C 1073.06 1191.59 1096.10 1192.44 1119.06 1193.72 C 1169.01 1196.54 1218.67 1203.23 1267.86 1212.21 C 1358.40 1228.70 1447.33 1252.60 1537.00 1273.03 C 1628.98 1294.04 1722.42 1311.49 1817.02 1313.20 C 1841.02 1313.43 1865.07 1313.38 1888.99 1311.14 C 1888.81 1234.56 1872.89 1159.31 1858.79 1084.39 C 1829.30 929.13 1779.77 777.98 1715.22 633.84 C 1683.38 562.50 1647.49 493.02 1608.90 425.11 M 1986.01 1552.90 C 1985.73 1616.26 1985.93 1679.63 1985.87 1743.00 C 1985.89 1799.03 1985.82 1855.06 1985.91 1911.10 C 2011.49 1911.13 2037.09 1911.03 2062.67 1910.93 C 2062.47 1899.28 2062.63 1887.64 2062.58 1876.00 C 2062.64 1768.36 2062.46 1660.72 2062.67 1553.08 C 2037.12 1552.61 2011.56 1552.97 1986.01 1552.90 M 1856.03 1563.00 C 1861.78 1618.06 1867.60 1673.13 1873.06 1728.23 C 1881.04 1727.81 1889.00 1727.04 1897.01 1726.73 C 1891.59 1671.69 1885.35 1616.74 1879.94 1561.70 C 1871.94 1561.57 1864.01 1562.85 1856.03 1563.00 M 2168.88 1562.34 C 2168.32 1564.87 2167.94 1567.44 2167.77 1570.05 C 2162.54 1622.65 2156.91 1675.20 2151.78 1727.80 C 2159.76 1727.66 2167.94 1729.17 2175.75 1726.78 C 2180.60 1682.53 2184.86 1638.22 2189.25 1593.93 C 2190.15 1583.39 2191.75 1572.90 2192.16 1562.33 C 2184.39 1562.47 2176.63 1562.46 2168.88 1562.34 M 1701.33 1589.22 C 1712.51 1642.92 1724.35 1696.49 1735.38 1750.22 C 1743.41 1749.82 1751.22 1747.71 1759.20 1746.83 C 1748.02 1692.50 1735.92 1638.36 1724.66 1584.05 C 1716.84 1585.60 1709.13 1587.63 1701.33 1589.22 M 2324.06 1584.11 C 2312.49 1638.73 2300.74 1693.31 2289.11 1747.92 C 2297.01 1749.74 2304.84 1751.94 2312.84 1753.35 C 2324.06 1698.58 2335.82 1643.91 2347.08 1589.15 C 2339.41 1587.42 2331.75 1585.69 2324.06 1584.11 M 1550.28 1631.24 C 1567.23 1683.56 1584.42 1735.80 1601.40 1788.11 C 1608.99 1785.96 1616.36 1783.09 1623.92 1780.85 C 1607.00 1728.55 1590.18 1676.22 1573.05 1623.99 C 1565.45 1626.39 1557.91 1628.95 1550.28 1631.24 M 2475.41 1624.16 C 2458.55 1677.41 2440.76 1730.38 2423.97 1783.65 C 2431.62 1785.64 2439.04 1788.46 2446.75 1790.27 C 2457.61 1756.36 2468.75 1722.53 2479.75 1688.67 C 2485.81 1669.46 2492.48 1650.45 2498.28 1631.17 C 2490.63 1628.91 2483.12 1626.21 2475.41 1624.16 M 2622.28 1678.75 C 2599.77 1730.13 2576.55 1781.19 2554.20 1832.64 C 2561.30 1835.54 2568.02 1839.33 2575.10 1842.30 C 2577.36 1839.90 2578.13 1836.47 2579.62 1833.57 C 2585.39 1820.67 2591.18 1807.78 2596.90 1794.86 C 2612.57 1759.30 2628.80 1723.99 2644.18 1688.31 C 2636.80 1685.30 2629.75 1681.52 2622.28 1678.75 M 1404.65 1688.08 C 1406.98 1695.40 1410.72 1702.22 1413.65 1709.33 C 1432.83 1752.55 1452.27 1795.65 1471.30 1838.93 C 1478.66 1835.77 1485.84 1832.22 1493.10 1828.83 C 1472.74 1782.94 1452.28 1737.10 1431.78 1691.28 C 1429.75 1687.43 1428.74 1682.93 1426.01 1679.54 C 1418.79 1682.08 1411.63 1684.93 1404.65 1688.08 M 1296.31 1742.31 C 1278.50 1752.57 1260.83 1763.08 1242.95 1773.23 C 1247.21 1780.87 1251.64 1788.42 1255.98 1796.02 C 1311.30 1891.88 1366.47 1987.82 1421.94 2083.59 C 1443.75 2071.19 1465.37 2058.45 1487.08 2045.88 C 1427.58 1942.50 1367.66 1839.36 1308.35 1735.88 C 1304.00 1737.35 1300.28 1740.09 1296.31 1742.31 M 2730.11 1754.05 C 2673.76 1851.19 2617.82 1948.57 2561.83 2045.91 C 2583.39 2058.62 2605.09 2071.10 2626.71 2083.72 C 2667.55 2013.19 2708.25 1942.58 2748.93 1871.96 C 2767.76 1839.00 2787.02 1806.26 2805.63 1773.19 C 2791.02 1764.41 2776.05 1756.23 2761.35 1747.59 C 2754.48 1743.84 2748.03 1739.32 2741.00 1735.89 C 2736.85 1741.60 2733.86 1748.08 2730.11 1754.05 M 1134.74 1847.32 C 1146.88 1864.75 1159.68 1881.72 1172.06 1898.98 C 1191.70 1925.82 1211.06 1952.88 1230.82 1979.63 C 1237.28 1975.05 1243.46 1970.09 1250.02 1965.66 C 1218.12 1921.32 1185.64 1877.39 1153.70 1833.07 C 1147.31 1837.73 1141.06 1842.58 1134.74 1847.32 M 2894.30 1833.78 C 2861.39 1879.33 2828.39 1924.81 2795.39 1970.28 C 2801.71 1975.11 2808.14 1979.89 2814.93 1984.04 C 2826.11 1969.15 2836.74 1953.82 2847.77 1938.80 C 2869.82 1908.14 2892.24 1877.72 2914.13 1846.95 C 2912.98 1845.35 2911.15 1844.49 2909.61 1843.42 C 2904.46 1840.26 2899.53 1836.77 2894.30 1833.78 M 1024.65 1936.67 C 1021.05 1940.31 1016.92 1943.42 1013.72 1947.45 C 1048.30 1985.52 1082.50 2023.92 1117.12 2061.95 C 1119.05 2063.90 1120.56 2066.42 1122.98 2067.85 C 1126.56 2065.17 1129.55 2061.80 1132.94 2058.90 C 1135.36 2056.63 1138.17 2054.72 1140.16 2052.03 C 1124.91 2034.60 1109.11 2017.64 1093.70 2000.34 C 1072.71 1977.32 1052.06 1953.97 1030.97 1931.05 C 1028.50 1932.46 1026.73 1934.78 1024.65 1936.67 M 3017.26 1931.18 C 2979.57 1973.13 2941.78 2015.01 2904.17 2057.03 C 2909.79 2062.56 2916.03 2067.45 2922.02 2072.60 C 2935.63 2057.99 2948.75 2042.92 2962.22 2028.17 C 2986.49 2001.04 3011.01 1974.11 3035.18 1946.90 C 3029.87 1941.00 3023.09 1936.56 3017.26 1931.18 M 919.16 2041.01 C 914.00 2046.87 908.93 2052.87 904.16 2059.06 C 906.93 2062.22 910.35 2064.74 913.39 2067.66 C 950.28 2100.78 986.90 2134.23 1024.04 2167.06 C 1029.70 2161.52 1035.11 2155.64 1040.19 2149.56 C 1009.68 2122.50 979.61 2094.96 949.25 2067.74 C 939.15 2058.91 929.55 2049.48 919.16 2041.01 M 3113.77 2054.76 C 3083.34 2082.31 3052.85 2109.81 3022.37 2137.31 C 3016.14 2143.29 3009.24 2148.61 3003.37 2154.94 C 3008.40 2160.97 3014.15 2166.37 3019.48 2172.15 C 3032.27 2161.09 3044.53 2149.43 3057.18 2138.21 C 3086.45 2111.69 3115.68 2085.12 3145.04 2058.69 C 3139.84 2052.75 3134.48 2046.94 3129.47 2040.86 C 3123.97 2045.18 3119.07 2050.20 3113.77 2054.76 M 2635.73 2160.72 C 2628.18 2168.02 2622.69 2177.05 2616.33 2185.33 C 2423.54 2445.41 2230.84 2705.56 2037.96 2965.57 C 2013.58 2963.58 1988.26 2970.61 1969.28 2986.25 C 1956.12 2997.39 1945.75 3012.08 1940.71 3028.65 C 1934.61 3048.05 1935.55 3069.21 1941.87 3088.43 C 1888.69 3119.30 1835.69 3150.52 1782.57 3181.50 C 1642.28 3263.57 1501.96 3345.59 1361.65 3427.63 C 1292.12 3468.20 1222.73 3509.03 1153.11 3549.44 C 1158.03 3558.88 1163.70 3567.92 1169.08 3577.11 C 1417.30 3432.02 1665.41 3286.76 1913.70 3141.79 C 1928.71 3133.19 1943.44 3124.09 1958.62 3115.81 C 1968.48 3126.68 1980.90 3135.24 1994.67 3140.37 C 2014.43 3147.95 2036.78 3148.61 2056.95 3142.16 C 2203.01 3280.39 2349.04 3418.65 2495.18 3556.79 C 2500.49 3561.92 2505.73 3567.43 2512.57 3570.54 C 2528.87 3578.61 2549.98 3575.90 2563.25 3563.28 C 2579.57 3548.81 2581.98 3522.09 2569.74 3504.33 C 2566.32 3499.14 2561.40 3495.28 2556.98 3491.05 C 2410.40 3352.20 2263.65 3213.53 2117.05 3074.71 C 2117.06 3069.11 2117.97 3063.57 2118.00 3058.00 C 2117.71 3046.91 2116.24 3035.84 2112.98 3025.23 C 2146.31 3005.67 2179.66 2986.14 2213.08 2966.73 C 2207.82 2957.53 2202.51 2948.36 2197.03 2939.31 C 2181.00 2948.22 2165.37 2957.84 2149.55 2967.09 C 2151.99 2962.52 2155.51 2958.66 2158.49 2954.46 C 2340.46 2709.67 2521.74 2464.37 2703.54 2219.46 C 2710.98 2208.11 2713.72 2193.46 2709.65 2180.39 C 2705.80 2167.40 2695.61 2156.78 2683.06 2151.88 C 2667.37 2145.22 2647.84 2148.60 2635.73 2160.72 M 813.36 2171.38 C 811.12 2174.89 808.34 2178.05 806.42 2181.76 C 832.04 2200.80 858.02 2219.37 883.79 2238.22 C 901.42 2250.85 918.70 2264.00 936.59 2276.26 C 941.26 2269.87 946.41 2263.84 950.98 2257.38 C 907.14 2225.94 863.87 2193.65 819.91 2162.38 C 817.23 2164.98 815.52 2168.37 813.36 2171.38 M 3135.20 2230.22 C 3120.82 2240.87 3106.04 2251.04 3091.93 2262.01 C 3095.85 2268.35 3100.32 2274.37 3104.69 2280.43 C 3105.43 2281.94 3106.92 2280.32 3107.85 2279.86 C 3152.89 2247.08 3197.76 2214.06 3242.96 2181.49 C 3239.88 2176.81 3236.18 2172.59 3232.89 2168.09 C 3231.37 2166.22 3230.13 2164.04 3228.11 2162.74 C 3197.06 2185.10 3166.19 2207.75 3135.20 2230.22 M 746.08 2270.72 C 735.61 2288.47 725.50 2306.44 715.22 2324.30 C 713.05 2328.29 710.35 2332.04 708.86 2336.38 C 734.34 2350.74 759.55 2365.61 784.93 2380.17 C 829.50 2405.92 874.05 2431.70 918.63 2457.43 C 952.00 2476.62 985.18 2496.14 1018.70 2515.04 C 1030.92 2493.22 1043.60 2471.66 1056.01 2449.95 C 1037.56 2439.02 1018.89 2428.45 1000.35 2417.65 C 915.58 2368.70 830.91 2319.56 746.08 2270.72 M 3258.29 2296.26 C 3203.60 2327.91 3148.90 2359.54 3094.18 2391.15 C 3060.39 2410.61 3026.76 2430.37 2992.85 2449.63 C 2994.34 2453.96 2997.08 2457.70 2999.32 2461.69 C 3009.60 2479.53 3020.06 2497.27 3030.32 2515.12 C 3133.76 2455.49 3237.05 2395.60 3340.37 2335.78 C 3328.03 2314.01 3314.91 2292.68 3302.52 2270.93 C 3287.56 2278.96 3273.08 2287.90 3258.29 2296.26 M 3232.07 2502.00 C 3235.83 2508.95 3239.41 2516.01 3243.13 2523.01 C 3294.18 2500.27 3345.17 2477.37 3396.26 2454.72 C 3393.87 2447.05 3390.59 2439.69 3387.77 2432.19 C 3335.90 2455.53 3283.74 2478.23 3232.07 2502.00 M 652.25 2454.73 C 700.88 2476.06 749.22 2498.08 797.87 2519.37 C 801.09 2512.23 804.60 2505.21 807.54 2497.96 C 805.24 2496.19 802.45 2495.30 799.86 2494.11 C 775.62 2483.33 751.39 2472.54 727.15 2461.78 C 705.07 2452.11 683.18 2441.93 660.96 2432.61 C 657.53 2439.74 655.16 2447.36 652.25 2454.73 M 604.08 2578.68 C 601.58 2586.15 599.38 2593.71 596.92 2601.20 C 627.00 2611.21 657.21 2620.84 687.34 2630.74 C 707.87 2637.20 728.18 2644.39 748.83 2650.46 C 751.10 2642.95 753.71 2635.55 756.08 2628.08 C 705.45 2611.48 654.80 2594.97 604.08 2578.68 M 3406.84 2590.79 C 3365.86 2604.23 3324.81 2617.45 3283.89 2631.04 C 3286.23 2638.52 3288.81 2645.94 3291.14 2653.45 C 3301.43 2650.59 3311.45 2646.86 3321.67 2643.73 C 3365.08 2629.51 3408.53 2615.42 3451.90 2601.08 C 3449.49 2593.64 3446.77 2586.31 3444.70 2578.77 C 3431.89 2582.13 3419.51 2586.96 3406.84 2590.79 M 562.12 2730.01 C 560.56 2737.67 558.73 2745.27 557.26 2752.95 C 599.44 2762.18 641.71 2771.05 683.91 2780.21 C 693.50 2782.08 702.96 2784.72 712.66 2786.08 C 714.67 2778.35 716.85 2770.68 718.98 2763.00 C 666.71 2751.92 614.45 2740.79 562.12 2730.01 M 3320.89 2765.00 C 3322.90 2772.74 3324.79 2780.53 3327.04 2788.22 C 3381.83 2776.59 3436.57 2764.72 3491.34 2753.01 C 3490.32 2747.09 3488.77 2741.29 3487.62 2735.42 C 3486.84 2733.75 3487.45 2729.93 3485.01 2730.12 C 3430.29 2741.67 3375.56 2753.24 3320.89 2765.00 M 535.91 2884.85 C 535.86 2892.83 535.79 2900.82 535.96 2908.82 C 587.97 2914.05 639.96 2919.55 691.94 2925.07 C 692.67 2917.01 693.93 2909.00 694.27 2900.92 C 641.50 2895.40 588.70 2890.23 535.91 2884.85 M 3492.85 2886.62 C 3442.88 2891.77 3392.96 2897.35 3342.98 2902.37 C 3344.47 2910.23 3346.39 2918.00 3348.19 2925.80 C 3380.12 2922.48 3412.05 2919.15 3443.98 2915.81 C 3467.34 2913.21 3490.77 2911.18 3514.09 2908.28 C 3513.03 2900.47 3513.28 2892.58 3512.78 2884.75 C 3506.09 2884.97 3499.48 2885.96 3492.85 2886.62 M 526.23 3014.99 C 526.28 3040.40 526.31 3065.81 526.22 3091.23 C 540.14 3091.54 554.07 3091.28 568.00 3091.36 C 673.26 3091.27 778.53 3091.54 883.78 3091.23 C 883.69 3065.84 883.74 3040.46 883.67 3015.08 C 875.79 3014.64 867.89 3014.95 860.00 3014.87 C 748.74 3014.95 637.48 3014.70 526.23 3014.99 M 3164.91 3014.91 C 3164.84 3040.36 3164.84 3065.83 3164.91 3091.29 C 3259.94 3091.46 3354.97 3091.31 3450.00 3091.36 C 3474.22 3091.22 3498.45 3091.64 3522.67 3091.16 C 3522.52 3065.80 3522.52 3040.43 3522.67 3015.08 C 3511.78 3014.61 3500.88 3014.99 3490.00 3014.87 C 3381.64 3014.89 3273.27 3014.82 3164.91 3014.91 M 3347.96 3180.95 C 3346.98 3188.81 3345.32 3196.61 3345.01 3204.55 C 3390.05 3208.87 3435.04 3213.75 3480.07 3218.24 C 3490.93 3219.16 3501.76 3220.88 3512.68 3221.20 C 3512.31 3213.36 3512.93 3205.49 3512.38 3197.67 C 3507.98 3196.70 3503.46 3196.80 3499.05 3196.17 C 3448.68 3191.11 3398.38 3185.38 3347.96 3180.95 M 607.02 3190.17 C 582.82 3192.90 558.51 3194.90 534.36 3198.07 C 535.11 3205.93 535.60 3213.84 536.76 3221.67 C 589.06 3216.16 641.42 3211.04 693.68 3205.21 C 693.09 3198.13 692.36 3191.07 691.85 3184.01 C 692.01 3182.25 690.85 3180.98 689.11 3181.65 C 661.73 3184.31 634.39 3187.41 607.02 3190.17 M 3327.23 3318.60 C 3325.85 3326.42 3323.88 3334.12 3322.33 3341.91 C 3367.47 3351.35 3412.61 3360.85 3457.75 3370.31 C 3467.38 3372.17 3476.90 3374.72 3486.63 3376.08 C 3487.91 3368.36 3490.14 3360.84 3491.33 3353.12 C 3446.07 3343.60 3400.86 3333.88 3355.62 3324.30 C 3346.13 3322.49 3336.80 3319.78 3327.23 3318.60 M 557.18 3353.20 C 558.69 3360.94 560.76 3368.58 562.17 3376.37 C 567.27 3375.78 572.23 3374.43 577.25 3373.44 C 623.93 3363.58 670.52 3353.26 717.28 3343.79 C 715.92 3335.83 713.55 3328.09 711.87 3320.21 C 660.26 3330.98 608.81 3342.52 557.18 3353.20 M 3286.24 3476.09 C 3296.86 3479.85 3307.63 3483.17 3318.34 3486.71 C 3360.53 3500.50 3402.71 3514.30 3444.95 3527.97 C 3446.99 3520.28 3449.32 3512.67 3451.34 3504.98 C 3439.50 3500.89 3427.55 3497.17 3415.67 3493.26 C 3374.75 3480.13 3333.98 3466.46 3292.99 3453.59 C 3290.10 3460.86 3288.54 3468.61 3286.24 3476.09 M 597.18 3505.10 C 599.39 3512.73 601.60 3520.38 603.96 3527.98 C 653.97 3511.58 704.05 3495.39 754.03 3478.92 C 751.67 3471.33 749.25 3463.76 746.86 3456.19 C 696.94 3472.40 647.03 3488.65 597.18 3505.10 M 3244.22 3584.03 C 3241.58 3591.42 3238.01 3598.47 3235.66 3605.97 C 3238.69 3607.90 3242.13 3609.11 3245.42 3610.62 C 3292.87 3631.79 3340.34 3652.92 3387.82 3674.01 C 3390.40 3666.57 3393.82 3659.45 3396.27 3651.98 C 3382.68 3645.21 3368.51 3639.61 3354.75 3633.18 C 3317.88 3616.86 3281.16 3600.20 3244.22 3584.03 M 651.94 3651.99 C 655.04 3659.32 658.19 3666.64 661.17 3674.03 C 707.72 3653.38 754.09 3632.33 800.63 3611.66 C 802.24 3610.84 804.08 3610.30 805.38 3609.03 C 802.51 3601.83 799.21 3594.81 795.97 3587.78 C 747.89 3609.02 699.92 3630.52 651.94 3651.99 M 3030.33 3591.21 C 3017.91 3613.09 3004.73 3634.56 2992.69 3656.65 C 3096.04 3716.08 3199.19 3775.86 3302.37 3835.59 C 3305.59 3830.93 3308.15 3825.87 3311.05 3821.03 C 3320.73 3804.09 3330.63 3787.28 3340.18 3770.27 C 3236.88 3710.60 3133.62 3650.88 3030.33 3591.21 M 935.29 3639.20 C 861.58 3681.84 787.89 3724.50 714.16 3767.09 C 712.35 3768.31 709.83 3768.94 708.70 3770.91 C 716.94 3785.71 725.70 3800.24 734.12 3814.95 C 738.35 3821.76 741.83 3829.06 746.56 3835.57 C 778.69 3816.62 811.14 3798.22 843.37 3779.44 C 914.29 3738.52 985.07 3697.34 1056.04 3656.50 C 1047.80 3641.37 1038.79 3626.65 1030.25 3611.69 C 1026.06 3605.03 1022.73 3597.80 1018.05 3591.49 C 990.32 3607.12 962.90 3623.34 935.29 3639.20 M 3108.06 3827.10 C 3103.10 3833.15 3098.88 3839.79 3094.39 3846.21 C 3124.29 3868.52 3154.77 3890.06 3184.85 3912.14 C 3199.49 3922.65 3213.78 3933.65 3228.50 3944.06 C 3233.11 3937.63 3238.47 3931.73 3242.65 3925.01 C 3231.11 3915.92 3218.92 3907.66 3207.14 3898.88 C 3187.81 3884.86 3168.51 3870.82 3149.21 3856.78 C 3135.45 3846.95 3121.99 3836.67 3108.06 3827.10 M 892.13 3862.13 C 863.46 3883.17 834.44 3903.77 805.96 3925.06 C 810.34 3931.61 815.75 3937.42 820.36 3943.84 C 834.07 3934.10 847.56 3924.05 861.17 3914.18 C 890.00 3893.02 919.10 3872.20 947.76 3850.84 C 945.40 3846.75 942.37 3843.11 939.79 3839.19 C 937.93 3836.68 936.49 3833.79 934.06 3831.81 C 919.93 3841.69 906.15 3852.08 892.13 3862.13 M 1965.67 3886.71 C 1958.34 3890.88 1952.39 3898.32 1951.81 3906.96 C 1951.54 3914.13 1952.59 3921.91 1957.41 3927.57 C 1965.39 3937.25 1979.49 3940.97 1991.40 3937.42 C 1997.71 3935.58 2003.13 3930.99 2005.92 3925.04 C 1998.45 3928.34 1991.30 3932.93 1983.05 3933.99 C 1976.16 3935.05 1969.21 3932.37 1964.05 3927.90 C 1956.67 3921.38 1954.83 3910.13 1958.17 3901.13 C 1961.16 3893.12 1969.25 3888.01 1977.35 3886.41 C 1987.48 3885.05 1996.31 3891.06 2004.98 3895.26 C 2002.76 3890.08 1998.57 3885.78 1993.30 3883.76 C 1984.30 3880.07 1973.91 3882.03 1965.67 3886.71 M 2107.52 3891.55 C 2105.93 3895.66 2108.23 3899.97 2111.15 3902.86 C 2117.21 3909.16 2126.03 3912.50 2130.88 3920.04 C 2132.25 3922.35 2133.95 3925.47 2132.12 3928.06 C 2129.18 3932.88 2123.15 3933.65 2118.11 3934.70 C 2113.55 3930.92 2108.91 3927.22 2103.90 3924.08 C 2105.25 3936.16 2121.09 3942.69 2130.82 3935.81 C 2136.79 3931.78 2138.18 3922.79 2134.11 3916.97 C 2128.26 3908.42 2117.85 3904.56 2111.79 3896.23 C 2110.84 3894.77 2109.39 3893.12 2110.25 3891.35 C 2113.00 3888.49 2116.98 3886.71 2121.00 3887.08 C 2125.76 3887.31 2129.66 3890.44 2133.18 3893.38 C 2134.00 3892.00 2134.86 3890.69 2135.72 3889.39 C 2131.84 3886.84 2128.32 3883.57 2123.84 3882.15 C 2117.11 3880.54 2109.22 3884.62 2107.52 3891.55 M 1909.34 3883.12 C 1909.15 3901.24 1909.42 3919.37 1909.45 3937.50 C 1910.90 3937.53 1912.36 3937.60 1913.86 3937.74 C 1914.69 3928.95 1913.43 3920.15 1913.78 3911.37 C 1922.54 3919.55 1930.47 3928.59 1939.14 3936.87 C 1940.56 3938.15 1942.62 3937.03 1944.34 3937.16 C 1935.70 3926.96 1925.87 3917.83 1916.86 3908.00 C 1924.80 3899.18 1934.53 3892.06 1942.18 3882.94 C 1937.88 3883.78 1933.80 3885.61 1930.54 3888.56 C 1924.52 3893.29 1920.42 3900.05 1914.11 3904.44 C 1913.78 3897.23 1914.22 3890.02 1914.09 3882.83 C 1912.48 3882.85 1910.90 3882.97 1909.34 3883.12 M 2036.52 3882.98 C 2028.66 3901.47 2019.62 3919.51 2013.00 3938.52 C 2021.56 3935.57 2021.29 3924.86 2026.19 3918.91 C 2033.25 3918.43 2040.63 3918.11 2047.59 3919.28 C 2051.44 3925.74 2052.11 3935.33 2060.13 3938.34 C 2057.51 3929.88 2053.62 3921.89 2050.25 3913.73 C 2045.61 3903.50 2041.47 3893.05 2036.52 3882.98 M 2074.89 3882.90 C 2074.97 3901.15 2074.60 3919.42 2075.08 3937.68 C 2083.39 3937.51 2091.71 3937.53 2100.02 3937.66 C 2100.11 3936.05 2100.18 3934.45 2100.29 3932.95 C 2093.42 3932.79 2086.56 3932.88 2079.71 3932.90 C 2078.88 3916.26 2079.67 3899.58 2079.29 3882.94 C 2077.80 3882.87 2076.33 3882.85 2074.89 3882.90 M 3006.79 3954.19 C 3007.70 3956.37 3009.98 3957.64 3011.62 3959.33 C 3050.83 3994.86 3090.21 4030.20 3129.35 4065.80 C 3134.29 4059.50 3139.88 4053.68 3144.45 4047.12 C 3131.47 4034.90 3118.01 4023.18 3104.82 4011.19 C 3077.11 3986.10 3049.13 3961.28 3021.55 3936.04 C 3016.43 3941.91 3011.53 3948.00 3006.79 3954.19 M 990.28 3969.26 C 961.17 3995.60 932.08 4021.97 902.94 4048.29 C 908.08 4054.29 913.31 4060.24 918.42 4066.29 C 929.25 4057.21 939.44 4047.37 950.03 4038.00 C 965.42 4024.08 980.80 4010.14 996.19 3996.23 C 1009.75 3983.77 1023.70 3971.71 1037.03 3959.03 C 1034.88 3955.87 1031.99 3953.34 1029.55 3950.46 C 1026.77 3947.48 1024.31 3944.17 1021.06 3941.72 C 1010.52 3950.56 1000.60 3960.15 990.28 3969.26 M 1421.58 4022.91 C 1402.96 4055.73 1383.92 4088.33 1365.12 4121.05 C 1324.41 4191.68 1283.70 4262.30 1242.94 4332.89 C 1264.04 4345.23 1285.22 4357.46 1306.39 4369.69 C 1307.85 4371.08 1308.68 4369.58 1309.41 4368.35 C 1350.33 4297.60 1391.11 4226.78 1431.93 4155.97 C 1450.21 4124.08 1468.87 4092.40 1486.94 4060.41 C 1465.04 4048.12 1443.65 4034.87 1421.58 4022.91 M 2561.84 4060.41 C 2567.41 4071.19 2573.93 4081.46 2579.85 4092.06 C 2630.28 4179.34 2680.60 4266.69 2730.95 4354.02 C 2734.40 4359.52 2737.05 4365.59 2740.95 4370.80 C 2762.65 4358.30 2784.14 4345.43 2805.74 4332.76 C 2746.11 4229.40 2686.44 4126.08 2626.81 4022.72 C 2604.97 4034.96 2583.57 4047.98 2561.84 4060.41 M 2906.86 4052.43 C 2921.25 4068.90 2936.20 4084.89 2950.75 4101.23 C 2972.94 4125.84 2995.15 4150.44 3017.27 4175.12 C 3023.10 4169.96 3029.37 4165.26 3034.92 4159.80 C 3034.89 4158.08 3033.13 4157.02 3032.25 4155.78 C 2996.31 4116.37 2960.98 4076.38 2924.97 4037.03 C 2918.44 4041.51 2913.07 4047.50 2906.86 4052.43 M 1119.27 4041.78 C 1083.96 4081.21 1048.14 4120.17 1013.41 4160.11 C 1019.37 4165.23 1025.61 4170.03 1031.70 4175.01 C 1066.73 4135.43 1102.52 4096.53 1137.62 4057.01 C 1131.62 4051.79 1125.57 4046.61 1119.27 4041.78 M 2798.55 4140.07 C 2800.00 4142.92 2802.13 4145.37 2804.00 4148.00 C 2814.78 4162.87 2825.63 4177.70 2836.39 4192.59 C 2855.96 4219.29 2875.08 4246.36 2894.95 4272.82 C 2901.46 4268.55 2907.57 4263.69 2914.15 4259.52 C 2904.84 4245.45 2894.40 4232.15 2884.66 4218.38 C 2862.34 4187.48 2839.75 4156.77 2817.54 4125.80 C 2810.97 4130.20 2804.64 4135.03 2798.55 4140.07 M 1228.14 4130.32 C 1220.71 4139.89 1213.86 4149.91 1206.67 4159.68 C 1182.57 4193.01 1158.28 4226.22 1134.25 4259.60 C 1141.01 4263.70 1147.38 4268.41 1154.09 4272.63 C 1162.57 4261.54 1170.50 4250.03 1178.78 4238.80 C 1201.57 4207.26 1224.62 4175.90 1247.19 4144.22 C 1240.80 4139.63 1234.62 4134.75 1228.14 4130.32 M 1986.00 4195.00 C 1986.09 4207.66 1985.80 4220.32 1985.87 4233.00 C 1985.89 4339.69 1985.82 4446.39 1985.91 4553.09 C 2011.49 4553.11 2037.08 4553.22 2062.66 4553.08 C 2062.48 4542.38 2062.62 4531.68 2062.58 4521.00 C 2062.64 4412.43 2062.47 4303.85 2062.66 4195.29 C 2037.11 4194.75 2011.56 4195.09 1986.00 4195.00 M 2555.91 4278.07 C 2575.66 4322.60 2595.48 4367.11 2615.41 4411.57 C 2618.00 4416.77 2619.71 4422.52 2622.97 4427.36 C 2630.12 4424.31 2637.07 4420.81 2644.21 4417.73 C 2630.61 4386.22 2616.18 4355.07 2602.35 4323.67 C 2594.05 4305.71 2586.49 4287.40 2577.97 4269.57 C 2570.41 4271.80 2563.25 4275.21 2555.91 4278.07 M 1469.10 4272.78 C 1455.18 4303.69 1441.44 4334.69 1427.63 4365.66 C 1420.04 4383.15 1411.84 4400.40 1404.61 4418.03 C 1411.75 4421.51 1419.29 4424.17 1426.67 4427.15 C 1447.96 4378.70 1469.55 4330.37 1490.91 4281.95 C 1483.69 4278.75 1476.41 4275.71 1469.10 4272.78 M 2425.79 4328.13 C 2439.32 4371.61 2453.80 4414.80 2467.85 4458.11 C 2470.71 4466.13 2472.69 4474.49 2476.02 4482.35 C 2483.62 4480.35 2490.85 4477.15 2498.33 4474.74 C 2495.99 4466.59 2492.96 4458.67 2490.50 4450.58 C 2476.07 4407.33 2462.44 4363.82 2447.96 4320.59 C 2440.49 4322.85 2433.14 4325.50 2425.79 4328.13 M 1596.77 4331.84 C 1584.09 4371.12 1571.36 4410.38 1558.67 4449.65 C 1556.15 4458.29 1552.51 4466.64 1550.87 4475.51 C 1558.28 4477.69 1565.55 4480.33 1572.88 4482.79 C 1586.69 4440.58 1600.40 4398.34 1614.11 4356.10 C 1616.78 4347.48 1620.01 4339.02 1622.25 4330.29 C 1614.75 4328.19 1607.47 4325.40 1599.95 4323.44 C 1598.15 4325.84 1597.81 4329.03 1596.77 4331.84 M 2290.22 4363.82 C 2301.54 4416.63 2312.79 4469.45 2324.16 4522.26 C 2331.82 4520.56 2339.32 4518.20 2347.00 4516.55 C 2346.29 4510.46 2344.62 4504.56 2343.46 4498.58 C 2333.58 4451.70 2323.34 4404.89 2313.60 4357.98 C 2305.75 4359.70 2297.93 4361.57 2290.22 4363.82 M 1734.85 4359.96 C 1733.35 4365.63 1732.35 4371.43 1731.05 4377.17 C 1721.21 4423.77 1711.17 4470.34 1701.66 4517.01 C 1709.35 4518.84 1717.04 4520.70 1724.82 4522.18 C 1735.79 4470.07 1746.80 4417.96 1758.00 4365.89 C 1750.34 4363.68 1742.54 4362.01 1734.85 4359.96 M 1872.28 4382.86 C 1867.17 4436.50 1861.54 4490.09 1856.25 4543.71 C 1864.14 4543.75 1872.04 4543.69 1879.94 4543.75 C 1882.83 4518.54 1885.17 4493.27 1887.88 4468.04 C 1890.60 4440.36 1893.72 4412.71 1896.24 4385.02 C 1888.24 4384.44 1880.29 4383.16 1872.28 4382.86 M 2152.05 4384.04 C 2157.79 4437.13 2162.94 4490.31 2168.68 4543.40 C 2176.65 4543.83 2184.70 4543.48 2192.71 4543.70 C 2187.06 4490.05 2181.78 4436.35 2176.07 4382.70 C 2168.03 4382.47 2160.06 4383.68 2152.05 4384.04 Z" />
<path fill="#000000" opacity="1.00" d=" M 2653.92 2175.88 C 2668.45 2169.39 2687.92 2181.89 2687.17 2198.03 C 2687.21 2203.88 2683.68 2208.80 2680.24 2213.21 C 2588.38 2338.56 2495.40 2463.08 2402.91 2587.96 C 2391.21 2603.65 2379.69 2619.49 2367.92 2635.13 C 2355.44 2626.15 2343.12 2616.96 2330.79 2607.78 C 2352.76 2577.51 2375.32 2547.66 2397.50 2517.54 C 2478.78 2407.82 2559.93 2298.02 2641.55 2188.56 C 2645.10 2183.85 2648.29 2178.35 2653.92 2175.88 Z" />
<path fill="#000000" opacity="1.00" d=" M 2293.37 3271.91 C 2377.71 3351.47 2461.80 3431.32 2546.09 3510.92 C 2553.68 3519.25 2554.55 3533.36 2546.88 3541.93 C 2540.63 3549.78 2528.97 3551.94 2519.94 3548.08 C 2513.64 3545.46 2509.65 3539.64 2504.57 3535.40 C 2423.53 3458.91 2342.64 3382.26 2261.73 3305.64 C 2271.90 3294.07 2282.89 3283.21 2293.37 3271.91 Z" />
<path fill="#000000" opacity="1.00" d=" M 2031.72 3913.27 C 2029.85 3907.91 2031.55 3899.78 2037.47 3897.86 C 2039.82 3901.87 2042.54 3905.99 2042.92 3910.78 C 2040.63 3914.64 2035.46 3914.76 2031.72 3913.27 Z" />
</g>
</svg>
