<?xml version="1.0" encoding="UTF-8" ?>
<!DOCTYPE svg PUBLIC "-//W3C//DTD SVG 1.1//EN" "http://www.w3.org/Graphics/SVG/1.1/DTD/svg11.dtd">
<svg width="4054pt" height="4791pt" viewBox="0 0 4054 4791" version="1.1" xmlns="http://www.w3.org/2000/svg">
<g id="#000000ff">
<path fill="#000000" opacity="1.00" d=" M 2850.59 0.00 L 2899.44 0.00 C 2979.15 1.31 3058.57 8.87 3138.01 15.08 C 3194.96 19.91 3251.77 26.59 3308.87 29.54 C 3368.83 33.19 3428.93 34.17 3488.99 33.22 C 3504.00 33.31 3518.98 32.13 3533.99 32.03 C 3545.65 31.14 3557.37 31.24 3569.02 30.09 C 3606.99 26.22 3645.53 27.06 3683.01 19.07 C 3691.19 17.49 3699.09 14.81 3707.18 12.83 C 3705.15 14.61 3703.07 16.29 3700.98 17.94 C 3610.15 88.62 3527.04 169.91 3458.64 262.67 C 3449.62 274.70 3441.33 287.26 3432.28 299.28 C 3361.91 395.33 3301.99 498.44 3234.38 596.39 C 3190.40 659.93 3142.95 721.47 3087.86 775.85 C 3036.08 827.34 2976.99 871.22 2913.95 907.95 C 2841.81 949.77 2763.87 981.63 2682.98 1001.94 C 2587.90 1025.60 2488.49 1034.34 2391.08 1021.91 C 2339.63 1014.90 2288.33 1005.86 2238.34 991.64 C 2178.49 974.75 2120.25 950.88 2067.79 917.25 C 2064.51 914.93 2060.61 913.27 2058.01 910.16 C 2056.13 904.39 2055.93 898.22 2054.79 892.28 C 2038.32 782.43 2048.42 669.12 2081.11 563.10 C 2103.40 490.58 2136.28 421.35 2178.08 358.04 C 2242.98 260.48 2329.89 177.74 2430.21 117.23 C 2514.92 66.26 2608.90 30.60 2706.28 13.33 C 2753.90 4.75 2802.28 1.30 2850.59 0.00 Z" />
<path fill="#000000" opacity="1.00" d=" M 1608.81 425.09 C 1701.75 426.56 1794.08 412.10 1886.99 412.37 C 1899.89 412.16 1912.76 413.34 1925.66 413.30 C 1940.81 475.47 1954.82 537.96 1965.96 600.99 C 1983.94 701.61 1994.76 803.72 1993.74 906.01 C 1993.04 926.99 1994.41 947.99 1993.21 968.96 C 1990.35 1080.69 1968.66 1190.66 1953.74 1301.13 C 2149.99 1269.56 2340.09 1207.41 2537.17 1180.28 C 2636.74 1166.66 2738.23 1162.18 2838.05 1175.99 C 2969.16 1193.33 3096.83 1233.35 3216.23 1289.86 C 3357.29 1357.21 3484.13 1452.22 3593.96 1563.03 C 3701.65 1671.70 3792.62 1796.74 3864.08 1931.96 C 3901.99 2003.86 3935.12 2078.35 3961.75 2155.17 C 3991.25 2239.43 4012.95 2326.34 4027.36 2414.43 C 4044.21 2514.72 4052.47 2616.36 4053.68 2718.01 C 4054.14 2744.36 4053.35 2770.71 4052.79 2797.05 C 4047.61 2974.57 4020.02 3151.25 3973.57 3322.60 C 3938.29 3453.10 3891.79 3580.53 3835.41 3703.39 C 3732.82 3926.90 3597.36 4135.25 3435.06 4320.01 C 3398.73 4361.58 3360.45 4401.40 3321.74 4440.74 C 3280.25 4482.35 3237.42 4522.69 3192.16 4560.19 C 3103.21 4633.97 3003.87 4696.28 2895.72 4737.73 C 2831.45 4762.40 2764.10 4779.41 2695.58 4786.49 C 2679.13 4788.35 2662.58 4788.85 2646.07 4789.73 C 2637.79 4789.95 2629.48 4789.70 2621.28 4791.00 L 2520.61 4791.00 C 2502.40 4790.77 2484.21 4789.81 2466.00 4789.74 C 2297.47 4784.92 2129.42 4769.77 1960.99 4762.84 C 1949.77 4762.62 1938.58 4761.62 1927.36 4761.70 C 1909.59 4760.59 1891.77 4760.90 1873.99 4759.99 C 1841.33 4759.76 1808.67 4759.07 1776.01 4759.65 C 1760.65 4759.90 1745.28 4759.58 1729.94 4760.46 C 1678.55 4761.74 1627.20 4764.84 1576.03 4769.89 C 1552.43 4772.29 1528.74 4773.51 1505.06 4774.74 C 1491.70 4774.82 1478.37 4775.99 1465.00 4775.76 C 1370.66 4776.91 1275.65 4767.83 1184.59 4742.37 C 1105.83 4720.34 1029.94 4685.91 964.43 4636.61 C 596.26 4344.02 311.13 3948.45 148.93 3507.10 C 86.71 3337.83 42.79 3161.79 19.01 2983.01 C 7.80 2898.58 1.73 2813.52 0.00 2728.40 L 0.00 2657.61 C 1.34 2596.28 4.63 2534.97 11.06 2473.94 C 26.93 2319.97 60.13 2167.65 111.56 2021.60 C 139.75 1941.95 173.82 1864.35 214.02 1790.02 C 249.75 1723.99 290.20 1660.46 335.77 1600.77 C 382.88 1538.97 435.51 1481.30 493.57 1429.62 C 549.37 1379.95 610.24 1335.81 675.68 1299.69 C 751.81 1257.46 834.13 1226.18 919.40 1208.43 C 971.85 1197.52 1025.44 1192.12 1079.00 1192.24 C 1172.97 1193.53 1265.96 1209.94 1357.40 1230.65 C 1448.72 1251.23 1539.21 1275.65 1631.30 1292.76 C 1716.12 1308.44 1802.79 1317.72 1889.05 1311.20 C 1888.72 1281.18 1886.52 1251.19 1882.56 1221.42 C 1877.04 1178.80 1868.68 1136.62 1860.67 1094.41 C 1848.46 1027.76 1832.36 961.84 1813.11 896.88 C 1764.19 732.17 1694.11 574.11 1608.81 425.09 Z" />
</g>
</svg>
