<?xml version="1.0" encoding="utf-8"?>
<!-- Generator: Adobe Illustrator 18.0.0, SVG Export Plug-In . SVG Version: 6.00 Build 0)  -->
<!DOCTYPE svg PUBLIC "-//W3C//DTD SVG 1.1//EN" "http://www.w3.org/Graphics/SVG/1.1/DTD/svg11.dtd">
<svg version="1.1" id="Layer_1" xmlns="http://www.w3.org/2000/svg" xmlns:xlink="http://www.w3.org/1999/xlink" x="0px" y="0px"
	 viewBox="0 0 4054 4791" enable-background="new 0 0 4054 4791" xml:space="preserve">
<g>
	<path d="M2850.6,0.5h48.9c67,1.2,133.8,6.5,200.5,12.1c53.4,3.7,106.7,9.8,160.1,14.1c26.3,2.3,52.6,3.6,79,5
		c26.3,1,52.6,2.2,79,2.2c25.3,0.6,50.6,0.1,76-0.2c13,0,26-1.1,39-1.1c12-0.8,24-0.8,36-2c39.1-4,78.8-3,117.3-11.8
		c7.1-1.4,13.8-3.9,20.9-5.5c-3.9,3.5-8.2,6.6-12.3,9.9c-90.5,71.2-173.1,153-240.8,246.2c-9.3,13-18.5,26.1-28.1,39
		c-68.1,94.2-126.7,194.7-192.8,290.2c-43.6,62.9-90.7,123.8-145.3,177.7c-27.3,27.2-56.8,52.3-87.7,75.3
		c-135,100.6-298.8,163.2-467,174.6c-25.3,1.4-50.7,2.7-76,1.3c-30.3-0.7-60.5-3.9-90.4-8.7c-50.4-7.4-100.4-17.7-149-32.9
		c-55.2-17.2-108.8-40.8-157-73c-1.7-1-3.2-2.5-3.3-4.6c-19.8-114.7-10.4-233.8,23.8-344.8c22.2-72.3,55-141.3,96.6-204.5
		c63.3-95.4,147.7-176.7,245.1-236.9c85.2-52.5,180-89.4,278.4-107.5C2750.5,5.5,2800.6,1.9,2850.6,0.5z"/>
	<g>
		<path d="M1608.9,425.6c92.3,1.4,183.9-12.8,276.1-12.8c13.5-0.2,27,0.8,40.6,1c12.4,50.1,23.8,100.5,33.6,151.2
			c18.5,95.8,31.5,192.9,34,290.5c1.3,28-0.1,56,0.5,83.9c0,49.8-3.7,99.6-9.6,149c-8.3,71.3-20.8,142-30.3,213.1
			c169.6-27.2,334.4-77.3,503.3-107.9c99.1-18.1,200.1-29.1,301-24.5c48.6,2.3,96.9,8.8,144.6,17.8c45.7,8.7,90.8,20.1,135.1,33.8
			c76.6,23.9,151.2,54.3,222.2,91.7c134.5,71.2,255.1,167.2,359.5,277.6c107.8,114.2,197.7,245.2,266.8,386.2
			c57.7,116.4,101,240,127.7,367.2c26.8,129.2,39.5,261.2,39.7,393.1c0,178.5-23,356.9-65.5,530.2c-31.4,128.3-73.5,254-125.4,375.5
			c-94.4,221.2-220.8,428.7-373.5,614.5c-37.4,45.4-76.1,89.7-116.8,132.2c-62.2,65.6-126.8,129.1-197.3,185.7
			c-94.8,76-201.3,138.7-316.9,177.1c-66.3,21.8-135.4,35.7-205.3,38.2c-10.5,0.8-21.1,0-31.6,1.6h-100.8
			c-7.9-0.6-15.7-0.2-23.6-0.5c-10-0.4-20-0.7-30.1-0.7c-202.2-5.7-403.7-26.4-606-29.9c-37.3-0.4-74.7-0.4-112,0
			c-53.7,1.2-107.4,3.9-161,8.9c-34.3,3.6-68.7,5.6-103.1,6.6c-97.7,2.6-196.3-5.2-290.9-30.4c-76.7-20.4-150.7-52.4-215.7-98.2
			c-15.6-10.9-30.1-23.2-44.8-35.1c-364.3-299.1-644-699.9-799-1145c-58.6-168.6-99.4-343.5-120-520.8
			c-5.8-50.7-9.9-101.7-12.2-152.7C1,2772,0.8,2750.5,0,2728.9v-70.8c0.9-30.8,1.7-61.7,3.7-92.5c8.6-145.5,32.3-290.2,72.1-430.4
			c23.3-82.5,52.1-163.5,87.4-241.6c62.8-139,144.9-270.1,248.3-382.6c50.2-54.4,105.3-104.3,165.3-147.8
			c65.4-47.4,136.7-86.9,212.2-115.8c83.4-31.9,171.9-51.4,261.2-54.1c23-1.2,46-0.4,69,0.9c49.9,2.8,99.6,9.5,148.8,18.5
			c90.5,16.5,179.5,40.4,269.1,60.8c92,21,185.4,38.5,280,40.2c24,0.2,48,0.2,72-2.1c-0.2-76.6-16.1-151.8-30.2-226.8
			c-29.5-155.3-79-306.4-143.6-450.5C1683.4,563,1647.5,493.5,1608.9,425.6z M1986,1553.4c-0.3,63.4-0.1,126.7-0.1,190.1
			c0,56-0.1,112.1,0,168.1c25.6,0,51.2-0.1,76.8-0.2c-0.2-11.7,0-23.3-0.1-34.9c0.1-107.6-0.1-215.3,0.1-322.9
			C2037.1,1553.1,2011.6,1553.5,1986,1553.4z M1856,1563.5c5.8,55.1,11.6,110.1,17,165.2c8-0.4,15.9-1.2,23.9-1.5
			c-5.4-55-11.7-110-17.1-165C1871.9,1562.1,1864,1563.3,1856,1563.5z M2168.9,1562.8c-0.6,2.5-0.9,5.1-1.1,7.7
			c-5.2,52.6-10.9,105.1-16,157.8c8-0.1,16.2,1.4,24-1c4.9-44.3,9.1-88.6,13.5-132.8c0.9-10.5,2.5-21,2.9-31.6
			C2184.4,1563,2176.6,1563,2168.9,1562.8z M1701.3,1589.7c11.2,53.7,23,107.3,34.1,161c8-0.4,15.8-2.5,23.8-3.4
			c-11.2-54.3-23.3-108.5-34.5-162.8C1716.8,1586.1,1709.1,1588.1,1701.3,1589.7z M2324.1,1584.6c-11.6,54.6-23.3,109.2-34.9,163.8
			c7.9,1.8,15.7,4,23.7,5.4c11.2-54.8,23-109.4,34.2-164.2C2339.4,1587.9,2331.8,1586.2,2324.1,1584.6z M1550.3,1631.7
			c16.9,52.3,34.1,104.6,51.1,156.9c7.6-2.2,15-5,22.5-7.3c-16.9-52.3-33.7-104.6-50.9-156.9
			C1565.4,1626.9,1557.9,1629.4,1550.3,1631.7z M2475.4,1624.7c-16.9,53.3-34.6,106.2-51.4,159.5c7.7,2,15.1,4.8,22.8,6.6
			c10.9-33.9,22-67.7,33-101.6c6.1-19.2,12.7-38.2,18.5-57.5C2490.6,1629.4,2483.1,1626.7,2475.4,1624.7z M2622.3,1679.3
			c-22.5,51.4-45.7,102.4-68.1,153.9c7.1,2.9,13.8,6.7,20.9,9.7c2.3-2.4,3-5.8,4.5-8.7c5.8-12.9,11.6-25.8,17.3-38.7
			c15.7-35.6,31.9-70.9,47.3-106.5C2636.8,1685.8,2629.8,1682,2622.3,1679.3z M1404.7,1688.6c2.3,7.3,6.1,14.1,9,21.3
			c19.2,43.2,38.6,86.3,57.7,129.6c7.4-3.2,14.5-6.7,21.8-10.1c-20.4-45.9-40.8-91.7-61.3-137.5c-2-3.8-3-8.3-5.8-11.7
			C1418.8,1682.6,1411.6,1685.4,1404.7,1688.6z M1296.3,1742.8c-17.8,10.3-35.5,20.8-53.4,30.9c4.3,7.6,8.7,15.2,13,22.8
			c55.3,95.9,110.5,191.8,166,287.6c21.8-12.4,43.4-25.1,65.1-37.7c-59.5-103.4-119.4-206.5-178.7-310
			C1304,1737.8,1300.3,1740.6,1296.3,1742.8z M2730.1,1754.6c-56.4,97.1-112.3,194.5-168.3,291.9c21.6,12.7,43.3,25.2,64.9,37.8
			c40.8-70.5,81.5-141.1,122.2-211.8c18.8-33,38.1-65.7,56.7-98.8c-14.6-8.8-29.6-17-44.3-25.6c-6.9-3.8-13.3-8.3-20.4-11.7
			C2736.9,1742.1,2733.9,1748.6,2730.1,1754.6z M1134.7,1847.8c12.1,17.4,24.9,34.4,37.3,51.7c19.6,26.8,39,53.9,58.8,80.7
			c6.5-4.6,12.6-9.5,19.2-14c-31.9-44.3-64.4-88.3-96.3-132.6C1147.3,1838.2,1141.1,1843.1,1134.7,1847.8z M2894.3,1834.3
			c-32.9,45.5-65.9,91-98.9,136.5c6.3,4.8,12.8,9.6,19.5,13.8c11.2-14.9,21.8-30.2,32.8-45.2c22.1-30.7,44.5-61.1,66.4-91.9
			c-1.1-1.6-3-2.5-4.5-3.5C2904.5,1840.8,2899.5,1837.3,2894.3,1834.3z M1024.7,1937.2c-3.6,3.6-7.7,6.8-10.9,10.8
			c34.6,38.1,68.8,76.5,103.4,114.5c1.9,1.9,3.4,4.5,5.9,5.9c3.6-2.7,6.6-6.1,10-9c2.4-2.3,5.2-4.2,7.2-6.9
			c-15.3-17.4-31.1-34.4-46.5-51.7c-21-23-41.6-46.4-62.7-69.3C1028.5,1933,1026.7,1935.3,1024.7,1937.2z M3017.3,1931.7
			c-37.7,41.9-75.5,83.8-113.1,125.8c5.6,5.5,11.9,10.4,17.9,15.6c13.6-14.6,26.7-29.7,40.2-44.4c24.3-27.1,48.8-54.1,73-81.3
			C3029.9,1941.5,3023.1,1937.1,3017.3,1931.7z M919.2,2041.5c-5.2,5.9-10.2,11.9-15,18.1c2.8,3.2,6.2,5.7,9.2,8.6
			c36.9,33.1,73.5,66.6,110.7,99.4c5.7-5.5,11.1-11.4,16.1-17.5c-30.5-27.1-60.6-54.6-90.9-81.8
			C939.2,2059.4,929.5,2050,919.2,2041.5z M3113.8,2055.3c-30.4,27.6-60.9,55.1-91.4,82.6c-6.2,6-13.1,11.3-19,17.6
			c5,6,10.8,11.4,16.1,17.2c12.8-11.1,25.1-22.7,37.7-33.9c29.3-26.5,58.5-53.1,87.9-79.5c-5.2-5.9-10.6-11.8-15.6-17.8
			C3124,2045.7,3119.1,2050.7,3113.8,2055.3z M2635.7,2161.2c-7.6,7.3-13,16.3-19.4,24.6c-192.8,260.1-385.5,520.2-578.4,780.2
			c-24.4-2-49.7,5-68.7,20.7c-13.2,11.1-23.5,25.8-28.6,42.4c-6.1,19.4-5.2,40.6,1.2,59.8c-53.2,30.9-106.2,62.1-159.3,93.1
			c-140.3,82.1-280.6,164.1-420.9,246.1c-69.5,40.6-138.9,81.4-208.5,121.8c4.9,9.4,10.6,18.5,16,27.7
			c248.2-145.1,496.3-290.4,744.6-435.3c15-8.6,29.7-17.7,44.9-26c9.9,10.9,22.3,19.4,36.1,24.6c19.8,7.6,42.1,8.2,62.3,1.8
			c146.1,138.2,292.1,276.5,438.2,414.6c5.3,5.1,10.6,10.6,17.4,13.8c16.3,8.1,37.4,5.4,50.7-7.3c16.3-14.5,18.7-41.2,6.5-58.9
			c-3.4-5.2-8.3-9.1-12.8-13.3c-146.6-138.9-293.3-277.5-439.9-416.3c0-5.6,0.9-11.1,0.9-16.7c-0.3-11.1-1.8-22.2-5-32.8
			c33.3-19.6,66.7-39.1,100.1-58.5c-5.3-9.2-10.6-18.4-16.1-27.4c-16,8.9-31.7,18.5-47.5,27.8c2.4-4.6,6-8.4,8.9-12.6
			c182-244.8,363.3-490.1,545.1-735c7.4-11.3,10.2-26,6.1-39.1c-3.8-13-14-23.6-26.6-28.5
			C2667.4,2145.7,2647.8,2149.1,2635.7,2161.2z M813.4,2171.9c-2.2,3.5-5,6.7-6.9,10.4c25.6,19,51.6,37.6,77.4,56.5
			c17.6,12.6,34.9,25.8,52.8,38c4.7-6.4,9.8-12.4,14.4-18.9c-43.8-31.4-87.1-63.7-131.1-95C817.2,2165.5,815.5,2168.9,813.4,2171.9z
			 M3135.2,2230.7c-14.4,10.7-29.2,20.8-43.3,31.8c3.9,6.3,8.4,12.4,12.8,18.4c0.7,1.5,2.2-0.1,3.2-0.6
			c45-32.8,89.9-65.8,135.1-98.4c-3.1-4.7-6.8-8.9-10.1-13.4c-1.5-1.9-2.8-4.1-4.8-5.4C3197.1,2185.6,3166.2,2208.3,3135.2,2230.7z
			 M746.1,2271.2c-10.5,17.8-20.6,35.7-30.9,53.6c-2.2,4-4.9,7.7-6.4,12.1c25.5,14.4,50.7,29.2,76.1,43.8
			c44.6,25.8,89.1,51.5,133.7,77.3c33.4,19.2,66.5,38.7,100.1,57.6c12.2-21.8,24.9-43.4,37.3-65.1c-18.4-10.9-37.1-21.5-55.7-32.3
			C915.6,2369.2,830.9,2320.1,746.1,2271.2z M3258.3,2296.8c-54.7,31.6-109.4,63.3-164.1,94.9c-33.8,19.5-67.4,39.2-101.3,58.5
			c1.5,4.3,4.2,8.1,6.5,12.1c10.3,17.8,20.7,35.6,31,53.4c103.4-59.6,206.7-119.5,310.1-179.3c-12.3-21.8-25.5-43.1-37.9-64.9
			C3287.6,2279.5,3273.1,2288.4,3258.3,2296.8z M3232.1,2502.5c3.8,6.9,7.3,14,11.1,21c51.1-22.7,102-45.6,153.1-68.3
			c-2.4-7.7-5.7-15-8.5-22.5C3335.9,2456,3283.7,2478.7,3232.1,2502.5z M652.3,2455.2c48.6,21.3,97,43.4,145.6,64.6
			c3.2-7.1,6.7-14.2,9.7-21.4c-2.3-1.8-5.1-2.7-7.7-3.8c-24.2-10.8-48.5-21.6-72.7-32.3c-22.1-9.7-44-19.9-66.2-29.2
			C657.5,2440.2,655.2,2447.9,652.3,2455.2z M604.1,2579.2c-2.5,7.5-4.7,15-7.2,22.5c30.1,10,60.3,19.6,90.4,29.5
			c20.5,6.5,40.8,13.6,61.5,19.7c2.3-7.5,4.9-14.9,7.3-22.4C705.5,2612,654.8,2595.5,604.1,2579.2z M3406.8,2591.3
			c-41,13.4-82,26.7-123,40.3c2.3,7.5,4.9,14.9,7.3,22.4c10.3-2.9,20.3-6.6,30.5-9.7c43.4-14.2,86.9-28.3,130.2-42.6
			c-2.4-7.4-5.1-14.8-7.2-22.3C3431.9,2582.6,3419.5,2587.5,3406.8,2591.3z M562.1,2730.5c-1.6,7.7-3.4,15.3-4.9,22.9
			c42.2,9.2,84.5,18.1,126.6,27.3c9.6,1.9,19.1,4.5,28.8,5.9c2-7.7,4.2-15.4,6.3-23.1C666.7,2752.4,614.5,2741.3,562.1,2730.5z
			 M3320.9,2765.5c2,7.7,3.9,15.5,6.2,23.2c54.8-11.6,109.5-23.5,164.3-35.2c-1-5.9-2.6-11.7-3.7-17.6c-0.8-1.7-0.2-5.5-2.6-5.3
			C3430.3,2742.2,3375.6,2753.7,3320.9,2765.5z M535.9,2885.4c0,8-0.1,16,0.1,24c52,5.2,104,10.7,156,16.3c0.7-8.1,2-16.1,2.3-24.2
			C641.5,2895.9,588.7,2890.7,535.9,2885.4z M3492.9,2887.1c-50,5.1-99.9,10.7-149.9,15.8c1.5,7.9,3.4,15.6,5.2,23.4
			c31.9-3.3,63.9-6.7,95.8-10c23.4-2.6,46.8-4.6,70.1-7.5c-1.1-7.8-0.8-15.7-1.3-23.5C3506.1,2885.5,3499.5,2886.5,3492.9,2887.1z
			 M526.2,3015.5c0.1,25.4,0.1,50.8,0,76.2c13.9,0.3,27.9,0.1,41.8,0.1c105.3-0.1,210.5,0.2,315.8-0.1c-0.1-25.4,0-50.8-0.1-76.1
			c-7.9-0.4-15.8-0.1-23.7-0.2C748.7,3015.4,637.5,3015.2,526.2,3015.5z M3164.9,3015.4c-0.1,25.5-0.1,50.9,0,76.4
			c95,0.2,190.1,0,285.1,0.1c24.2-0.1,48.4,0.3,72.7-0.2c-0.1-25.4-0.1-50.7,0-76.1c-10.9-0.5-21.8-0.1-32.7-0.2
			C3381.6,3015.4,3273.3,3015.3,3164.9,3015.4z M3348,3181.4c-1,7.9-2.6,15.7-2.9,23.6c45,4.3,90,9.2,135.1,13.7
			c10.9,0.9,21.7,2.6,32.6,3c-0.4-7.8,0.3-15.7-0.3-23.5c-4.4-1-8.9-0.9-13.3-1.5C3448.7,3191.6,3398.4,3185.9,3348,3181.4z
			 M607,3190.7c-24.2,2.7-48.5,4.7-72.7,7.9c0.8,7.9,1.2,15.8,2.4,23.6c52.3-5.5,104.7-10.6,156.9-16.5c-0.6-7.1-1.3-14.1-1.8-21.2
			c0.2-1.8-1-3-2.7-2.4C661.7,3184.8,634.4,3187.9,607,3190.7z M3327.2,3319.1c-1.4,7.8-3.4,15.5-4.9,23.3
			c45.1,9.4,90.3,18.9,135.4,28.4c9.6,1.9,19.1,4.4,28.9,5.8c1.3-7.7,3.5-15.2,4.7-23c-45.3-9.5-90.5-19.2-135.7-28.8
			C3346.1,3323,3336.8,3320.3,3327.2,3319.1z M557.2,3353.7c1.5,7.7,3.6,15.4,5,23.2c5.1-0.6,10.1-1.9,15.1-2.9
			c46.7-9.9,93.3-20.2,140-29.6c-1.4-8-3.7-15.7-5.4-23.6C660.3,3331.5,608.8,3343,557.2,3353.7z M3286.2,3476.6
			c10.6,3.8,21.4,7.1,32.1,10.6c42.2,13.8,84.4,27.6,126.6,41.3c2-7.7,4.4-15.3,6.4-23c-11.8-4.1-23.8-7.8-35.7-11.7
			c-40.9-13.1-81.7-26.8-122.7-39.7C3290.1,3461.4,3288.5,3469.1,3286.2,3476.6z M597.2,3505.6c2.2,7.6,4.4,15.3,6.8,22.9
			c50-16.4,100.1-32.6,150.1-49.1c-2.4-7.6-4.8-15.2-7.2-22.7C696.9,3472.9,647,3489.1,597.2,3505.6z M3244.2,3584.5
			c-2.6,7.4-6.2,14.4-8.6,21.9c3,1.9,6.5,3.1,9.8,4.7c47.5,21.2,94.9,42.3,142.4,63.4c2.6-7.4,6-14.6,8.4-22
			c-13.6-6.8-27.8-12.4-41.5-18.8C3317.9,3617.4,3281.2,3600.7,3244.2,3584.5z M651.9,3652.5c3.1,7.3,6.3,14.6,9.2,22
			c46.5-20.7,92.9-41.7,139.5-62.4c1.6-0.8,3.5-1.4,4.8-2.6c-2.9-7.2-6.2-14.2-9.4-21.3C747.9,3609.5,699.9,3631,651.9,3652.5z
			 M3030.3,3591.7c-12.4,21.9-25.6,43.4-37.6,65.4c103.4,59.4,206.5,119.2,309.7,178.9c3.2-4.7,5.8-9.7,8.7-14.6
			c9.7-16.9,19.6-33.8,29.1-50.8C3236.9,3711.1,3133.6,3651.4,3030.3,3591.7z M935.3,3639.7c-73.7,42.6-147.4,85.3-221.1,127.9
			c-1.8,1.2-4.3,1.8-5.5,3.8c8.2,14.8,17,29.3,25.4,44c4.2,6.8,7.7,14.1,12.4,20.6c32.1-18.9,64.6-37.4,96.8-56.1
			c70.9-40.9,141.7-82.1,212.7-122.9c-8.2-15.1-17.3-29.9-25.8-44.8c-4.2-6.7-7.5-13.9-12.2-20.2
			C990.3,3607.6,962.9,3623.8,935.3,3639.7z M3108.1,3827.6c-5,6-9.2,12.7-13.7,19.1c29.9,22.3,60.4,43.9,90.5,65.9
			c14.6,10.5,28.9,21.5,43.6,31.9c4.6-6.4,10-12.3,14.1-19.1c-11.5-9.1-23.7-17.4-35.5-26.1c-19.3-14-38.6-28.1-57.9-42.1
			C3135.4,3847.4,3122,3837.2,3108.1,3827.6z M892.1,3862.6c-28.7,21-57.7,41.6-86.2,62.9c4.4,6.6,9.8,12.4,14.4,18.8
			c13.7-9.7,27.2-19.8,40.8-29.7c28.8-21.2,57.9-42,86.6-63.3c-2.4-4.1-5.4-7.7-8-11.7c-1.9-2.5-3.3-5.4-5.7-7.4
			C919.9,3842.2,906.2,3852.6,892.1,3862.6z M1965.7,3887.2c-7.3,4.2-13.3,11.6-13.9,20.3c-0.3,7.2,0.8,14.9,5.6,20.6
			c8,9.7,22.1,13.4,34,9.8c6.3-1.8,11.7-6.4,14.5-12.4c-7.5,3.3-14.6,7.9-22.9,8.9c-6.9,1.1-13.8-1.6-19-6.1
			c-7.4-6.5-9.2-17.8-5.9-26.8c3-8,11.1-13.1,19.2-14.7c10.1-1.4,19,4.7,27.6,8.9c-2.2-5.2-6.4-9.5-11.7-11.5
			C1984.3,3880.6,1973.9,3882.5,1965.7,3887.2z M2107.5,3892.1c-1.6,4.1,0.7,8.4,3.6,11.3c6.1,6.3,14.9,9.6,19.7,17.2
			c1.4,2.3,3.1,5.4,1.2,8c-2.9,4.8-9,5.6-14,6.6c-4.6-3.8-9.2-7.5-14.2-10.6c1.4,12.1,17.2,18.6,26.9,11.7c6-4,7.4-13,3.3-18.8
			c-5.9-8.6-16.3-12.4-22.3-20.7c-0.9-1.5-2.4-3.1-1.5-4.9c2.8-2.9,6.7-4.6,10.8-4.3c4.8,0.2,8.7,3.4,12.2,6.3
			c0.8-1.4,1.7-2.7,2.5-4c-3.9-2.5-7.4-5.8-11.9-7.2C2117.1,3881,2109.2,3885.1,2107.5,3892.1z M1909.3,3883.6
			c-0.2,18.1,0.1,36.3,0.1,54.4c1.5,0,2.9,0.1,4.4,0.2c0.8-8.8-0.4-17.6-0.1-26.4c8.8,8.2,16.7,17.2,25.4,25.5
			c1.4,1.3,3.5,0.2,5.2,0.3c-8.6-10.2-18.5-19.3-27.5-29.2c7.9-8.8,17.7-15.9,25.3-25.1c-4.3,0.8-8.4,2.7-11.6,5.6
			c-6,4.7-10.1,11.5-16.4,15.9c-0.3-7.2,0.1-14.4,0-21.6C1912.5,3883.4,1910.9,3883.5,1909.3,3883.6z M2036.5,3883.5
			c-7.9,18.5-16.9,36.5-23.5,55.5c8.6-2.9,8.3-13.7,13.2-19.6c7.1-0.5,14.4-0.8,21.4,0.4c3.8,6.5,4.5,16.1,12.5,19.1
			c-2.6-8.5-6.5-16.5-9.9-24.6C2045.6,3904,2041.5,3893.6,2036.5,3883.5z M2074.9,3883.4c0.1,18.3-0.3,36.5,0.2,54.8
			c8.3-0.2,16.6-0.1,24.9,0c0.1-1.6,0.2-3.2,0.3-4.7c-6.9-0.2-13.7-0.1-20.6-0.1c-0.8-16.6,0-33.3-0.4-50
			C2077.8,3883.4,2076.3,3883.4,2074.9,3883.4z M3006.8,3954.7c0.9,2.2,3.2,3.4,4.8,5.1c39.2,35.5,78.6,70.9,117.7,106.5
			c4.9-6.3,10.5-12.1,15.1-18.7c-13-12.2-26.4-23.9-39.6-35.9c-27.7-25.1-55.7-49.9-83.3-75.1
			C3016.4,3942.4,3011.5,3948.5,3006.8,3954.7z M990.3,3969.8c-29.1,26.3-58.2,52.7-87.3,79c5.1,6,10.4,11.9,15.5,18
			c10.8-9.1,21-18.9,31.6-28.3c15.4-13.9,30.8-27.9,46.2-41.8c13.6-12.5,27.5-24.5,40.8-37.2c-2.2-3.2-5-5.7-7.5-8.6
			c-2.8-3-5.2-6.3-8.5-8.7C1010.5,3951.1,1000.6,3960.6,990.3,3969.8z M1421.6,4023.4c-18.6,32.8-37.7,65.4-56.5,98.1
			c-40.7,70.6-81.4,141.3-122.2,211.8c21.1,12.3,42.3,24.6,63.5,36.8c1.5,1.4,2.3-0.1,3-1.3c40.9-70.8,81.7-141.6,122.5-212.4
			c18.3-31.9,36.9-63.6,55-95.6C1465,4048.6,1443.7,4035.4,1421.6,4023.4z M2561.8,4060.9c5.6,10.8,12.1,21.1,18,31.7
			c50.4,87.3,100.8,174.6,151.1,262c3.4,5.5,6.1,11.6,10,16.8c21.7-12.5,43.2-25.4,64.8-38c-59.6-103.4-119.3-206.7-178.9-310
			C2605,4035.5,2583.6,4048.5,2561.8,4060.9z M2906.9,4052.9c14.4,16.5,29.3,32.5,43.9,48.8c22.2,24.6,44.4,49.2,66.5,73.9
			c5.8-5.2,12.1-9.9,17.6-15.3c0-1.7-1.8-2.8-2.7-4c-35.9-39.4-71.3-79.4-107.3-118.7C2918.4,4042,2913.1,4048,2906.9,4052.9z
			 M1119.3,4042.3c-35.3,39.4-71.1,78.4-105.9,118.3c6,5.1,12.2,9.9,18.3,14.9c35-39.6,70.8-78.5,105.9-118
			C1131.6,4052.3,1125.6,4047.1,1119.3,4042.3z M2798.6,4140.6c1.4,2.9,3.6,5.3,5.4,7.9c10.8,14.9,21.6,29.7,32.4,44.6
			c19.6,26.7,38.7,53.8,58.6,80.2c6.5-4.3,12.6-9.1,19.2-13.3c-9.3-14.1-19.8-27.4-29.5-41.1c-22.3-30.9-44.9-61.6-67.1-92.6
			C2811,4130.7,2804.6,4135.5,2798.6,4140.6z M1228.1,4130.8c-7.4,9.6-14.3,19.6-21.5,29.4c-24.1,33.3-48.4,66.5-72.4,99.9
			c6.8,4.1,13.1,8.8,19.8,13c8.5-11.1,16.4-22.6,24.7-33.8c22.8-31.5,45.8-62.9,68.4-94.6
			C1240.8,4140.1,1234.6,4135.3,1228.1,4130.8z M1986,4195.5c0.1,12.7-0.2,25.3-0.1,38c0,106.7-0.1,213.4,0,320.1
			c25.6,0,51.2,0.1,76.7,0c-0.2-10.7,0-21.4-0.1-32.1c0.1-108.6-0.1-217.1,0.1-325.7C2037.1,4195.3,2011.6,4195.6,1986,4195.5z
			 M2555.9,4278.6c19.8,44.5,39.6,89,59.5,133.5c2.6,5.2,4.3,11,7.6,15.8c7.2-3,14.1-6.5,21.2-9.6c-13.6-31.5-28-62.7-41.9-94.1
			c-8.3-18-15.9-36.3-24.4-54.1C2570.4,4272.3,2563.3,4275.7,2555.9,4278.6z M1469.1,4273.3c-13.9,30.9-27.7,61.9-41.5,92.9
			c-7.6,17.5-15.8,34.7-23,52.4c7.1,3.5,14.7,6.1,22.1,9.1c21.3-48.4,42.9-96.8,64.2-145.2
			C1483.7,4279.3,1476.4,4276.2,1469.1,4273.3z M2425.8,4328.6c13.5,43.5,28,86.7,42.1,130c2.9,8,4.8,16.4,8.2,24.2
			c7.6-2,14.8-5.2,22.3-7.6c-2.3-8.2-5.4-16.1-7.8-24.2c-14.4-43.3-28.1-86.8-42.5-130C2440.5,4323.4,2433.1,4326,2425.8,4328.6z
			 M1596.8,4332.3c-12.7,39.3-25.4,78.5-38.1,117.8c-2.5,8.6-6.2,17-7.8,25.9c7.4,2.2,14.7,4.8,22,7.3
			c13.8-42.2,27.5-84.5,41.2-126.7c2.7-8.6,5.9-17.1,8.1-25.8c-7.5-2.1-14.8-4.9-22.3-6.9
			C1598.2,4326.3,1597.8,4329.5,1596.8,4332.3z M2290.2,4364.3c11.3,52.8,22.6,105.6,33.9,158.4c7.7-1.7,15.2-4.1,22.8-5.7
			c-0.7-6.1-2.4-12-3.5-18c-9.9-46.9-20.1-93.7-29.9-140.6C2305.8,4360.2,2297.9,4362.1,2290.2,4364.3z M1734.8,4360.5
			c-1.5,5.7-2.5,11.5-3.8,17.2c-9.8,46.6-19.9,93.2-29.4,139.8c7.7,1.8,15.4,3.7,23.2,5.2c11-52.1,22-104.2,33.2-156.3
			C1750.3,4364.2,1742.5,4362.5,1734.8,4360.5z M1872.3,4383.4c-5.1,53.6-10.7,107.2-16,160.9c7.9,0,15.8,0,23.7,0
			c2.9-25.2,5.2-50.5,7.9-75.7c2.7-27.7,5.8-55.3,8.4-83C1888.2,4384.9,1880.3,4383.7,1872.3,4383.4z M2152.1,4384.5
			c5.7,53.1,10.9,106.3,16.6,159.4c8,0.4,16,0.1,24,0.3c-5.6-53.7-10.9-107.4-16.6-161C2168,4383,2160.1,4384.2,2152.1,4384.5z"/>
	</g>
	<path d="M2653.9,2176.4c14.5-6.5,34,6,33.3,22.2c0,5.8-3.5,10.8-6.9,15.2c-91.9,125.4-184.8,249.9-277.3,374.8
		c-11.7,15.7-23.2,31.5-35,47.2c-12.5-9-24.8-18.2-37.1-27.3c22-30.3,44.5-60.1,66.7-90.2c81.3-109.7,162.4-219.5,244.1-329
		C2645.1,2184.4,2648.3,2178.9,2653.9,2176.4z"/>
	<path d="M2293.4,3272.4c84.3,79.6,168.4,159.4,252.7,239c7.6,8.3,8.5,22.4,0.8,31c-6.3,7.9-17.9,10-26.9,6.2
		c-6.3-2.6-10.3-8.4-15.4-12.7c-81-76.5-161.9-153.1-242.8-229.8C2271.9,3294.6,2282.9,3283.7,2293.4,3272.4z"/>
	<path d="M2031.7,3913.8c-1.9-5.4-0.2-13.5,5.8-15.4c2.3,4,5.1,8.1,5.5,12.9C2040.6,3915.1,2035.5,3915.3,2031.7,3913.8z"/>
</g>
</svg>
