<?xml version="1.0" encoding="utf-8"?>
<!-- Generator: Adobe Illustrator 18.0.0, SVG Export Plug-In . SVG Version: 6.00 Build 0)  -->
<!DOCTYPE svg PUBLIC "-//W3C//DTD SVG 1.1//EN" "http://www.w3.org/Graphics/SVG/1.1/DTD/svg11.dtd">
<svg version="1.1" id="Layer_1" xmlns="http://www.w3.org/2000/svg" xmlns:xlink="http://www.w3.org/1999/xlink" x="0px" y="0px"
	 viewBox="0 0 4054 4791" enable-background="new 0 0 4054 4791" xml:space="preserve">
<g>
	<path d="M2850.6,0.5h48.8c79.7,1.3,159.1,8.9,238.6,15.1c56.9,4.8,113.8,11.5,170.9,14.5c60,3.6,120.1,4.6,180.1,3.7
		c15,0.1,30-1.1,45-1.2c11.7-0.9,23.4-0.8,35-1.9c38-3.9,76.5-3,114-11c8.2-1.6,16.1-4.3,24.2-6.2c-2,1.8-4.1,3.5-6.2,5.1
		c-90.8,70.7-173.9,152-242.3,244.7c-9,12-17.3,24.6-26.4,36.6c-70.4,96-130.3,199.2-197.9,297.1c-44,63.5-91.4,125.1-146.5,179.5
		c-51.8,51.5-110.9,95.4-173.9,132.1c-72.1,41.8-150.1,73.7-231,94c-95.1,23.7-194.5,32.4-291.9,20c-51.5-7-102.8-16-152.7-30.3
		c-59.9-16.9-118.1-40.8-170.6-74.4c-3.3-2.3-7.2-4-9.8-7.1c-1.9-5.8-2.1-11.9-3.2-17.9c-16.5-109.9-6.4-223.2,26.3-329.2
		c22.3-72.5,55.2-141.7,97-205.1c64.9-97.6,151.8-180.3,252.1-240.8c84.7-51,178.7-86.6,276.1-103.9
		C2753.9,5.3,2802.3,1.8,2850.6,0.5z"/>
	<path d="M1608.8,425.6c92.9,1.5,185.3-13,278.2-12.7c12.9-0.2,25.8,1,38.7,0.9c15.2,62.2,29.2,124.7,40.3,187.7
		c18,100.6,28.8,202.7,27.8,305c-0.7,21,0.7,42-0.5,63c-2.9,111.7-24.5,221.7-39.5,332.2c196.3-31.6,386.4-93.7,583.4-120.8
		c99.6-13.6,201.1-18.1,300.9-4.3c131.1,17.3,258.8,57.4,378.2,113.9c141.1,67.3,267.9,162.4,377.7,273.2
		c107.7,108.7,198.7,233.7,270.1,368.9c37.9,71.9,71,146.4,97.7,223.2c29.5,84.3,51.2,171.2,65.6,259.3
		c16.8,100.3,25.1,201.9,26.3,303.6c0.5,26.4-0.3,52.7-0.9,79c-5.2,177.5-32.8,354.2-79.2,525.6c-35.3,130.5-81.8,257.9-138.2,380.8
		c-102.6,223.5-238,431.9-400.3,616.6c-36.3,41.6-74.6,81.4-113.3,120.7c-41.5,41.6-84.3,81.9-129.6,119.4
		c-88.9,73.8-188.3,136.1-296.4,177.5c-64.3,24.7-131.6,41.7-200.1,48.8c-16.5,1.9-33,2.4-49.5,3.2c-8.3,0.2-16.6,0-24.8,1.3h-100.7
		c-18.2-0.2-36.4-1.2-54.6-1.3c-168.5-4.8-336.6-20-505-26.9c-11.2-0.2-22.4-1.2-33.6-1.1c-17.8-1.1-35.6-0.8-53.4-1.7
		c-32.7-0.2-65.3-0.9-98-0.3c-15.4,0.3-30.7-0.1-46.1,0.8c-51.4,1.3-102.7,4.4-153.9,9.4c-23.6,2.4-47.3,3.6-71,4.9
		c-13.4,0.1-26.7,1.3-40.1,1c-94.3,1.2-189.3-7.9-280.4-33.4c-78.8-22-154.7-56.5-220.2-105.8
		c-368.2-292.6-653.3-688.2-815.5-1129.5C86.7,3338.3,42.8,3162.3,19,2983.5C7.8,2899.1,1.7,2814,0,2728.9v-70.8
		c1.3-61.3,4.6-122.6,11.1-183.7c15.9-154,49.1-306.3,100.5-452.3c28.2-79.7,62.3-157.3,102.5-231.6c35.7-66,76.2-129.6,121.7-189.3
		c47.1-61.8,99.7-119.5,157.8-171.2c55.8-49.7,116.7-93.8,182.1-129.9c76.1-42.2,158.5-73.5,243.7-91.3
		c52.4-10.9,106-16.3,159.6-16.2c94,1.3,187,17.7,278.4,38.4c91.3,20.6,181.8,45,273.9,62.1c84.8,15.7,171.5,25,257.8,18.4
		c-0.3-30-2.5-60-6.5-89.8c-5.5-42.6-13.9-84.8-21.9-127c-12.2-66.7-28.3-132.6-47.6-197.5C1764.2,732.7,1694.1,574.6,1608.8,425.6z
		"/>
</g>
</svg>
